{
.appVersion = "1348";
DisplayStrings = (
"",
"/fi/fl",
"KOLONBIYA\012AÁ/Abreve ÂÄÀ/Amacron/Aogonek ÅÃÆBC/Cacute/Ccaron ÇDÐ/Dcaron/Dcroat EÉ/Ecaron ÊË/Edotaccent È/Emacron/Eogonek FG/Gbreve HIÍÎÏ/Idotaccent Ì/Imacron/Iogonek JKL/Lacute/Lcaron/Lslash MN/Nacute/Ncaron ÑOÓÔÖÒ/Ohungarumlaut/Omacron ØÕ/OE PÞQR/Racute/Rcaron S/Sacute/Scaron T/Tcaron UÚÛÜÙ/Uhungarumlaut/Umacron/Uogonek/Uring VWXYÝ/Ydieresis Z/Zacute/Zcaron/Zdotaccent/uni0122/uni0136/uni013B/uni0145/uni0156/uni015E/uni0162/uni0218/uni021A aá/abreve âäà/amacron/aogonek åãæbc/cacute/ccaron çdð/dcaron/dcroat eé/ecaron êë/edotaccent è/emacron/eogonek fg/gbreve hi/dotlessi íîïì/imacron/iogonek jkl/lacute/lcaron/lslash mn/nacute/ncaron ñoóôöò/ohungarumlaut/omacron øõ/oe pþqr/racute/rcaron s/sacute/scaron ßt/tcaron uúûüù/uhungarumlaut/umacron/uni0123/uni0137/uni013C/uni0146/uni0157/uni015F/uni0163/uni0219/uni021B/uogonek/uring vwxyý/ydieresis z/zacute/zcaron/zdotaccent/fi/fl ªº",
"/sinA/sinRa/sinKa/sinSsa",
"/sinLU/sinPU/sinD/sinHa/sinTt/sinKU/sinLla/sinTta/sinMatraAe/sinB/space/sinE/sinKa/space/sinTta/sinLa/sinTU/sinT",
"/sinMatraU/sinVU/sinN/sinMatraAa.virama/sinE/sinG \012/sinMU/sinMba/sinJa/sinJIi/sinL \012/sinMatraIi/sinKIi/sinBI/sinAnusvara \012\012105",
"/sinK/sinG/sinT/sinD/sinN/sinNd/sinP/sinB/sinM/sinR/sinL/sinDdI"
);
copyright = "Copyright 2021 The Stick No Bills Project Authors (https://github.com/mooniak/stick-no-bills-font)";
customParameters = (
{
name = trademark;
value = "STICK NO BILLS is a trademark of STICK NO BILLS Gallery, Sri Lanka (http://sticknobillsonline.com)";
},
{
name = fsType;
value = (
);
},
{
name = license;
value = "This Font Software is licensed under the SIL Open Font License, Version 1.1. This license is available with a FAQ at: http://scripts.sil.org/OFL";
},
{
name = unicodeRanges;
value = (
0,
1,
2,
20,
73
);
},
{
name = sampleText;
value = "දැරණියගලට ඉහල අහසේ දඟකරන වලාපෙළ මවනා සොඳුරු දසුන රාත්‍රිය උදාවත් සමග ක්‍ෂයවේ.";
},
{
name = vendorID;
value = MNIK;
},
{

glyphs = (
{
glyphname = sinA;
lastChange = "2021-09-08 06:24:26 +0000";
layers = (
{
layerId = "906FCD19-247B-4D81-AD63-2BEA4CF1C003";
paths = (
{
closed = 1;
nodes = (
"454 59 LINE",
"267 59 LINE SMOOTH",
"161 59 OFFCURVE",
"105 117 OFFCURVE",
"105 199 CURVE SMOOTH",
"105 287 OFFCURVE",
"163 342 OFFCURVE",
"261 342 CURVE SMOOTH",
"487 342 LINE",
"487 392 LINE SMOOTH",
"487 519 OFFCURVE",
"392 579 OFFCURVE",
"293 579 CURVE SMOOTH",
"215 579 OFFCURVE",
"140 537 OFFCURVE",
"119 457 CURVE",
"174 438 LINE",
"189 493 OFFCURVE",
"241 522 OFFCURVE",
"296 522 CURVE SMOOTH",
"365 522 OFFCURVE",
"429 482 OFFCURVE",
"429 402 CURVE",
"269 402 LINE SMOOTH",
"138 402 OFFCURVE",
"43 335 OFFCURVE",
"43 199 CURVE SMOOTH",
"43 61 OFFCURVE",
"148 0 OFFCURVE",
"266 0 CURVE SMOOTH",
"454 0 LINE"
);
},
{
closed = 1;
nodes = (
"487 -169 LINE",
"487 0 LINE",
"547 0 LINE",
"547 61 LINE",
"487 61 LINE",
"487 419 LINE SMOOTH",
"487 458 OFFCURVE",
"505 509 OFFCURVE",
"565 523 CURVE",
"552 582 LINE",
"477 562 OFFCURVE",
"429 508 OFFCURVE",
"429 422 CURVE SMOOTH",
"429 -169 LINE"
);
}
);
width = 625;
}
);
leftMetricsKey = t;
unicode = 0D85;
},
{
glyphname = sinI;
lastChange = "2021-09-08 06:00:46 +0000";
layers = (
{
layerId = "906FCD19-247B-4D81-AD63-2BEA4CF1C003";
paths = (
{
closed = 1;
nodes = (
"284 0 LINE SMOOTH",
"441 0 OFFCURVE",
"528 94 OFFCURVE",
"528 249 CURVE SMOOTH",
"528 379 LINE SMOOTH",
"528 506 OFFCURVE",
"429 571 OFFCURVE",
"325 571 CURVE SMOOTH",
"309 571 LINE",
"309 511 LINE",
"363 511 OFFCURVE",
"468 491 OFFCURVE",
"468 371 CURVE SMOOTH",
"468 255 LINE SMOOTH",
"468 101 OFFCURVE",
"361 58 OFFCURVE",
"271 58 CURVE SMOOTH",
"193 58 LINE",
"193 0 LINE"
);
},
{
closed = 1;
nodes = (
"343 -204 OFFCURVE",
"431 -148 OFFCURVE",
"431 -45 CURVE",
"371 -45 LINE",
"371 -109 OFFCURVE",
"307 -147 OFFCURVE",
"248 -147 CURVE SMOOTH",
"199 -147 OFFCURVE",
"141 -121 OFFCURVE",
"128 -62 CURVE",
"70 -77 LINE",
"89 -158 OFFCURVE",
"169 -204 OFFCURVE",
"251 -204 CURVE SMOOTH"
);
},
{
closed = 1;
nodes = (
"257 174 OFFCURVE",
"311 223 OFFCURVE",
"311 289 CURVE SMOOTH",
"311 365 LINE",
"253 365 LINE",
"253 303 LINE SMOOTH",
"253 260 OFFCURVE",
"215 237 OFFCURVE",
"172 237 CURVE SMOOTH",
"129 237 OFFCURVE",
"83 259 OFFCURVE",
"83 319 CURVE SMOOTH",
"83 383 LINE SMOOTH",
"83 483 OFFCURVE",
"196 511 OFFCURVE",
"238 511 CURVE SMOOTH",
"254 511 LINE",
"254 571 LINE",
"238 571 LINE SMOOTH",
"134 571 OFFCURVE",
"22 503 OFFCURVE",
"22 385 CURVE SMOOTH",
"22 313 LINE SMOOTH",
"22 220 OFFCURVE",
"92 174 OFFCURVE",
"173 174 CURVE SMOOTH"
);
}
);
width = 558;
}
);
unicode = 0D89;
userData = {
com.fontlab.hintData = {
hhints = (
{
position = -204;
width = 126;
},
{
position = 0;
width = 128;
},
{
position = 176;
width = 140;
},
{
position = 428;
width = 141;
}
);
vhints = (
{
position = 30;
width = 138;
},
{
position = 402;
width = 137;
}
);
};
};
},
{
glyphname = sinIi;
lastChange = "2021-09-08 06:00:46 +0000";
layers = (
{
components = (
{
alignment = -1;
name = sinRa;
}
);
layerId = "906FCD19-247B-4D81-AD63-2BEA4CF1C003";
paths = (
{
closed = 1;
nodes = (
"486 593 OFFCURVE",
"519 626 OFFCURVE",
"519 665 CURVE SMOOTH",
"519 705 OFFCURVE",
"486 738 OFFCURVE",
"446 738 CURVE SMOOTH",
"406 738 OFFCURVE",
"373 705 OFFCURVE",
"373 665 CURVE SMOOTH",
"373 626 OFFCURVE",
"406 593 OFFCURVE",
"446 593 CURVE SMOOTH"
);
},
{
closed = 1;
nodes = (
"163 697.002 OFFCURVE",
"196 730.002 OFFCURVE",
"196 769.002 CURVE SMOOTH",
"196 809.002 OFFCURVE",
"163 842.002 OFFCURVE",
"123 842.002 CURVE SMOOTH",
"83 842.002 OFFCURVE",
"50 809.002 OFFCURVE",
"50 769.002 CURVE SMOOTH",
"50 730.002 OFFCURVE",
"83 697.002 OFFCURVE",
"123 697.002 CURVE SMOOTH"
);
}
);
width = 543;
}
);
unicode = 0D8A;
userData = {
com.fontlab.hintData = {
hhints = (
{
position = -6;
width = 145;
},
{
position = 587;
width = 145;
},
{
position = 697;
width = 145;
}
);
vhints = (
{
position = 30;
width = 140;
},
{
position = 50;
width = 146;
},
{
position = 375;
width = 140;
},
{
position = 463;
width = 146;
}
);
};
};
},
{
glyphname = sinU;
lastChange = "2021-09-08 06:00:46 +0000";
layers = (
{
layerId = "906FCD19-247B-4D81-AD63-2BEA4CF1C003";
paths = (
{
closed = 1;
nodes = (
"268 -109 LINE",
"244 -108 OFFCURVE",
"90 -80 OFFCURVE",
"90 85 CURVE SMOOTH",
"90 133 LINE SMOOTH",
"90 313 OFFCURVE",
"189 337 OFFCURVE",
"268 337 CURVE SMOOTH",
"513 337 LINE",
"513 393 LINE",
"507 521 OFFCURVE",
"413 574 OFFCURVE",
"316 574 CURVE SMOOTH",
"233 574 OFFCURVE",
"150 534 OFFCURVE",
"128 464 CURVE",
"181 444 LINE",
"196 490 OFFCURVE",
"259 517 OFFCURVE",
"317 517 CURVE SMOOTH",
"377 517 OFFCURVE",
"446 486 OFFCURVE",
"454 397 CURVE",
"267 397 LINE SMOOTH",
"61 397 OFFCURVE",
"30 247 OFFCURVE",
"30 133 CURVE SMOOTH",
"30 85 LINE SMOOTH",
"30 -83 OFFCURVE",
"164 -169 OFFCURVE",
"268 -169 CURVE"
);
},
{
closed = 1;
nodes = (
"423 -168 OFFCURVE",
"540 -135 OFFCURVE",
"569 4 CURVE",
"511 20 LINE",
"486 -95 OFFCURVE",
"378 -108 OFFCURVE",
"324 -108 CURVE",
"324 -168 LINE"
);
}
);
width = 549;
}
);
unicode = 0D8B;
userData = {
com.fontlab.hintData = {
hhints = (
{
position = -169;
width = 40;
},
{
position = 357;
width = 40;
},
{
position = 533;
width = 41;
}
);
vhints = (
{
position = 30;
width = 40;
},
{
position = 128;
width = 38;
},
{
position = 530;
width = 39;
}
);
};
};
},
{
glyphname = sinRVocalic;
lastChange = "2021-09-08 06:00:46 +0000";
layers = (
{
components = (
{
alignment = -1;
name = sinMatraR;
transform = "{1, 0, 0, 1, 649, 0}";
}
);
layerId = "906FCD19-247B-4D81-AD63-2BEA4CF1C003";
paths = (
{
closed = 1;
nodes = (
"242 -2 OFFCURVE",
"290 21 OFFCURVE",
"316 61 CURVE",
"343 21 OFFCURVE",
"392 -2 OFFCURVE",
"447 -2 CURVE SMOOTH",
"535 -2 OFFCURVE",
"604 55 OFFCURVE",
"604 144 CURVE SMOOTH",
"604 194 LINE",
"544 194 LINE",
"544 147 LINE SMOOTH",
"544 88 OFFCURVE",
"500 58 OFFCURVE",
"445 58 CURVE SMOOTH",
"390 58 OFFCURVE",
"346 88 OFFCURVE",
"346 147 CURVE SMOOTH",
"346 194 LINE",
"288 194 LINE",
"288 147 LINE SMOOTH",
"288 88 OFFCURVE",
"244 58 OFFCURVE",
"189 58 CURVE SMOOTH",
"134 58 OFFCURVE",
"90 88 OFFCURVE",
"90 147 CURVE SMOOTH",
"90 194 LINE",
"30 194 LINE",
"30 144 LINE SMOOTH",
"30 56 OFFCURVE",
"99 -2 OFFCURVE",
"188 -2 CURVE SMOOTH"
);
},
{
closed = 1;
nodes = (
"90 243 LINE",
"90 282 LINE SMOOTH",
"90 338 OFFCURVE",
"124 346 OFFCURVE",
"157 346 CURVE SMOOTH",
"477 346 LINE SMOOTH",
"510 346 OFFCURVE",
"544 338 OFFCURVE",
"544 282 CURVE SMOOTH",
"544 243 LINE",
"604 243 LINE",
"604 286 LINE SMOOTH",
"604 348 OFFCURVE",
"582 402 OFFCURVE",
"480 402 CURVE SMOOTH",
"154 402 LINE SMOOTH",
"52 402 OFFCURVE",
"30 348 OFFCURVE",
"30 286 CURVE SMOOTH",
"30 243 LINE"
);
},
{
closed = 1;
nodes = (
"346 379 LINE",
"346 411 LINE SMOOTH",
"346 464 OFFCURVE",
"379 509 OFFCURVE",
"445 509 CURVE SMOOTH",
"500 509 OFFCURVE",
"531 487 OFFCURVE",
"542 455 CURVE",
"597 474 LINE",
"571 541 OFFCURVE",
"510 566 OFFCURVE",
"444 566 CURVE SMOOTH",
"406 566 OFFCURVE",
"349 553 OFFCURVE",
"317 506 CURVE",
"285 553 OFFCURVE",
"228 566 OFFCURVE",
"190 566 CURVE SMOOTH",
"124 566 OFFCURVE",
"63 541 OFFCURVE",
"37 474 CURVE",
"92 455 LINE",
"103 487 OFFCURVE",
"134 509 OFFCURVE",
"189 509 CURVE SMOOTH",
"255 509 OFFCURVE",
"288 464 OFFCURVE",
"288 411 CURVE SMOOTH",
"288 379 LINE"
);
}
);
width = 975;
}
);
unicode = 0D8D;
},
{
glyphname = sinLVocalic;
lastChange = "2021-09-08 06:00:46 +0000";
layers = (
{
components = (
{
alignment = -1;
name = sinPa;
transform = "{1, 0, 0, 1, 141, 0}";
}
);
layerId = "906FCD19-247B-4D81-AD63-2BEA4CF1C003";
paths = (
{
closed = 1;
nodes = (
"175 -6 OFFCURVE",
"210 29 OFFCURVE",
"210 73 CURVE SMOOTH",
"210 117 OFFCURVE",
"175 152 OFFCURVE",
"131 152 CURVE SMOOTH",
"87 152 OFFCURVE",
"52 117 OFFCURVE",
"52 73 CURVE SMOOTH",
"52 29 OFFCURVE",
"87 -6 OFFCURVE",
"131 -6 CURVE SMOOTH"
);
},
{
closed = 1;
nodes = (
"112 72 LINE",
"99 100 OFFCURVE",
"88 155 OFFCURVE",
"88 202 CURVE",
"30 202 LINE",
"30 139 OFFCURVE",
"40 78 OFFCURVE",
"61 36 CURVE"
);
},
{
closed = 1;
nodes = (
"88 251 LINE",
"88 360 LINE SMOOTH",
"88 447 OFFCURVE",
"130 469 OFFCURVE",
"168 469 CURVE SMOOTH",
"180 469 OFFCURVE",
"192 467 OFFCURVE",
"202 464 CURVE SMOOTH",
"226 456 LINE",
"226 517 LINE",
"203 525 OFFCURVE",
"183 529 OFFCURVE",
"163 529 CURVE SMOOTH",
"84 529 OFFCURVE",
"30 465 OFFCURVE",
"30 363 CURVE SMOOTH",
"30 251 LINE"
);
},
{
closed = 1;
nodes = (
"873 251 LINE",
"873 363 LINE SMOOTH",
"873 465 OFFCURVE",
"819 529 OFFCURVE",
"740 529 CURVE SMOOTH",
"720 529 OFFCURVE",
"699 525 OFFCURVE",
"677 517 CURVE",
"677 456 LINE",
"701 464 LINE SMOOTH",
"711 467 OFFCURVE",
"723 469 OFFCURVE",
"735 469 CURVE SMOOTH",
"773 469 OFFCURVE",
"815 447 OFFCURVE",
"815 360 CURVE SMOOTH",
"815 251 LINE"
);
},
{
closed = 1;
nodes = (
"863 78 OFFCURVE",
"873 139 OFFCURVE",
"873 202 CURVE",
"815 202 LINE",
"815 155 OFFCURVE",
"804 100 OFFCURVE",
"790 72 CURVE",
"842 36 LINE"
);
},
{
closed = 1;
nodes = (
"816 -6 OFFCURVE",
"851 29 OFFCURVE",
"851 73 CURVE SMOOTH",
"851 117 OFFCURVE",
"816 152 OFFCURVE",
"772 152 CURVE SMOOTH",
"728 152 OFFCURVE",
"693 117 OFFCURVE",
"693 73 CURVE SMOOTH",
"693 29 OFFCURVE",
"728 -6 OFFCURVE",
"772 -6 CURVE SMOOTH"
);
}
);
width = 903;
}
);
unicode = 0D8F;
},
{
glyphname = sinE;
lastChange = "2021-09-13 11:03:30 +0000";
layers = (
{
layerId = "906FCD19-247B-4D81-AD63-2BEA4CF1C003";
paths = (
{
closed = 1;
nodes = (
"300 60 LINE",
"177 60 OFFCURVE",
"133 128 OFFCURVE",
"133 193 CURVE SMOOTH",
"133 252 OFFCURVE",
"172 298 OFFCURVE",
"220 298 CURVE SMOOTH",
"338 298 LINE",
"338 353 LINE SMOOTH",
"338 397 OFFCURVE",
"322 428 OFFCURVE",
"297 450 CURVE SMOOTH",
"271 472 OFFCURVE",
"236 484 OFFCURVE",
"201 484 CURVE SMOOTH",
"149 484 OFFCURVE",
"91 460 OFFCURVE",
"75 400 CURVE",
"126 386 LINE",
"138 417 OFFCURVE",
"170 430 OFFCURVE",
"199 430 CURVE SMOOTH",
"240 430 OFFCURVE",
"285 402 OFFCURVE",
"285 358 CURVE SMOOTH",
"285 350 LINE",
"30 350 LINE",
"30 298 LINE",
"108 298 LINE",
"84 270 OFFCURVE",
"72 231 OFFCURVE",
"72 192 CURVE SMOOTH",
"72 96 OFFCURVE",
"140 -1 OFFCURVE",
"300 -1 CURVE"
);
},
{
closed = 1;
nodes = (
"493 -1 OFFCURVE",
"562 83 OFFCURVE",
"562 243 CURVE",
"500 243 LINE",
"500 107 OFFCURVE",
"434 60 OFFCURVE",
"295 60 CURVE",
"295 -1 LINE"
);
},
{
closed = 1;
nodes = (
"277 755 LINE",
"277 631 LINE SMOOTH",
"277 537 OFFCURVE",
"330 459 OFFCURVE",
"509 459 CURVE",
"509 513 LINE",
"388 513 OFFCURVE",
"333 546 OFFCURVE",
"333 632 CURVE SMOOTH",
"333 698 LINE",
"336 698 LINE SMOOTH",
"459 698 OFFCURVE",
"500 633 OFFCURVE",
"500 500 CURVE SMOOTH",
"500 243 LINE",
"562 243 LINE",
"562 517 LINE SMOOTH",
"562 700 OFFCURVE",
"464 755 OFFCURVE",
"333 755 CURVE SMOOTH"
);
}
);
width = 592;
}
);
unicode = 0D91;
userData = {
com.fontlab.hintData = {
hhints = (
{
position = 0;
width = 40;
},
{
position = 235;
width = 6;
},
{
position = 309;
width = 40;
},
{
position = 464;
width = 40;
},
{
position = 715;
width = 40;
}
);
vhints = (
{
position = 292;
width = 40;
},
{
position = 517;
width = 42;
}
);
};
};
},
{
glyphname = sinEe;
lastChange = "2021-09-08 06:00:46 +0000";
layers = (
{
components = (
{
alignment = -1;
name = sinE;
}
);
layerId = "906FCD19-247B-4D81-AD63-2BEA4CF1C003";
paths = (
{
closed = 1;
nodes = (
"562 518 LINE",
"562 819 LINE",
"501 819 LINE",
"501 518 LINE"
);
}
);
width = 592;
}
);
unicode = 0D92;
userData = {
com.fontlab.hintData = {
hhints = (
{
position = 0;
width = 40;
},
{
position = 235;
width = 6;
},
{
position = 309;
width = 40;
},
{
position = 464;
width = 40;
},
{
position = 715;
width = 40;
}
);
vhints = (
{
position = 292;
width = 40;
},
{
position = 517;
width = 42;
}
);
};
};
},
{
glyphname = sinO;
lastChange = "2021-09-08 06:33:23 +0000";
layers = (
{
layerId = "906FCD19-247B-4D81-AD63-2BEA4CF1C003";
paths = (
{
closed = 1;
nodes = (
"245 -2 OFFCURVE",
"288 17 OFFCURVE",
"313 53 CURVE",
"337 18 OFFCURVE",
"379 -2 OFFCURVE",
"429 -2 CURVE SMOOTH",
"514 -2 OFFCURVE",
"575 53 OFFCURVE",
"575 138 CURVE SMOOTH",
"575 201 LINE",
"514 201 LINE",
"514 145 LINE SMOOTH",
"514 112 OFFCURVE",
"491 58 OFFCURVE",
"426 58 CURVE SMOOTH",
"362 58 OFFCURVE",
"339 112 OFFCURVE",
"339 145 CURVE SMOOTH",
"339 194 LINE",
"286 194 LINE",
"286 145 LINE SMOOTH",
"286 111 OFFCURVE",
"263 58 OFFCURVE",
"199 58 CURVE SMOOTH",
"134 58 OFFCURVE",
"111 112 OFFCURVE",
"111 145 CURVE SMOOTH",
"111 358 LINE SMOOTH",
"111 400 OFFCURVE",
"140 421 OFFCURVE",
"168 421 CURVE SMOOTH",
"196 421 OFFCURVE",
"224 401 OFFCURVE",
"224 362 CURVE SMOOTH",
"224 312 LINE SMOOTH",
"224 258 OFFCURVE",
"267 230 OFFCURVE",
"309 230 CURVE SMOOTH",
"352 230 OFFCURVE",
"399 259 OFFCURVE",
"399 316 CURVE SMOOTH",
"399 469 LINE",
"346 459 LINE",
"346 322 LINE SMOOTH",
"346 299 OFFCURVE",
"327 287 OFFCURVE",
"309 287 CURVE SMOOTH",
"291 287 OFFCURVE",
"273 299 OFFCURVE",
"273 322 CURVE SMOOTH",
"273 369 LINE SMOOTH",
"273 443 OFFCURVE",
"220 479 OFFCURVE",
"166 479 CURVE SMOOTH",
"109 479 OFFCURVE",
"50 438 OFFCURVE",
"50 361 CURVE SMOOTH",
"50 138 LINE SMOOTH",
"50 53 OFFCURVE",
"111 -2 OFFCURVE",
"196 -2 CURVE SMOOTH"
);
},
{
closed = 1;
nodes = (
"114 641 OFFCURVE",
"194 695 OFFCURVE",
"298 695 CURVE",
"298 755 LINE",
"172 755 OFFCURVE",
"55 680 OFFCURVE",
"55 564 CURVE",
"114 548 LINE"
);
},
{
closed = 1;
nodes = (
"575 201 LINE",
"575 495 LINE SMOOTH",
"575 681 OFFCURVE",
"474 755 OFFCURVE",
"295 755 CURVE",
"295 695 LINE",
"426 695 OFFCURVE",
"514 658 OFFCURVE",
"514 493 CURVE SMOOTH",
"514 201 LINE"
);
}
);
width = 625;
}
);
leftMetricsKey = t50;
unicode = 0D94;
},
{
glyphname = sinOo;
lastChange = "2021-09-08 06:00:46 +0000";
layers = (
{
layerId = "906FCD19-247B-4D81-AD63-2BEA4CF1C003";
paths = (
{
closed = 1;
nodes = (
"225 -2 OFFCURVE",
"268 17 OFFCURVE",
"293 53 CURVE",
"317 18 OFFCURVE",
"359 -2 OFFCURVE",
"409 -2 CURVE SMOOTH",
"494 -2 OFFCURVE",
"555 53 OFFCURVE",
"555 138 CURVE SMOOTH",
"555 198 LINE",
"494 198 LINE",
"494 145 LINE SMOOTH",
"494 112 OFFCURVE",
"471 58 OFFCURVE",
"406 58 CURVE SMOOTH",
"342 58 OFFCURVE",
"319 112 OFFCURVE",
"319 145 CURVE SMOOTH",
"319 194 LINE",
"266 194 LINE",
"266 145 LINE SMOOTH",
"266 111 OFFCURVE",
"243 58 OFFCURVE",
"179 58 CURVE SMOOTH",
"114 58 OFFCURVE",
"91 112 OFFCURVE",
"91 145 CURVE SMOOTH",
"91 358 LINE SMOOTH",
"91 400 OFFCURVE",
"120 421 OFFCURVE",
"148 421 CURVE SMOOTH",
"176 421 OFFCURVE",
"204 401 OFFCURVE",
"204 362 CURVE SMOOTH",
"204 312 LINE SMOOTH",
"204 258 OFFCURVE",
"247 230 OFFCURVE",
"289 230 CURVE SMOOTH",
"333 230 OFFCURVE",
"376 258 OFFCURVE",
"376 316 CURVE SMOOTH",
"376 469 LINE",
"326 469 LINE",
"326 322 LINE SMOOTH",
"326 299 OFFCURVE",
"307 287 OFFCURVE",
"289 287 CURVE SMOOTH",
"271 287 OFFCURVE",
"253 299 OFFCURVE",
"253 322 CURVE SMOOTH",
"253 369 LINE SMOOTH",
"253 443 OFFCURVE",
"200 479 OFFCURVE",
"146 479 CURVE SMOOTH",
"89 479 OFFCURVE",
"30 438 OFFCURVE",
"30 361 CURVE SMOOTH",
"30 138 LINE SMOOTH",
"30 53 OFFCURVE",
"91 -2 OFFCURVE",
"176 -2 CURVE SMOOTH"
);
},
{
closed = 1;
nodes = (
"555 198 LINE",
"555 474 LINE SMOOTH",
"555 590 OFFCURVE",
"508 652 OFFCURVE",
"348 652 CURVE",
"348 594 LINE",
"451 594 OFFCURVE",
"494 570 OFFCURVE",
"494 463 CURVE SMOOTH",
"494 198 LINE"
);
},
{
closed = 1;
nodes = (
"348 594 LINE",
"348 652 LINE",
"192 652 LINE SMOOTH",
"149 652 OFFCURVE",
"128 679 OFFCURVE",
"128 708 CURVE SMOOTH",
"128 735 OFFCURVE",
"148 764 OFFCURVE",
"192 764 CURVE SMOOTH",
"273 764 LINE",
"273 819 LINE",
"186 819 LINE SMOOTH",
"118 819 OFFCURVE",
"68 769 OFFCURVE",
"68 717 CURVE SMOOTH",
"68 694 OFFCURVE",
"75 671 OFFCURVE",
"96 652 CURVE",
"61 652 LINE",
"61 594 LINE"
);
},
{
closed = 1;
nodes = (
"550 673 LINE",
"550 745 OFFCURVE",
"539 819 OFFCURVE",
"391 819 CURVE SMOOTH",
"329 819 LINE",
"329 764 LINE",
"385 764 LINE SMOOTH",
"443 764 OFFCURVE",
"491 762 OFFCURVE",
"491 673 CURVE"
);
}
);
width = 585;
}
);
unicode = 0D95;
},
{
glyphname = sinKa;
lastChange = "2021-09-08 06:22:48 +0000";
layers = (
{
layerId = "906FCD19-247B-4D81-AD63-2BEA4CF1C003";
paths = (
{
closed = 1;
nodes = (
"126 565 OFFCURVE",
"60 534 OFFCURVE",
"32 449 CURVE",
"87 432 LINE",
"105 483 OFFCURVE",
"145 506 OFFCURVE",
"184 506 CURVE SMOOTH",
"227 506 OFFCURVE",
"270 480 OFFCURVE",
"280 436 CURVE",
"323 479 LINE",
"308 529 OFFCURVE",
"249 565 OFFCURVE",
"186 565 CURVE SMOOTH"
);
},
{
closed = 1;
nodes = (
"443 563 OFFCURVE",
"372 538 OFFCURVE",
"316 491 CURVE",
"20 230 LINE",
"20 174 LINE",
"76 216 LINE",
"364 453 LINE SMOOTH",
"405 486 OFFCURVE",
"454 504 OFFCURVE",
"501 504 CURVE SMOOTH",
"593 504 OFFCURVE",
"678 440 OFFCURVE",
"678 313 CURVE SMOOTH",
"678 195 LINE SMOOTH",
"678 75 OFFCURVE",
"618 60 OFFCURVE",
"558 60 CURVE",
"558 -1 LINE",
"697 -1 OFFCURVE",
"738 71 OFFCURVE",
"738 195 CURVE SMOOTH",
"738 315 LINE SMOOTH",
"738 487 OFFCURVE",
"630 563 OFFCURVE",
"511 563 CURVE SMOOTH"
);
},
{
closed = 1;
nodes = (
"221 -5 OFFCURVE",
"254 8 OFFCURVE",
"279 36 CURVE",
"308 9 OFFCURVE",
"346 -5 OFFCURVE",
"383 -5 CURVE SMOOTH",
"447 -5 OFFCURVE",
"508 37 OFFCURVE",
"508 118 CURVE SMOOTH",
"508 236 LINE SMOOTH",
"508 346 OFFCURVE",
"459 394 OFFCURVE",
"306 419 CURVE",
"252 371 LINE",
"410 356 OFFCURVE",
"450 311 OFFCURVE",
"450 232 CURVE SMOOTH",
"450 124 LINE SMOOTH",
"450 80 OFFCURVE",
"411 57 OFFCURVE",
"374 57 CURVE SMOOTH",
"339 57 OFFCURVE",
"305 77 OFFCURVE",
"305 124 CURVE SMOOTH",
"305 194 LINE",
"253 194 LINE",
"253 123 LINE SMOOTH",
"253 77 OFFCURVE",
"222 57 OFFCURVE",
"190 57 CURVE SMOOTH",
"156 57 OFFCURVE",
"121 80 OFFCURVE",
"121 123 CURVE SMOOTH",
"121 173 LINE SMOOTH",
"121 192 OFFCURVE",
"113 231 OFFCURVE",
"53 241 CURVE",
"20 174 LINE",
"24 175 OFFCURVE",
"40 192 OFFCURVE",
"44 192 CURVE SMOOTH",
"56 192 OFFCURVE",
"65 162 OFFCURVE",
"65 141 CURVE SMOOTH",
"65 112 LINE SMOOTH",
"65 40 OFFCURVE",
"126 -5 OFFCURVE",
"188 -5 CURVE SMOOTH"
);
}
);
width = 768;
}
);
unicode = 0D9A;
},
{
glyphname = sinKha;
lastChange = "2021-09-08 06:00:46 +0000";
layers = (
{
layerId = "906FCD19-247B-4D81-AD63-2BEA4CF1C003";
paths = (
{
closed = 1;
nodes = (
"491 -5 OFFCURVE",
"564 45 OFFCURVE",
"564 153 CURVE SMOOTH",
"564 511 LINE SMOOTH",
"564 677 OFFCURVE",
"491 755 OFFCURVE",
"337 755 CURVE SMOOTH",
"322 755 LINE",
"322 695 LINE",
"337 695 LINE SMOOTH",
"443 695 OFFCURVE",
"502 645 OFFCURVE",
"502 511 CURVE SMOOTH",
"502 149 LINE SMOOTH",
"502 91 OFFCURVE",
"458 63 OFFCURVE",
"415 63 CURVE SMOOTH",
"371 63 OFFCURVE",
"326 91 OFFCURVE",
"326 149 CURVE SMOOTH",
"326 198 LINE",
"266 198 LINE",
"266 140 LINE SMOOTH",
"266 47 OFFCURVE",
"342 -5 OFFCURVE",
"418 -5 CURVE SMOOTH"
);
},
{
closed = 1;
nodes = (
"326 -65 LINE",
"326 287 LINE SMOOTH",
"326 393 OFFCURVE",
"254 445 OFFCURVE",
"180 445 CURVE SMOOTH",
"105 445 OFFCURVE",
"30 391 OFFCURVE",
"30 282 CURVE SMOOTH",
"30 179 LINE SMOOTH",
"30 54 OFFCURVE",
"85 0 OFFCURVE",
"212 0 CURVE",
"212 60 LINE",
"132 60 OFFCURVE",
"90 85 OFFCURVE",
"90 182 CURVE SMOOTH",
"90 279 LINE SMOOTH",
"90 347 OFFCURVE",
"134 381 OFFCURVE",
"179 381 CURVE SMOOTH",
"223 381 OFFCURVE",
"266 347 OFFCURVE",
"266 279 CURVE SMOOTH",
"266 -65 LINE"
);
},
{
closed = 1;
nodes = (
"101 641 OFFCURVE",
"182 695 OFFCURVE",
"266 695 CURVE",
"266 755 LINE",
"160 755 OFFCURVE",
"43 680 OFFCURVE",
"43 564 CURVE",
"101 548 LINE"
);
}
);
width = 594;
}
);
unicode = 0D9B;
userData = {
com.fontlab.hintData = {
hhints = (
{
position = 0;
width = 40;
},
{
position = 241;
width = 23;
},
{
position = 715;
width = 40;
}
);
vhints = (
{
position = 30;
width = 41;
},
{
position = 42;
width = 39;
},
{
position = 268;
width = 41;
},
{
position = 514;
width = 42;
}
);
};
};
},
{
glyphname = sinGa;
lastChange = "2021-09-08 06:39:02 +0000";
layers = (
{
layerId = "906FCD19-247B-4D81-AD63-2BEA4CF1C003";
paths = (
{
closed = 1;
nodes = (
"611 -8 OFFCURVE",
"676 80 OFFCURVE",
"676 212 CURVE SMOOTH",
"676 344 LINE SMOOTH",
"676 476 OFFCURVE",
"611 564 OFFCURVE",
"462 564 CURVE",
"462 503 LINE",
"574 503 OFFCURVE",
"616 442 OFFCURVE",
"616 342 CURVE SMOOTH",
"616 212 LINE SMOOTH",
"616 113 OFFCURVE",
"572 53 OFFCURVE",
"488 53 CURVE",
"488 -8 LINE"
);
},
{
closed = 1;
nodes = (
"238 53 LINE",
"134 53 OFFCURVE",
"90 113 OFFCURVE",
"90 212 CURVE SMOOTH",
"90 342 LINE SMOOTH",
"90 442 OFFCURVE",
"132 503 OFFCURVE",
"218 503 CURVE",
"218 564 LINE",
"95 564 OFFCURVE",
"30 476 OFFCURVE",
"30 344 CURVE SMOOTH",
"30 212 LINE SMOOTH",
"30 80 OFFCURVE",
"95 -8 OFFCURVE",
"238 -8 CURVE"
);
},
{
closed = 1;
nodes = (
"378 -8 OFFCURVE",
"443 43 OFFCURVE",
"443 149 CURVE SMOOTH",
"443 174 LINE SMOOTH",
"443 251 OFFCURVE",
"408 318 OFFCURVE",
"319 318 CURVE SMOOTH",
"269 318 LINE",
"269 265 LINE",
"301 265 LINE SMOOTH",
"380 265 OFFCURVE",
"387 201 OFFCURVE",
"387 159 CURVE SMOOTH",
"387 87 OFFCURVE",
"349 53 OFFCURVE",
"238 53 CURVE",
"238 -8 LINE"
);
},
{
closed = 1;
nodes = (
"313 265 LINE",
"313 359 LINE SMOOTH",
"313 430 OFFCURVE",
"337 503 OFFCURVE",
"466 503 CURVE",
"466 564 LINE",
"305 564 OFFCURVE",
"252 476 OFFCURVE",
"252 358 CURVE SMOOTH",
"252 265 LINE"
);
}
);
width = 706;
}
);
unicode = 0D9C;
userData = {
com.fontlab.hintData = {
hhints = (
{
position = -8;
width = 40;
},
{
position = 271;
width = 40;
},
{
position = 524;
width = 40;
}
);
vhints = (
{
position = 30;
width = 40;
},
{
position = 233;
width = 41;
},
{
position = 613;
width = 40;
}
);
};
};
},
{
glyphname = sinGha;
lastChange = "2021-09-08 06:00:46 +0000";
layers = (
{
layerId = "906FCD19-247B-4D81-AD63-2BEA4CF1C003";
paths = (
{
closed = 1;
nodes = (
"292 -2 OFFCURVE",
"333 42 OFFCURVE",
"333 126 CURVE SMOOTH",
"333 145 OFFCURVE",
"339 154 OFFCURVE",
"362 154 CURVE SMOOTH",
"384 154 OFFCURVE",
"391 145 OFFCURVE",
"391 127 CURVE SMOOTH",
"391 42 OFFCURVE",
"433 -2 OFFCURVE",
"513 -2 CURVE SMOOTH",
"585 -2 OFFCURVE",
"649 49 OFFCURVE",
"649 143 CURVE SMOOTH",
"649 193 LINE",
"589 193 LINE",
"589 144 LINE SMOOTH",
"589 88 OFFCURVE",
"552 56 OFFCURVE",
"511 56 CURVE SMOOTH",
"454 56 OFFCURVE",
"434 87 OFFCURVE",
"434 147 CURVE SMOOTH",
"434 182 OFFCURVE",
"421 203 OFFCURVE",
"376 204 CURVE SMOOTH",
"354 204 LINE SMOOTH",
"304 204 OFFCURVE",
"290 183 OFFCURVE",
"290 146 CURVE SMOOTH",
"290 87 OFFCURVE",
"269 56 OFFCURVE",
"213 56 CURVE SMOOTH",
"172 56 OFFCURVE",
"135 87 OFFCURVE",
"135 144 CURVE SMOOTH",
"135 193 LINE",
"75 193 LINE",
"75 143 LINE SMOOTH",
"75 49 OFFCURVE",
"139 -2 OFFCURVE",
"211 -2 CURVE SMOOTH"
);
},
{
closed = 1;
nodes = (
"135 243 LINE",
"135 282 LINE SMOOTH",
"135 338 OFFCURVE",
"168 346 OFFCURVE",
"203 346 CURVE SMOOTH",
"522 346 LINE SMOOTH",
"555 346 OFFCURVE",
"589 338 OFFCURVE",
"589 282 CURVE SMOOTH",
"589 243 LINE",
"649 243 LINE",
"649 286 LINE SMOOTH",
"649 348 OFFCURVE",
"627 402 OFFCURVE",
"525 402 CURVE SMOOTH",
"30 402 LINE",
"30 346 LINE",
"98 346 LINE",
"81 337 OFFCURVE",
"75 311 OFFCURVE",
"75 282 CURVE SMOOTH",
"75 243 LINE"
);
},
{
closed = 1;
nodes = (
"392 379 LINE",
"392 411 LINE SMOOTH",
"392 464 OFFCURVE",
"424 509 OFFCURVE",
"490 509 CURVE SMOOTH",
"546 509 OFFCURVE",
"577 487 OFFCURVE",
"588 455 CURVE",
"643 474 LINE",
"617 541 OFFCURVE",
"556 566 OFFCURVE",
"490 566 CURVE SMOOTH",
"452 566 OFFCURVE",
"395 553 OFFCURVE",
"363 506 CURVE",
"331 553 OFFCURVE",
"273 566 OFFCURVE",
"235 566 CURVE SMOOTH",
"170 566 OFFCURVE",
"108 541 OFFCURVE",
"83 474 CURVE",
"138 455 LINE",
"149 487 OFFCURVE",
"180 509 OFFCURVE",
"235 509 CURVE SMOOTH",
"301 509 OFFCURVE",
"334 464 OFFCURVE",
"334 411 CURVE SMOOTH",
"334 379 LINE"
);
}
);
width = 679;
}
);
unicode = 0D9D;
userData = {
com.fontlab.hintData = {
hhints = (
{
position = -11;
width = 143;
},
{
position = 101;
width = 103;
},
{
position = 251;
width = 151;
},
{
position = 283;
width = 119;
},
{
position = 378;
width = 24;
},
{
position = 451;
width = 124;
}
);
vhints = (
{
position = 67;
width = 139;
},
{
position = 283;
width = 158;
},
{
position = 298;
width = 128;
},
{
position = 518;
width = 139;
}
);
};
};
},
{
glyphname = sinNga;
lastChange = "2021-09-08 06:00:46 +0000";
layers = (
{
layerId = "906FCD19-247B-4D81-AD63-2BEA4CF1C003";
paths = (
{
closed = 1;
nodes = (
"227 -2 OFFCURVE",
"268 17 OFFCURVE",
"292 53 CURVE",
"317 17 OFFCURVE",
"360 -2 OFFCURVE",
"408 -2 CURVE SMOOTH",
"493 -2 OFFCURVE",
"553 53 OFFCURVE",
"553 138 CURVE SMOOTH",
"553 234 LINE",
"491 234 LINE",
"491 144 LINE SMOOTH",
"491 114 OFFCURVE",
"471 58 OFFCURVE",
"404 58 CURVE SMOOTH",
"338 58 OFFCURVE",
"318 114 OFFCURVE",
"318 144 CURVE SMOOTH",
"318 194 LINE",
"264 194 LINE",
"264 144 LINE SMOOTH",
"264 114 OFFCURVE",
"244 58 OFFCURVE",
"178 58 CURVE SMOOTH",
"111 58 OFFCURVE",
"91 114 OFFCURVE",
"91 144 CURVE SMOOTH",
"91 226 LINE SMOOTH",
"91 272 OFFCURVE",
"104 298 OFFCURVE",
"209 298 CURVE SMOOTH",
"243 298 LINE",
"243 350 LINE",
"162 350 LINE SMOOTH",
"62 350 OFFCURVE",
"30 302 OFFCURVE",
"30 221 CURVE SMOOTH",
"30 138 LINE SMOOTH",
"30 53 OFFCURVE",
"92 -2 OFFCURVE",
"178 -2 CURVE SMOOTH"
);
},
{
closed = 1;
nodes = (
"254 298 LINE SMOOTH",
"321 298 OFFCURVE",
"356 348 OFFCURVE",
"356 398 CURVE SMOOTH",
"356 447 OFFCURVE",
"322 496 OFFCURVE",
"254 496 CURVE SMOOTH",
"173 496 LINE SMOOTH",
"93 496 OFFCURVE",
"53 458 OFFCURVE",
"53 397 CURVE",
"105 397 LINE",
"105 408 OFFCURVE",
"108 444 OFFCURVE",
"174 444 CURVE SMOOTH",
"255 444 LINE SMOOTH",
"288 444 OFFCURVE",
"304 421 OFFCURVE",
"304 399 CURVE SMOOTH",
"304 375 OFFCURVE",
"286 350 OFFCURVE",
"253 350 CURVE SMOOTH",
"214 350 LINE",
"214 298 LINE"
);
},
{
closed = 1;
nodes = (
"94 641 OFFCURVE",
"176 695 OFFCURVE",
"260 695 CURVE",
"260 755 LINE",
"154 755 OFFCURVE",
"35 680 OFFCURVE",
"35 563 CURVE",
"94 548 LINE"
);
},
{
closed = 1;
nodes = (
"553 233 LINE",
"553 515 LINE SMOOTH",
"553 683 OFFCURVE",
"478 755 OFFCURVE",
"317 755 CURVE",
"317 695 LINE",
"430 695 OFFCURVE",
"491 651 OFFCURVE",
"491 510 CURVE SMOOTH",
"491 233 LINE"
);
}
);
width = 583;
}
);
unicode = 0D9E;
userData = {
com.fontlab.hintData = {
hhints = (
{
position = -8;
width = 140;
},
{
position = 200;
width = 2;
},
{
position = 251;
width = 100;
},
{
position = 397;
width = 100;
},
{
position = 616;
width = 138;
}
);
vhints = (
{
position = 30;
width = 138;
},
{
position = 245;
width = 100;
},
{
position = 287;
width = 105;
},
{
position = 422;
width = 141;
}
);
};
};
},
{
glyphname = sinNnga;
lastChange = "2021-09-08 06:00:46 +0000";
layers = (
{
layerId = "906FCD19-247B-4D81-AD63-2BEA4CF1C003";
paths = (
{
closed = 1;
nodes = (
"155 9 LINE",
"91 86 OFFCURVE",
"89 128 OFFCURVE",
"89 209 CURVE SMOOTH",
"89 287 LINE SMOOTH",
"89 376 OFFCURVE",
"89 503 OFFCURVE",
"235 503 CURVE SMOOTH",
"369 503 LINE",
"369 564 LINE",
"265 564 LINE SMOOTH",
"61 564 OFFCURVE",
"30 452 OFFCURVE",
"30 287 CURVE SMOOTH",
"30 209 LINE SMOOTH",
"30 118 OFFCURVE",
"36 65 OFFCURVE",
"96 -12 CURVE"
);
},
{
closed = 1;
nodes = (
"369 53 LINE",
"285 53 OFFCURVE",
"241 113 OFFCURVE",
"241 212 CURVE SMOOTH",
"241 342 LINE SMOOTH",
"241 442 OFFCURVE",
"283 503 OFFCURVE",
"369 503 CURVE",
"369 564 LINE",
"246 564 OFFCURVE",
"181 476 OFFCURVE",
"181 344 CURVE SMOOTH",
"181 212 LINE SMOOTH",
"181 80 OFFCURVE",
"246 -8 OFFCURVE",
"369 -8 CURVE"
);
},
{
closed = 1;
nodes = (
"528 -8 OFFCURVE",
"594 43 OFFCURVE",
"594 149 CURVE SMOOTH",
"594 174 LINE SMOOTH",
"594 251 OFFCURVE",
"559 318 OFFCURVE",
"470 318 CURVE SMOOTH",
"420 318 LINE",
"420 265 LINE",
"452 265 LINE SMOOTH",
"531 265 OFFCURVE",
"537 201 OFFCURVE",
"537 159 CURVE SMOOTH",
"537 87 OFFCURVE",
"500 53 OFFCURVE",
"425 53 CURVE",
"425 -8 LINE"
);
},
{
closed = 1;
nodes = (
"464 265 LINE",
"464 359 LINE SMOOTH",
"464 430 OFFCURVE",
"488 503 OFFCURVE",
"582 503 CURVE",
"582 564 LINE",
"456 564 OFFCURVE",
"403 476 OFFCURVE",
"403 358 CURVE SMOOTH",
"403 265 LINE"
);
},
{
closed = 1;
nodes = (
"761 -8 OFFCURVE",
"827 80 OFFCURVE",
"827 212 CURVE SMOOTH",
"827 344 LINE SMOOTH",
"827 476 OFFCURVE",
"761 564 OFFCURVE",
"638 564 CURVE",
"638 503 LINE",
"725 503 OFFCURVE",
"766 442 OFFCURVE",
"766 342 CURVE SMOOTH",
"766 212 LINE SMOOTH",
"766 113 OFFCURVE",
"722 53 OFFCURVE",
"638 53 CURVE",
"638 -8 LINE"
);
}
);
width = 857;
}
);
unicode = 0D9F;
userData = {
com.fontlab.hintData = {
hhints = (
{
position = -8;
width = 40;
},
{
position = 271;
width = 40;
},
{
position = 524;
width = 40;
}
);
vhints = (
{
position = 30;
width = 40;
},
{
position = 170;
width = 40;
},
{
position = 392;
width = 41;
},
{
position = 539;
width = 40;
},
{
position = 773;
width = 40;
}
);
};
};
},
{
glyphname = sinCa;
lastChange = "2021-09-08 06:00:46 +0000";
layers = (
{
layerId = "906FCD19-247B-4D81-AD63-2BEA4CF1C003";
paths = (
{
closed = 1;
nodes = (
"494 -1 OFFCURVE",
"563 83 OFFCURVE",
"563 243 CURVE SMOOTH",
"563 515 LINE SMOOTH",
"563 677 OFFCURVE",
"490 755 OFFCURVE",
"336 755 CURVE",
"336 695 LINE",
"442 695 OFFCURVE",
"502 645 OFFCURVE",
"502 511 CURVE SMOOTH",
"502 243 LINE SMOOTH",
"502 106 OFFCURVE",
"435 59 OFFCURVE",
"336 59 CURVE",
"336 -1 LINE"
);
},
{
closed = 1;
nodes = (
"280 59 LINE",
"177 59 OFFCURVE",
"134 128 OFFCURVE",
"134 192 CURVE SMOOTH",
"134 246 OFFCURVE",
"166 298 OFFCURVE",
"220 298 CURVE SMOOTH",
"338 298 LINE",
"338 353 LINE SMOOTH",
"338 397 OFFCURVE",
"322 428 OFFCURVE",
"297 450 CURVE SMOOTH",
"271 472 OFFCURVE",
"236 484 OFFCURVE",
"201 484 CURVE SMOOTH",
"149 484 OFFCURVE",
"91 460 OFFCURVE",
"75 400 CURVE",
"126 386 LINE",
"138 417 OFFCURVE",
"170 430 OFFCURVE",
"199 430 CURVE SMOOTH",
"240 430 OFFCURVE",
"285 404 OFFCURVE",
"285 355 CURVE SMOOTH",
"285 350 LINE",
"30 350 LINE",
"30 298 LINE",
"108 298 LINE",
"85 270 OFFCURVE",
"72 231 OFFCURVE",
"72 192 CURVE SMOOTH",
"72 96 OFFCURVE",
"140 -1 OFFCURVE",
"280 -1 CURVE"
);
},
{
closed = 1;
nodes = (
"127 634 OFFCURVE",
"205 695 OFFCURVE",
"280 695 CURVE",
"280 755 LINE",
"182 755 OFFCURVE",
"68 674 OFFCURVE",
"68 564 CURVE",
"127 548 LINE"
);
}
);
width = 593;
}
);
unicode = 0DA0;
userData = {
com.fontlab.hintData = {
hhints = (
{
position = 0;
width = 40;
},
{
position = 309;
width = 40;
},
{
position = 715;
width = 40;
}
);
vhints = (
{
position = 69;
width = 39;
},
{
position = 295;
width = 40;
},
{
position = 519;
width = 41;
}
);
};
};
},
{
glyphname = sinCha;
lastChange = "2021-09-08 06:00:46 +0000";
layers = (
{
layerId = "906FCD19-247B-4D81-AD63-2BEA4CF1C003";
paths = (
{
closed = 1;
nodes = (
"343 -7 LINE SMOOTH",
"518 -7 OFFCURVE",
"592 53 OFFCURVE",
"592 195 CURVE SMOOTH",
"592 264 LINE SMOOTH",
"592 294 OFFCURVE",
"577 314 OFFCURVE",
"538 314 CURVE SMOOTH",
"438 314 LINE SMOOTH",
"384 314 OFFCURVE",
"339 358 OFFCURVE",
"339 412 CURVE SMOOTH",
"339 467 OFFCURVE",
"384 511 OFFCURVE",
"438 511 CURVE SMOOTH",
"480 511 OFFCURVE",
"515 486 OFFCURVE",
"529 450 CURVE",
"583 460 LINE",
"564 521 OFFCURVE",
"506 567 OFFCURVE",
"438 567 CURVE SMOOTH",
"353 567 OFFCURVE",
"281 497 OFFCURVE",
"281 412 CURVE SMOOTH",
"281 328 OFFCURVE",
"351 258 OFFCURVE",
"438 258 CURVE SMOOTH",
"532 258 LINE",
"532 195 LINE SMOOTH",
"532 80 OFFCURVE",
"464 52 OFFCURVE",
"344 52 CURVE SMOOTH",
"280 52 LINE SMOOTH",
"161 52 OFFCURVE",
"92 79 OFFCURVE",
"92 195 CURVE",
"32 195 LINE",
"32 52 OFFCURVE",
"106 -7 OFFCURVE",
"283 -7 CURVE SMOOTH"
);
},
{
closed = 1;
nodes = (
"92 244 LINE",
"92 299 OFFCURVE",
"106 346 OFFCURVE",
"199 346 CURVE SMOOTH",
"340 346 LINE",
"330 434 LINE SMOOTH",
"323 543 OFFCURVE",
"235 566 OFFCURVE",
"183 566 CURVE SMOOTH",
"117 566 OFFCURVE",
"56 541 OFFCURVE",
"30 474 CURVE",
"85 455 LINE",
"96 487 OFFCURVE",
"127 509 OFFCURVE",
"182 509 CURVE SMOOTH",
"249 509 OFFCURVE",
"281 463 OFFCURVE",
"281 402 CURVE",
"196 402 LINE SMOOTH",
"99 402 OFFCURVE",
"33 366 OFFCURVE",
"33 244 CURVE"
);
},
{
closed = 1;
nodes = (
"376 492 LINE",
"588 771 LINE",
"543 804 LINE",
"310 500 LINE"
);
}
);
width = 627;
}
);
unicode = 0DA1;
userData = {
com.fontlab.hintData = {
hhints = (
{
position = -12;
width = 135;
},
{
position = 236;
width = 124;
},
{
position = 251;
width = 84;
},
{
position = 283;
width = 119;
},
{
position = 283;
width = 52;
},
{
position = 451;
width = 124;
}
);
vhints = (
{
position = 34;
width = 140;
},
{
position = 250;
width = 89;
},
{
position = 454;
width = 140;
}
);
};
};
},
{
glyphname = sinJa;
lastChange = "2021-09-16 07:11:48 +0000";
layers = (
{
layerId = "906FCD19-247B-4D81-AD63-2BEA4CF1C003";
paths = (
{
closed = 1;
nodes = (
"341 -7 LINE SMOOTH",
"517 -7 OFFCURVE",
"591 53 OFFCURVE",
"591 215 CURVE",
"531 215 LINE",
"531 80 OFFCURVE",
"462 52 OFFCURVE",
"343 52 CURVE SMOOTH",
"279 52 LINE SMOOTH",
"160 52 OFFCURVE",
"91 79 OFFCURVE",
"91 215 CURVE",
"31 215 LINE",
"31 52 OFFCURVE",
"104 -7 OFFCURVE",
"281 -7 CURVE SMOOTH"
);
},
{
closed = 1;
nodes = (
"91 204 LINE",
"91 299 OFFCURVE",
"104 346 OFFCURVE",
"198 346 CURVE SMOOTH",
"422 346 LINE SMOOTH",
"515 346 OFFCURVE",
"531 309 OFFCURVE",
"531 204 CURVE",
"591 204 LINE",
"591 370 OFFCURVE",
"528 402 OFFCURVE",
"420 402 CURVE SMOOTH",
"195 402 LINE SMOOTH",
"98 402 OFFCURVE",
"31 366 OFFCURVE",
"31 204 CURVE"
);
},
{
closed = 1;
nodes = (
"340 379 LINE",
"340 411 LINE SMOOTH",
"340 464 OFFCURVE",
"372 509 OFFCURVE",
"438 509 CURVE SMOOTH",
"494 509 OFFCURVE",
"525 487 OFFCURVE",
"536 455 CURVE",
"591 474 LINE",
"565 541 OFFCURVE",
"504 566 OFFCURVE",
"438 566 CURVE SMOOTH",
"400 566 OFFCURVE",
"343 553 OFFCURVE",
"311 506 CURVE",
"279 553 OFFCURVE",
"221 566 OFFCURVE",
"183 566 CURVE SMOOTH",
"118 566 OFFCURVE",
"56 541 OFFCURVE",
"31 474 CURVE",
"86 455 LINE",
"97 487 OFFCURVE",
"128 509 OFFCURVE",
"183 509 CURVE SMOOTH",
"249 509 OFFCURVE",
"282 464 OFFCURVE",
"282 411 CURVE SMOOTH",
"282 379 LINE"
);
},
{
closed = 1;
nodes = (
"370 492 LINE",
"580 771 LINE",
"536 804 LINE",
"309 503 LINE"
);
}
);
width = 627;
}
);
unicode = 0DA2;
userData = {
com.fontlab.hintData = {
hhints = (
{
position = -12;
width = 135;
},
{
position = 378;
width = 24;
},
{
position = 451;
width = 124;
}
);
vhints = (
{
position = 34;
width = 140;
},
{
position = 250;
width = 128;
},
{
position = 454;
width = 140;
}
);
};
};
},
{
glyphname = sinJha;
lastChange = "2021-09-08 06:00:46 +0000";
layers = (
{
layerId = "906FCD19-247B-4D81-AD63-2BEA4CF1C003";
paths = (
{
closed = 1;
nodes = (
"86 216 LINE",
"364 453 LINE SMOOTH",
"417 497 OFFCURVE",
"482 519 OFFCURVE",
"542 519 CURVE SMOOTH",
"613 519 OFFCURVE",
"677 489 OFFCURVE",
"699 419 CURVE",
"764 419 LINE",
"737 529 OFFCURVE",
"648 577 OFFCURVE",
"548 577 CURVE SMOOTH",
"473 577 OFFCURVE",
"392 550 OFFCURVE",
"323 497 CURVE",
"30 249 LINE",
"30 189 LINE"
);
},
{
closed = 1;
nodes = (
"105 483 OFFCURVE",
"145 506 OFFCURVE",
"184 506 CURVE SMOOTH",
"227 506 OFFCURVE",
"270 480 OFFCURVE",
"280 436 CURVE",
"323 479 LINE",
"308 529 OFFCURVE",
"249 565 OFFCURVE",
"186 565 CURVE SMOOTH",
"126 565 OFFCURVE",
"60 534 OFFCURVE",
"32 449 CURVE",
"87 432 LINE"
);
},
{
closed = 1;
nodes = (
"754 -2 OFFCURVE",
"795 17 OFFCURVE",
"819 53 CURVE",
"844 17 OFFCURVE",
"887 -2 OFFCURVE",
"935 -2 CURVE SMOOTH",
"1020 -2 OFFCURVE",
"1080 53 OFFCURVE",
"1080 138 CURVE SMOOTH",
"1080 234 LINE",
"1018 234 LINE",
"1018 144 LINE SMOOTH",
"1018 114 OFFCURVE",
"998 58 OFFCURVE",
"931 58 CURVE SMOOTH",
"865 58 OFFCURVE",
"845 114 OFFCURVE",
"845 144 CURVE SMOOTH",
"845 194 LINE",
"792 194 LINE",
"792 144 LINE SMOOTH",
"792 114 OFFCURVE",
"772 58 OFFCURVE",
"706 58 CURVE SMOOTH",
"639 58 OFFCURVE",
"619 114 OFFCURVE",
"619 144 CURVE SMOOTH",
"619 293 LINE SMOOTH",
"619 333 OFFCURVE",
"636 419 OFFCURVE",
"744 419 CURVE SMOOTH",
"764 419 LINE",
"732 475 LINE",
"713 471 LINE SMOOTH",
"597 464 OFFCURVE",
"557 375 OFFCURVE",
"557 298 CURVE SMOOTH",
"557 138 LINE SMOOTH",
"557 53 OFFCURVE",
"619 -2 OFFCURVE",
"705 -2 CURVE SMOOTH"
);
},
{
closed = 1;
nodes = (
"664 674 OFFCURVE",
"726 695 OFFCURVE",
"786 695 CURVE",
"786 755 LINE",
"705 755 OFFCURVE",
"617 719 OFFCURVE",
"586 642 CURVE",
"644 620 LINE"
);
},
{
closed = 1;
nodes = (
"1080 233 LINE",
"1080 515 LINE SMOOTH",
"1080 684 OFFCURVE",
"1004 755 OFFCURVE",
"842 755 CURVE",
"842 695 LINE",
"956 695 OFFCURVE",
"1018 651 OFFCURVE",
"1018 511 CURVE SMOOTH",
"1018 233 LINE"
);
},
{
closed = 1;
nodes = (
"337 349 LINE",
"421 334 OFFCURVE",
"450 310 OFFCURVE",
"450 232 CURVE SMOOTH",
"450 124 LINE SMOOTH",
"450 80 OFFCURVE",
"411 57 OFFCURVE",
"374 57 CURVE SMOOTH",
"339 57 OFFCURVE",
"305 77 OFFCURVE",
"305 124 CURVE SMOOTH",
"305 194 LINE",
"253 194 LINE",
"253 123 LINE SMOOTH",
"253 77 OFFCURVE",
"222 57 OFFCURVE",
"190 57 CURVE SMOOTH",
"156 57 OFFCURVE",
"121 80 OFFCURVE",
"121 123 CURVE SMOOTH",
"121 173 LINE SMOOTH",
"121 192 OFFCURVE",
"113 237 OFFCURVE",
"53 248 CURVE",
"30 189 LINE",
"34 190 OFFCURVE",
"40 192 OFFCURVE",
"44 192 CURVE SMOOTH",
"64 192 OFFCURVE",
"65 162 OFFCURVE",
"65 141 CURVE SMOOTH",
"65 112 LINE SMOOTH",
"65 40 OFFCURVE",
"126 -5 OFFCURVE",
"188 -5 CURVE SMOOTH",
"221 -5 OFFCURVE",
"254 8 OFFCURVE",
"279 36 CURVE",
"308 9 OFFCURVE",
"346 -5 OFFCURVE",
"383 -5 CURVE SMOOTH",
"447 -5 OFFCURVE",
"508 37 OFFCURVE",
"508 118 CURVE SMOOTH",
"508 236 LINE SMOOTH",
"508 346 OFFCURVE",
"455 378 OFFCURVE",
"382 393 CURVE",
"337 356 LINE"
);
}
);
width = 1110;
}
);
unicode = 0DA3;
userData = {
com.fontlab.hintData = {
hhints = (
{
position = -8;
width = 140;
},
{
position = 200;
width = 2;
},
{
position = 446;
width = 121;
},
{
position = 616;
width = 138;
}
);
vhints = (
{
position = 240;
width = 100;
},
{
position = 400;
width = 129;
},
{
position = 575;
width = 138;
},
{
position = 790;
width = 100;
},
{
position = 967;
width = 141;
}
);
};
};
},
{
glyphname = sinNya;
lastChange = "2021-09-08 06:00:46 +0000";
layers = (
{
layerId = "906FCD19-247B-4D81-AD63-2BEA4CF1C003";
paths = (
{
closed = 1;
nodes = (
"884 0 LINE SMOOTH",
"948 0 OFFCURVE",
"1048 28 OFFCURVE",
"1086 138 CURVE",
"1031 153 LINE",
"1001 88 OFFCURVE",
"947 59 OFFCURVE",
"884 59 CURVE SMOOTH",
"845 59 LINE SMOOTH",
"738 59 OFFCURVE",
"681 115 OFFCURVE",
"681 199 CURVE SMOOTH",
"681 287 OFFCURVE",
"739 342 OFFCURVE",
"836 342 CURVE SMOOTH",
"1023 342 LINE",
"1023 391 LINE SMOOTH",
"1023 558 OFFCURVE",
"868 592 OFFCURVE",
"762 592 CURVE",
"762 532 LINE",
"835 532 OFFCURVE",
"962 518 OFFCURVE",
"962 401 CURVE",
"844 401 LINE SMOOTH",
"713 401 OFFCURVE",
"618 334 OFFCURVE",
"618 199 CURVE SMOOTH",
"618 59 OFFCURVE",
"725 0 OFFCURVE",
"845 0 CURVE SMOOTH"
);
},
{
closed = 1;
nodes = (
"157 -7 LINE",
"93 70 OFFCURVE",
"89 113 OFFCURVE",
"89 194 CURVE SMOOTH",
"89 316 LINE SMOOTH",
"89 394 OFFCURVE",
"116 446 OFFCURVE",
"174 446 CURVE SMOOTH",
"190 446 OFFCURVE",
"207 442 OFFCURVE",
"233 432 CURVE",
"233 493 LINE",
"211 502 OFFCURVE",
"191 504 OFFCURVE",
"174 504 CURVE SMOOTH",
"99 504 OFFCURVE",
"30 454 OFFCURVE",
"30 316 CURVE SMOOTH",
"30 194 LINE SMOOTH",
"30 103 OFFCURVE",
"37 50 OFFCURVE",
"97 -27 CURVE"
);
},
{
closed = 1;
nodes = (
"367 -5 OFFCURVE",
"400 8 OFFCURVE",
"425 36 CURVE",
"454 9 OFFCURVE",
"492 -5 OFFCURVE",
"529 -5 CURVE SMOOTH",
"593 -5 OFFCURVE",
"654 37 OFFCURVE",
"654 118 CURVE SMOOTH",
"654 236 LINE SMOOTH",
"654 346 OFFCURVE",
"601 378 OFFCURVE",
"528 393 CURVE",
"478 351 LINE",
"566 336 OFFCURVE",
"597 311 OFFCURVE",
"597 232 CURVE SMOOTH",
"597 124 LINE SMOOTH",
"597 80 OFFCURVE",
"558 57 OFFCURVE",
"520 57 CURVE SMOOTH",
"485 57 OFFCURVE",
"451 77 OFFCURVE",
"451 124 CURVE SMOOTH",
"451 194 LINE",
"399 194 LINE",
"399 123 LINE SMOOTH",
"399 77 OFFCURVE",
"368 57 OFFCURVE",
"336 57 CURVE SMOOTH",
"302 57 OFFCURVE",
"267 80 OFFCURVE",
"267 123 CURVE SMOOTH",
"267 173 LINE SMOOTH",
"267 192 OFFCURVE",
"259 237 OFFCURVE",
"200 248 CURVE",
"176 189 LINE",
"180 190 OFFCURVE",
"187 192 OFFCURVE",
"190 192 CURVE SMOOTH",
"210 192 OFFCURVE",
"211 162 OFFCURVE",
"211 141 CURVE SMOOTH",
"211 112 LINE SMOOTH",
"211 40 OFFCURVE",
"272 -5 OFFCURVE",
"334 -5 CURVE SMOOTH"
);
},
{
closed = 1;
nodes = (
"252 483 OFFCURVE",
"291 506 OFFCURVE",
"330 506 CURVE SMOOTH",
"373 506 OFFCURVE",
"416 480 OFFCURVE",
"426 436 CURVE",
"470 479 LINE",
"454 529 OFFCURVE",
"396 565 OFFCURVE",
"332 565 CURVE SMOOTH",
"273 565 OFFCURVE",
"206 534 OFFCURVE",
"179 449 CURVE",
"233 432 LINE"
);
},
{
closed = 1;
nodes = (
"1033 -204 OFFCURVE",
"1105 -159 OFFCURVE",
"1124 -77 CURVE",
"1066 -62 LINE",
"1052 -121 OFFCURVE",
"1003 -147 OFFCURVE",
"954 -147 CURVE SMOOTH",
"895 -147 OFFCURVE",
"838 -109 OFFCURVE",
"838 -45 CURVE",
"779 -45 LINE",
"779 -148 OFFCURVE",
"859 -204 OFFCURVE",
"951 -204 CURVE SMOOTH"
);
},
{
closed = 1;
nodes = (
"232 216 LINE",
"510 453 LINE SMOOTH",
"575 506 OFFCURVE",
"642 532 OFFCURVE",
"707 532 CURVE",
"707 592 LINE",
"633 592 OFFCURVE",
"554 563 OFFCURVE",
"468 496 CURVE",
"176 249 LINE",
"176 189 LINE"
);
}
);
width = 1124;
}
);
unicode = 0DA4;
userData = {
com.fontlab.hintData = {
hhints = (
{
position = -204;
width = 126;
},
{
position = 0;
width = 136;
},
{
position = 263;
width = 135;
},
{
position = 454;
width = 121;
}
);
vhints = (
{
position = 241;
width = 143;
}
);
};
};
},
{
glyphname = sinJnya;
lastChange = "2021-09-08 06:00:46 +0000";
layers = (
{
layerId = "906FCD19-247B-4D81-AD63-2BEA4CF1C003";
paths = (
{
closed = 1;
nodes = (
"817 -2 LINE SMOOTH",
"882 -2 OFFCURVE",
"981 26 OFFCURVE",
"1020 136 CURVE",
"964 151 LINE",
"935 86 OFFCURVE",
"881 58 OFFCURVE",
"817 58 CURVE SMOOTH",
"779 58 LINE SMOOTH",
"670 58 OFFCURVE",
"617 117 OFFCURVE",
"617 196 CURVE SMOOTH",
"617 276 OFFCURVE",
"667 326 OFFCURVE",
"770 326 CURVE SMOOTH",
"956 326 LINE",
"956 375 LINE SMOOTH",
"956 558 OFFCURVE",
"792 572 OFFCURVE",
"696 572 CURVE",
"696 510 LINE",
"761 510 OFFCURVE",
"895 500 OFFCURVE",
"895 385 CURVE",
"777 385 LINE SMOOTH",
"645 385 OFFCURVE",
"556 323 OFFCURVE",
"556 196 CURVE SMOOTH",
"556 66 OFFCURVE",
"655 -2 OFFCURVE",
"779 -2 CURVE SMOOTH"
);
},
{
closed = 1;
nodes = (
"157 5 LINE",
"93 82 OFFCURVE",
"89 125 OFFCURVE",
"89 206 CURVE SMOOTH",
"89 287 LINE SMOOTH",
"89 376 OFFCURVE",
"89 503 OFFCURVE",
"235 503 CURVE SMOOTH",
"369 503 LINE",
"369 564 LINE",
"265 564 LINE SMOOTH",
"61 564 OFFCURVE",
"30 452 OFFCURVE",
"30 287 CURVE SMOOTH",
"30 206 LINE SMOOTH",
"30 115 OFFCURVE",
"37 62 OFFCURVE",
"97 -15 CURVE"
);
},
{
closed = 1;
nodes = (
"369 53 LINE",
"285 53 OFFCURVE",
"241 113 OFFCURVE",
"241 212 CURVE SMOOTH",
"241 342 LINE SMOOTH",
"241 442 OFFCURVE",
"283 503 OFFCURVE",
"369 503 CURVE",
"369 564 LINE",
"246 564 OFFCURVE",
"181 476 OFFCURVE",
"181 344 CURVE SMOOTH",
"181 212 LINE SMOOTH",
"181 80 OFFCURVE",
"246 -8 OFFCURVE",
"369 -8 CURVE"
);
},
{
closed = 1;
nodes = (
"528 -8 OFFCURVE",
"594 43 OFFCURVE",
"594 149 CURVE SMOOTH",
"594 170 LINE SMOOTH",
"594 247 OFFCURVE",
"559 318 OFFCURVE",
"470 318 CURVE SMOOTH",
"420 318 LINE",
"420 265 LINE",
"452 265 LINE SMOOTH",
"531 265 OFFCURVE",
"537 201 OFFCURVE",
"537 159 CURVE SMOOTH",
"537 87 OFFCURVE",
"500 53 OFFCURVE",
"425 53 CURVE",
"425 -8 LINE"
);
},
{
closed = 1;
nodes = (
"966 -206 OFFCURVE",
"1039 -160 OFFCURVE",
"1057 -79 CURVE",
"1000 -64 LINE",
"986 -122 OFFCURVE",
"936 -148 OFFCURVE",
"887 -148 CURVE SMOOTH",
"829 -148 OFFCURVE",
"772 -111 OFFCURVE",
"772 -47 CURVE",
"712 -47 LINE",
"712 -150 OFFCURVE",
"792 -206 OFFCURVE",
"884 -206 CURVE SMOOTH"
);
},
{
closed = 1;
nodes = (
"464 265 LINE",
"464 359 LINE SMOOTH",
"464 460 OFFCURVE",
"537 510 OFFCURVE",
"630 511 CURVE SMOOTH",
"640 511 LINE",
"640 572 LINE",
"630 572 LINE SMOOTH",
"505 570 OFFCURVE",
"403 506 OFFCURVE",
"403 358 CURVE SMOOTH",
"403 265 LINE"
);
}
);
width = 1057;
}
);
unicode = 0DA5;
userData = {
com.fontlab.hintData = {
hhints = (
{
position = -8;
width = 143;
},
{
position = 421;
width = 143;
}
);
vhints = (
{
position = 224;
width = 141;
},
{
position = 448;
width = 139;
},
{
position = 531;
width = 124;
},
{
position = 740;
width = 141;
}
);
};
};
},
{
glyphname = sinNyja;
lastChange = "2021-09-08 06:00:46 +0000";
layers = (
{
components = (
{
alignment = -1;
name = sinJa;
transform = "{1, 0, 0, 1, 151, 0}";
}
);
layerId = "906FCD19-247B-4D81-AD63-2BEA4CF1C003";
paths = (
{
closed = 1;
nodes = (
"156 6 LINE",
"92 83 OFFCURVE",
"88 126 OFFCURVE",
"88 207 CURVE SMOOTH",
"88 341 LINE SMOOTH",
"88 419 OFFCURVE",
"116 470 OFFCURVE",
"175 470 CURVE SMOOTH",
"191 470 OFFCURVE",
"209 466 OFFCURVE",
"232 457 CURVE",
"232 518 LINE",
"219 526 OFFCURVE",
"198 529 OFFCURVE",
"180 529 CURVE SMOOTH",
"78 529 OFFCURVE",
"30 454 OFFCURVE",
"30 346 CURVE SMOOTH",
"30 206 LINE SMOOTH",
"30 115 OFFCURVE",
"36 62 OFFCURVE",
"96 -15 CURVE"
);
}
);
width = 778;
}
);
unicode = 0DA6;
},
{
glyphname = sinTta;
lastChange = "2021-09-13 11:03:13 +0000";
layers = (
{
layerId = "906FCD19-247B-4D81-AD63-2BEA4CF1C003";
paths = (
{
closed = 1;
nodes = (
"463 -1 OFFCURVE",
"522 95 OFFCURVE",
"522 240 CURVE SMOOTH",
"522 515 LINE SMOOTH",
"522 672 OFFCURVE",
"455 755 OFFCURVE",
"266 755 CURVE",
"266 695 LINE",
"397 695 OFFCURVE",
"462 650 OFFCURVE",
"462 513 CURVE SMOOTH",
"462 242 LINE SMOOTH",
"462 106 OFFCURVE",
"397 59 OFFCURVE",
"276 59 CURVE",
"276 -1 LINE"
);
},
{
closed = 1;
nodes = (
"280 59 LINE",
"149 59 OFFCURVE",
"96 126 OFFCURVE",
"96 204 CURVE SMOOTH",
"96 268 LINE SMOOTH",
"96 350 OFFCURVE",
"143 411 OFFCURVE",
"240 411 CURVE",
"240 471 LINE",
"73 471 OFFCURVE",
"36 353 OFFCURVE",
"36 268 CURVE SMOOTH",
"36 202 LINE SMOOTH",
"36 116 OFFCURVE",
"91 -1 OFFCURVE",
"280 -1 CURVE"
);
},
{
closed = 1;
nodes = (
"89 634 OFFCURVE",
"165 695 OFFCURVE",
"270 695 CURVE",
"270 755 LINE",
"143 755 OFFCURVE",
"30 674 OFFCURVE",
"30 564 CURVE",
"89 548 LINE"
);
}
);
width = 572;
}
);
unicode = 0DA7;
userData = {
com.fontlab.hintData = {
hhints = (
{
position = 0;
width = 40;
},
{
position = 432;
width = 40;
},
{
position = 715;
width = 40;
}
);
vhints = (
{
position = 30;
width = 39;
},
{
position = 37;
width = 41;
},
{
position = 480;
width = 41;
}
);
};
};
},
{
glyphname = sinTtha;
lastChange = "2021-09-08 06:00:46 +0000";
layers = (
{
layerId = "906FCD19-247B-4D81-AD63-2BEA4CF1C003";
paths = (
{
closed = 1;
nodes = (
"237 -2 OFFCURVE",
"278 17 OFFCURVE",
"302 53 CURVE",
"327 17 OFFCURVE",
"370 -2 OFFCURVE",
"418 -2 CURVE SMOOTH",
"503 -2 OFFCURVE",
"563 53 OFFCURVE",
"563 138 CURVE SMOOTH",
"563 200 LINE",
"501 200 LINE",
"501 144 LINE SMOOTH",
"501 114 OFFCURVE",
"481 58 OFFCURVE",
"414 58 CURVE SMOOTH",
"348 58 OFFCURVE",
"328 114 OFFCURVE",
"328 144 CURVE SMOOTH",
"328 194 LINE",
"275 194 LINE",
"275 144 LINE SMOOTH",
"275 114 OFFCURVE",
"255 58 OFFCURVE",
"189 58 CURVE SMOOTH",
"122 58 OFFCURVE",
"102 114 OFFCURVE",
"102 146 CURVE SMOOTH",
"102 291 LINE SMOOTH",
"102 329 OFFCURVE",
"119 415 OFFCURVE",
"225 415 CURVE SMOOTH",
"259 415 LINE",
"259 475 LINE",
"225 475 LINE SMOOTH",
"82 475 OFFCURVE",
"40 375 OFFCURVE",
"40 297 CURVE SMOOTH",
"40 138 LINE SMOOTH",
"40 53 OFFCURVE",
"102 -2 OFFCURVE",
"188 -2 CURVE SMOOTH"
);
},
{
closed = 1;
nodes = (
"278 755 LINE",
"278 631 LINE SMOOTH",
"278 537 OFFCURVE",
"331 459 OFFCURVE",
"450 459 CURVE",
"450 513 LINE",
"389 513 OFFCURVE",
"334 546 OFFCURVE",
"334 632 CURVE SMOOTH",
"334 698 LINE",
"337 698 LINE SMOOTH",
"460 698 OFFCURVE",
"501 633 OFFCURVE",
"501 500 CURVE SMOOTH",
"501 199 LINE",
"563 199 LINE",
"563 517 LINE SMOOTH",
"563 700 OFFCURVE",
"465 755 OFFCURVE",
"334 755 CURVE SMOOTH"
);
}
);
width = 593;
}
);
unicode = 0DA8;
userData = {
com.fontlab.hintData = {
hhints = (
{
position = 0;
width = 40;
},
{
position = 235;
width = 7;
},
{
position = 440;
width = 40;
},
{
position = 464;
width = 40;
},
{
position = 715;
width = 40;
}
);
vhints = (
{
position = 43;
width = 42;
},
{
position = 282;
width = 42;
},
{
position = 296;
width = 40;
},
{
position = 521;
width = 42;
}
);
};
};
},
{
glyphname = sinDda;
lastChange = "2021-09-08 06:00:46 +0000";
layers = (
{
layerId = "906FCD19-247B-4D81-AD63-2BEA4CF1C003";
paths = (
{
closed = 1;
nodes = (
"270 -2 OFFCURVE",
"311 17 OFFCURVE",
"335 53 CURVE",
"360 17 OFFCURVE",
"403 -2 OFFCURVE",
"451 -2 CURVE SMOOTH",
"536 -2 OFFCURVE",
"596 53 OFFCURVE",
"596 138 CURVE SMOOTH",
"596 198 LINE",
"534 198 LINE",
"534 144 LINE SMOOTH",
"534 114 OFFCURVE",
"514 58 OFFCURVE",
"447 58 CURVE SMOOTH",
"381 58 OFFCURVE",
"361 114 OFFCURVE",
"361 144 CURVE SMOOTH",
"361 194 LINE",
"307 194 LINE",
"307 144 LINE SMOOTH",
"307 114 OFFCURVE",
"287 58 OFFCURVE",
"221 58 CURVE SMOOTH",
"154 58 OFFCURVE",
"134 114 OFFCURVE",
"134 144 CURVE SMOOTH",
"134 232 LINE SMOOTH",
"134 288 OFFCURVE",
"166 297 OFFCURVE",
"201 297 CURVE SMOOTH",
"361 297 LINE",
"361 353 LINE SMOOTH",
"361 397 OFFCURVE",
"345 428 OFFCURVE",
"320 450 CURVE SMOOTH",
"294 472 OFFCURVE",
"259 484 OFFCURVE",
"223 484 CURVE SMOOTH",
"172 484 OFFCURVE",
"114 459 OFFCURVE",
"98 399 CURVE",
"149 386 LINE",
"161 417 OFFCURVE",
"193 430 OFFCURVE",
"222 430 CURVE SMOOTH",
"265 430 OFFCURVE",
"308 404 OFFCURVE",
"308 350 CURVE",
"30 350 LINE",
"30 297 LINE",
"98 297 LINE",
"79 288 OFFCURVE",
"74 259 OFFCURVE",
"74 232 CURVE SMOOTH",
"74 138 LINE SMOOTH",
"74 53 OFFCURVE",
"135 -2 OFFCURVE",
"221 -2 CURVE SMOOTH"
);
},
{
closed = 1;
nodes = (
"141 641 OFFCURVE",
"223 695 OFFCURVE",
"307 695 CURVE",
"307 755 LINE",
"201 755 OFFCURVE",
"82 680 OFFCURVE",
"82 564 CURVE",
"141 548 LINE"
);
},
{
closed = 1;
nodes = (
"596 198 LINE",
"596 515 LINE SMOOTH",
"596 681 OFFCURVE",
"522 755 OFFCURVE",
"363 755 CURVE",
"363 695 LINE",
"474 695 OFFCURVE",
"534 649 OFFCURVE",
"534 511 CURVE SMOOTH",
"534 198 LINE"
);
}
);
width = 626;
}
);
unicode = 0DA9;
userData = {
com.fontlab.hintData = {
hhints = (
{
position = 0;
width = 40;
},
{
position = 241;
width = 41;
},
{
position = 309;
width = 40;
},
{
position = 715;
width = 40;
}
);
vhints = (
{
position = 74;
width = 42;
},
{
position = 84;
width = 39;
},
{
position = 313;
width = 42;
},
{
position = 552;
width = 42;
}
);
};
};
},
{
glyphname = sinDdha;
lastChange = "2021-09-08 06:00:46 +0000";
layers = (
{
layerId = "906FCD19-247B-4D81-AD63-2BEA4CF1C003";
paths = (
{
closed = 1;
nodes = (
"270 -2 OFFCURVE",
"311 17 OFFCURVE",
"335 53 CURVE",
"360 17 OFFCURVE",
"403 -2 OFFCURVE",
"451 -2 CURVE SMOOTH",
"536 -2 OFFCURVE",
"596 53 OFFCURVE",
"596 138 CURVE SMOOTH",
"596 199 LINE",
"534 199 LINE",
"534 144 LINE SMOOTH",
"534 114 OFFCURVE",
"514 58 OFFCURVE",
"447 58 CURVE SMOOTH",
"381 58 OFFCURVE",
"361 114 OFFCURVE",
"361 144 CURVE SMOOTH",
"361 194 LINE",
"307 194 LINE",
"307 144 LINE SMOOTH",
"307 114 OFFCURVE",
"287 58 OFFCURVE",
"221 58 CURVE SMOOTH",
"154 58 OFFCURVE",
"134 114 OFFCURVE",
"134 144 CURVE SMOOTH",
"134 232 LINE SMOOTH",
"134 288 OFFCURVE",
"166 298 OFFCURVE",
"202 298 CURVE SMOOTH",
"361 298 LINE",
"361 353 LINE SMOOTH",
"361 397 OFFCURVE",
"345 428 OFFCURVE",
"320 450 CURVE SMOOTH",
"294 472 OFFCURVE",
"259 484 OFFCURVE",
"223 484 CURVE SMOOTH",
"172 484 OFFCURVE",
"114 459 OFFCURVE",
"98 399 CURVE",
"149 386 LINE",
"161 417 OFFCURVE",
"193 430 OFFCURVE",
"222 430 CURVE SMOOTH",
"265 430 OFFCURVE",
"308 404 OFFCURVE",
"308 350 CURVE",
"30 350 LINE",
"30 297 LINE",
"100 297 LINE",
"81 287 OFFCURVE",
"74 259 OFFCURVE",
"74 226 CURVE SMOOTH",
"74 138 LINE SMOOTH",
"74 53 OFFCURVE",
"135 -2 OFFCURVE",
"221 -2 CURVE SMOOTH"
);
},
{
closed = 1;
nodes = (
"312 755 LINE",
"312 631 LINE SMOOTH",
"312 537 OFFCURVE",
"363 459 OFFCURVE",
"483 459 CURVE",
"483 513 LINE",
"422 513 OFFCURVE",
"367 546 OFFCURVE",
"367 632 CURVE SMOOTH",
"367 698 LINE",
"370 698 LINE SMOOTH",
"492 698 OFFCURVE",
"534 633 OFFCURVE",
"534 500 CURVE SMOOTH",
"534 257 LINE",
"596 257 LINE",
"596 517 LINE SMOOTH",
"596 700 OFFCURVE",
"498 755 OFFCURVE",
"367 755 CURVE SMOOTH"
);
}
);
width = 626;
}
);
unicode = 0DAA;
userData = {
com.fontlab.hintData = {
hhints = (
{
position = 0;
width = 40;
},
{
position = 235;
width = 7;
},
{
position = 309;
width = 40;
},
{
position = 450;
width = 41;
},
{
position = 464;
width = 40;
},
{
position = 715;
width = 40;
}
);
vhints = (
{
position = 74;
width = 42;
},
{
position = 313;
width = 42;
},
{
position = 327;
width = 40;
},
{
position = 552;
width = 42;
}
);
};
};
},
{
glyphname = sinNna;
lastChange = "2021-09-08 06:00:46 +0000";
layers = (
{
layerId = "906FCD19-247B-4D81-AD63-2BEA4CF1C003";
paths = (
{
closed = 1;
nodes = (
"81 29 OFFCURVE",
"116 40 OFFCURVE",
"151 40 CURVE SMOOTH",
"211 40 OFFCURVE",
"255 0 OFFCURVE",
"324 0 CURVE SMOOTH",
"390 0 OFFCURVE",
"487 50 OFFCURVE",
"487 189 CURVE SMOOTH",
"487 375 LINE SMOOTH",
"487 428 OFFCURVE",
"486 606 OFFCURVE",
"274 606 CURVE SMOOTH",
"160 606 OFFCURVE",
"57 535 OFFCURVE",
"57 398 CURVE SMOOTH",
"57 275 OFFCURVE",
"140 194 OFFCURVE",
"237 194 CURVE SMOOTH",
"306 195 LINE",
"306 254 LINE",
"258 254 LINE SMOOTH",
"129 254 OFFCURVE",
"116 365 OFFCURVE",
"116 398 CURVE SMOOTH",
"116 434 OFFCURVE",
"135 548 OFFCURVE",
"272 548 CURVE SMOOTH",
"367 548 OFFCURVE",
"428 487 OFFCURVE",
"428 375 CURVE SMOOTH",
"428 189 LINE SMOOTH",
"428 88 OFFCURVE",
"359 61 OFFCURVE",
"317 61 CURVE SMOOTH",
"259 61 OFFCURVE",
"219 100 OFFCURVE",
"146 100 CURVE SMOOTH",
"103 100 OFFCURVE",
"42 81 OFFCURVE",
"8 9 CURVE",
"66 -6 LINE"
);
},
{
closed = 1;
nodes = (
"845 -7 OFFCURVE",
"944 50 OFFCURVE",
"944 164 CURVE SMOOTH",
"944 195 LINE",
"884 195 LINE",
"884 165 LINE SMOOTH",
"884 88 OFFCURVE",
"811 52 OFFCURVE",
"741 52 CURVE SMOOTH",
"670 52 OFFCURVE",
"598 89 OFFCURVE",
"598 165 CURVE SMOOTH",
"598 195 LINE",
"538 195 LINE",
"538 161 LINE SMOOTH",
"538 53 OFFCURVE",
"633 -7 OFFCURVE",
"740 -7 CURVE SMOOTH"
);
},
{
closed = 1;
nodes = (
"731 274 LINE",
"731 420 LINE SMOOTH",
"731 473 OFFCURVE",
"767 502 OFFCURVE",
"807 502 CURVE SMOOTH",
"850 502 OFFCURVE",
"884 472 OFFCURVE",
"884 420 CURVE SMOOTH",
"884 244 LINE",
"944 244 LINE",
"944 427 LINE SMOOTH",
"944 519 OFFCURVE",
"880 565 OFFCURVE",
"810 565 CURVE SMOOTH",
"766 565 OFFCURVE",
"726 545 OFFCURVE",
"703 511 CURVE",
"680 545 OFFCURVE",
"641 565 OFFCURVE",
"598 565 CURVE SMOOTH",
"563 565 OFFCURVE",
"533 552 OFFCURVE",
"514 534 CURVE",
"537 477 LINE",
"551 493 OFFCURVE",
"572 502 OFFCURVE",
"594 502 CURVE SMOOTH",
"634 502 OFFCURVE",
"672 475 OFFCURVE",
"672 416 CURVE SMOOTH",
"672 274 LINE"
);
},
{
closed = 1;
nodes = (
"580 771 LINE",
"534 804 LINE",
"346 559 LINE",
"396 529 LINE"
);
}
);
width = 974;
}
);
unicode = 0DAB;
},
{
glyphname = sinNndda;
lastChange = "2021-09-08 06:00:46 +0000";
layers = (
{
layerId = "906FCD19-247B-4D81-AD63-2BEA4CF1C003";
paths = (
{
closed = 1;
nodes = (
"385 -2 OFFCURVE",
"425 17 OFFCURVE",
"450 53 CURVE",
"475 17 OFFCURVE",
"517 -2 OFFCURVE",
"566 -2 CURVE SMOOTH",
"650 -2 OFFCURVE",
"710 53 OFFCURVE",
"710 138 CURVE SMOOTH",
"710 266 LINE",
"648 266 LINE",
"648 144 LINE SMOOTH",
"648 114 OFFCURVE",
"628 58 OFFCURVE",
"561 58 CURVE SMOOTH",
"495 58 OFFCURVE",
"475 114 OFFCURVE",
"475 144 CURVE SMOOTH",
"475 194 LINE",
"422 194 LINE",
"422 144 LINE SMOOTH",
"422 114 OFFCURVE",
"402 58 OFFCURVE",
"336 58 CURVE SMOOTH",
"269 58 OFFCURVE",
"249 114 OFFCURVE",
"249 144 CURVE SMOOTH",
"249 228 LINE SMOOTH",
"249 284 OFFCURVE",
"281 293 OFFCURVE",
"316 293 CURVE SMOOTH",
"475 293 LINE",
"475 349 LINE SMOOTH",
"475 434 OFFCURVE",
"411 484 OFFCURVE",
"334 484 CURVE SMOOTH",
"278 484 OFFCURVE",
"221 458 OFFCURVE",
"204 399 CURVE",
"255 383 LINE",
"270 414 OFFCURVE",
"300 427 OFFCURVE",
"330 427 CURVE SMOOTH",
"376 427 OFFCURVE",
"420 400 OFFCURVE",
"420 346 CURVE",
"149 346 LINE",
"149 293 LINE",
"212 293 LINE",
"194 284 OFFCURVE",
"188 255 OFFCURVE",
"188 228 CURVE SMOOTH",
"188 138 LINE SMOOTH",
"188 53 OFFCURVE",
"250 -2 OFFCURVE",
"336 -2 CURVE SMOOTH"
);
},
{
closed = 1;
nodes = (
"147 9 LINE",
"94 71 OFFCURVE",
"88 111 OFFCURVE",
"88 169 CURVE SMOOTH",
"88 281 LINE SMOOTH",
"88 341 OFFCURVE",
"112 398 OFFCURVE",
"183 398 CURVE SMOOTH",
"201 398 OFFCURVE",
"220 394 OFFCURVE",
"246 386 CURVE",
"260 442 LINE",
"233 452 OFFCURVE",
"206 457 OFFCURVE",
"181 457 CURVE SMOOTH",
"95 457 OFFCURVE",
"30 397 OFFCURVE",
"30 287 CURVE SMOOTH",
"30 172 LINE SMOOTH",
"30 104 OFFCURVE",
"36 54 OFFCURVE",
"87 -12 CURVE"
);
},
{
closed = 1;
nodes = (
"255 641 OFFCURVE",
"337 695 OFFCURVE",
"421 695 CURVE",
"421 755 LINE",
"316 755 OFFCURVE",
"197 680 OFFCURVE",
"197 564 CURVE",
"255 548 LINE"
);
},
{
closed = 1;
nodes = (
"710 233 LINE",
"710 515 LINE SMOOTH",
"710 681 OFFCURVE",
"637 755 OFFCURVE",
"477 755 CURVE",
"477 695 LINE",
"589 695 OFFCURVE",
"648 649 OFFCURVE",
"648 511 CURVE SMOOTH",
"648 233 LINE"
);
}
);
width = 740;
}
);
unicode = 0DAC;
},
{
glyphname = sinTa;
lastChange = "2021-09-08 06:40:47 +0000";
layers = (
{
layerId = "906FCD19-247B-4D81-AD63-2BEA4CF1C003";
paths = (
{
closed = 1;
nodes = (
"691 -1 OFFCURVE",
"732 71 OFFCURVE",
"732 195 CURVE SMOOTH",
"732 315 LINE SMOOTH",
"732 485 OFFCURVE",
"624 562 OFFCURVE",
"506 562 CURVE SMOOTH",
"437 562 OFFCURVE",
"373 536 OFFCURVE",
"316 491 CURVE",
"30 249 LINE",
"30 188 LINE",
"86 218 LINE",
"364 453 LINE SMOOTH",
"403 486 OFFCURVE",
"452 502 OFFCURVE",
"498 502 CURVE SMOOTH",
"588 502 OFFCURVE",
"672 440 OFFCURVE",
"672 313 CURVE SMOOTH",
"672 195 LINE SMOOTH",
"672 75 OFFCURVE",
"612 60 OFFCURVE",
"552 60 CURVE",
"552 -1 LINE"
);
},
{
closed = 1;
nodes = (
"439 -5 OFFCURVE",
"507 79 OFFCURVE",
"507 189 CURVE SMOOTH",
"507 272 OFFCURVE",
"486 406 OFFCURVE",
"307 436 CURVE",
"258 395 LINE",
"433 369 OFFCURVE",
"449 264 OFFCURVE",
"449 190 CURVE SMOOTH",
"449 115 OFFCURVE",
"400 54 OFFCURVE",
"310 54 CURVE SMOOTH",
"120 54 OFFCURVE",
"160 239 OFFCURVE",
"71 239 CURVE SMOOTH",
"66 239 OFFCURVE",
"61 239 OFFCURVE",
"55 237 CURVE",
"30 188 LINE",
"34 189 OFFCURVE",
"39 190 OFFCURVE",
"44 190 CURVE SMOOTH",
"80 190 OFFCURVE",
"88 143 OFFCURVE",
"115 98 CURVE SMOOTH",
"148 42 OFFCURVE",
"201 -5 OFFCURVE",
"312 -5 CURVE SMOOTH"
);
},
{
closed = 1;
nodes = (
"132 483 OFFCURVE",
"172 506 OFFCURVE",
"211 506 CURVE SMOOTH",
"254 506 OFFCURVE",
"297 480 OFFCURVE",
"307 436 CURVE",
"350 480 LINE",
"337 526 OFFCURVE",
"276 565 OFFCURVE",
"212 565 CURVE SMOOTH",
"154 565 OFFCURVE",
"87 534 OFFCURVE",
"59 449 CURVE",
"114 432 LINE"
);
}
);
width = 762;
}
);
unicode = 0DAD;
userData = {
com.fontlab.hintData = {
hhints = (
{
position = -1;
width = 40;
},
{
position = 371;
width = 32;
}
);
vhints = (
{
position = 468;
width = 40;
},
{
position = 690;
width = 40;
}
);
};
};
},
{
glyphname = sinTha;
lastChange = "2021-09-08 06:00:46 +0000";
layers = (
{
layerId = "906FCD19-247B-4D81-AD63-2BEA4CF1C003";
paths = (
{
closed = 1;
nodes = (
"236 60 LINE",
"145 60 OFFCURVE",
"91 122 OFFCURVE",
"90 203 CURVE SMOOTH",
"90 263 LINE SMOOTH",
"90 359 OFFCURVE",
"136 405 OFFCURVE",
"215 405 CURVE SMOOTH",
"235 405 LINE",
"235 465 LINE",
"214 465 LINE SMOOTH",
"68 465 OFFCURVE",
"29 363 OFFCURVE",
"30 267 CURVE SMOOTH",
"30 198 LINE SMOOTH",
"31 113 OFFCURVE",
"88 -1 OFFCURVE",
"236 -1 CURVE"
);
},
{
closed = 1;
nodes = (
"450 -1 OFFCURVE",
"517 83 OFFCURVE",
"517 243 CURVE",
"456 243 LINE",
"456 107 OFFCURVE",
"390 60 OFFCURVE",
"292 60 CURVE",
"292 -1 LINE"
);
},
{
closed = 1;
nodes = (
"233 755 LINE",
"233 631 LINE SMOOTH",
"233 537 OFFCURVE",
"285 459 OFFCURVE",
"405 459 CURVE",
"405 513 LINE",
"344 513 OFFCURVE",
"289 546 OFFCURVE",
"289 632 CURVE SMOOTH",
"289 698 LINE",
"292 698 LINE SMOOTH",
"414 698 OFFCURVE",
"456 633 OFFCURVE",
"456 500 CURVE SMOOTH",
"456 243 LINE",
"517 243 LINE",
"517 517 LINE SMOOTH",
"517 700 OFFCURVE",
"420 755 OFFCURVE",
"289 755 CURVE SMOOTH"
);
}
);
width = 547;
}
);
unicode = 0DAE;
userData = {
com.fontlab.hintData = {
hhints = (
{
position = 0;
width = 40;
},
{
position = 235;
width = 6;
},
{
position = 430;
width = 40;
},
{
position = 464;
width = 40;
},
{
position = 715;
width = 40;
}
);
vhints = (
{
position = 34;
width = 41;
},
{
position = 251;
width = 40;
},
{
position = 476;
width = 42;
}
);
};
};
},
{
glyphname = sinDa;
lastChange = "2021-09-08 06:38:06 +0000";
layers = (
{
layerId = "906FCD19-247B-4D81-AD63-2BEA4CF1C003";
paths = (
{
closed = 1;
nodes = (
"296 0 LINE SMOOTH",
"360 0 OFFCURVE",
"459 28 OFFCURVE",
"498 138 CURVE",
"443 153 LINE",
"413 88 OFFCURVE",
"359 59 OFFCURVE",
"296 59 CURVE SMOOTH",
"257 59 LINE SMOOTH",
"150 59 OFFCURVE",
"92 116 OFFCURVE",
"92 199 CURVE SMOOTH",
"92 287 OFFCURVE",
"150 342 OFFCURVE",
"248 342 CURVE SMOOTH",
"434 342 LINE",
"434 391 LINE SMOOTH",
"434 519 OFFCURVE",
"339 579 OFFCURVE",
"241 579 CURVE SMOOTH",
"162 579 OFFCURVE",
"87 537 OFFCURVE",
"66 457 CURVE",
"121 438 LINE",
"136 493 OFFCURVE",
"188 522 OFFCURVE",
"243 522 CURVE SMOOTH",
"312 522 OFFCURVE",
"376 482 OFFCURVE",
"376 402 CURVE",
"256 402 LINE SMOOTH",
"125 402 OFFCURVE",
"30 335 OFFCURVE",
"30 199 CURVE SMOOTH",
"30 60 OFFCURVE",
"137 0 OFFCURVE",
"257 0 CURVE SMOOTH"
);
},
{
closed = 1;
nodes = (
"445 -204 OFFCURVE",
"517 -158 OFFCURVE",
"536 -77 CURVE",
"478 -62 LINE",
"464 -121 OFFCURVE",
"415 -147 OFFCURVE",
"366 -147 CURVE SMOOTH",
"307 -147 OFFCURVE",
"210 -109 OFFCURVE",
"250 15 CURVE",
"191 15 LINE",
"151 -148 OFFCURVE",
"271 -204 OFFCURVE",
"363 -204 CURVE SMOOTH"
);
}
);
width = 536;
}
);
unicode = 0DAF;
userData = {
com.fontlab.hintData = {
hhints = (
{
position = -204;
width = 126;
},
{
position = 0;
width = 136;
},
{
position = 263;
width = 135;
},
{
position = 454;
width = 121;
}
);
vhints = (
{
position = 32;
width = 143;
}
);
};
};
},
{
glyphname = sinDha;
lastChange = "2021-09-08 06:00:46 +0000";
layers = (
{
layerId = "906FCD19-247B-4D81-AD63-2BEA4CF1C003";
paths = (
{
closed = 1;
nodes = (
"227 -2 OFFCURVE",
"268 17 OFFCURVE",
"292 53 CURVE",
"317 17 OFFCURVE",
"360 -2 OFFCURVE",
"408 -2 CURVE SMOOTH",
"493 -2 OFFCURVE",
"553 53 OFFCURVE",
"553 138 CURVE SMOOTH",
"553 200 LINE",
"491 200 LINE",
"491 144 LINE SMOOTH",
"491 114 OFFCURVE",
"471 58 OFFCURVE",
"404 58 CURVE SMOOTH",
"338 58 OFFCURVE",
"318 114 OFFCURVE",
"318 144 CURVE SMOOTH",
"318 194 LINE",
"264 194 LINE",
"264 144 LINE SMOOTH",
"264 114 OFFCURVE",
"244 58 OFFCURVE",
"178 58 CURVE SMOOTH",
"111 58 OFFCURVE",
"91 114 OFFCURVE",
"91 144 CURVE SMOOTH",
"91 293 LINE SMOOTH",
"91 333 OFFCURVE",
"108 419 OFFCURVE",
"217 419 CURVE SMOOTH",
"253 419 LINE",
"253 479 LINE",
"217 479 LINE SMOOTH",
"71 479 OFFCURVE",
"30 379 OFFCURVE",
"30 298 CURVE SMOOTH",
"30 138 LINE SMOOTH",
"30 53 OFFCURVE",
"92 -2 OFFCURVE",
"178 -2 CURVE SMOOTH"
);
},
{
closed = 1;
nodes = (
"98 641 OFFCURVE",
"180 695 OFFCURVE",
"264 695 CURVE",
"264 755 LINE",
"158 755 OFFCURVE",
"39 680 OFFCURVE",
"39 564 CURVE",
"98 548 LINE"
);
},
{
closed = 1;
nodes = (
"553 200 LINE",
"553 515 LINE SMOOTH",
"553 681 OFFCURVE",
"479 755 OFFCURVE",
"320 755 CURVE",
"320 695 LINE",
"431 695 OFFCURVE",
"491 649 OFFCURVE",
"491 511 CURVE SMOOTH",
"491 200 LINE"
);
}
);
width = 583;
}
);
unicode = 0DB0;
userData = {
com.fontlab.hintData = {
hhints = (
{
position = 0;
width = 40;
},
{
position = 241;
width = 1;
},
{
position = 440;
width = 40;
},
{
position = 715;
width = 40;
}
);
vhints = (
{
position = 25;
width = 42;
},
{
position = 264;
width = 42;
},
{
position = 503;
width = 42;
}
);
};
};
},
{
glyphname = sinNa;
lastChange = "2021-09-08 06:40:02 +0000";
layers = (
{
layerId = "906FCD19-247B-4D81-AD63-2BEA4CF1C003";
paths = (
{
closed = 1;
nodes = (
"663 -2 OFFCURVE",
"704 69 OFFCURVE",
"704 193 CURVE SMOOTH",
"704 336 LINE SMOOTH",
"704 494 OFFCURVE",
"587 566 OFFCURVE",
"473 566 CURVE SMOOTH",
"401 566 OFFCURVE",
"331 537 OFFCURVE",
"292 484 CURVE SMOOTH",
"200 360 LINE SMOOTH",
"175 326 OFFCURVE",
"122 266 OFFCURVE",
"81 266 CURVE",
"65 267 LINE",
"65 204 LINE",
"84 203 LINE",
"149 203 OFFCURVE",
"206 270 OFFCURVE",
"256 335 CURVE SMOOTH",
"334 438 LINE SMOOTH",
"368 483 OFFCURVE",
"418 505 OFFCURVE",
"469 505 CURVE SMOOTH",
"556 505 OFFCURVE",
"644 441 OFFCURVE",
"644 332 CURVE SMOOTH",
"644 193 LINE SMOOTH",
"644 73 OFFCURVE",
"584 58 OFFCURVE",
"524 58 CURVE",
"524 -2 LINE"
);
},
{
closed = 1;
nodes = (
"394 -6 OFFCURVE",
"494 65 OFFCURVE",
"494 206 CURVE SMOOTH",
"494 282 OFFCURVE",
"459 386 OFFCURVE",
"310 417 CURVE",
"268 369 LINE",
"407 339 OFFCURVE",
"431 260 OFFCURVE",
"431 207 CURVE SMOOTH",
"431 101 OFFCURVE",
"358 55 OFFCURVE",
"273 55 CURVE SMOOTH",
"170 55 OFFCURVE",
"86 137 OFFCURVE",
"86 270 CURVE SMOOTH",
"86 344 LINE",
"30 344 LINE",
"30 256 LINE SMOOTH",
"30 80 OFFCURVE",
"150 -6 OFFCURVE",
"274 -6 CURVE SMOOTH"
);
},
{
closed = 1;
nodes = (
"106 483 OFFCURVE",
"145 506 OFFCURVE",
"184 506 CURVE SMOOTH",
"228 506 OFFCURVE",
"270 480 OFFCURVE",
"281 436 CURVE",
"322 480 LINE",
"310 526 OFFCURVE",
"250 565 OFFCURVE",
"185 565 CURVE SMOOTH",
"127 565 OFFCURVE",
"60 534 OFFCURVE",
"33 449 CURVE",
"87 432 LINE"
);
}
);
width = 734;
}
);
unicode = 0DB1;
userData = {
com.fontlab.hintData = {
hhints = (
{
position = -8;
width = 135;
},
{
position = 436;
width = 138;
},
{
position = 446;
width = 121;
}
);
vhints = (
{
position = 44;
width = 118;
},
{
position = 139;
width = 23;
},
{
position = 602;
width = 140;
}
);
};
};
},
{
glyphname = sinNda;
lastChange = "2021-09-08 06:35:09 +0000";
layers = (
{
layerId = "906FCD19-247B-4D81-AD63-2BEA4CF1C003";
paths = (
{
closed = 1;
nodes = (
"446 0 LINE SMOOTH",
"510 0 OFFCURVE",
"610 28 OFFCURVE",
"648 138 CURVE",
"593 153 LINE",
"563 88 OFFCURVE",
"509 59 OFFCURVE",
"446 59 CURVE SMOOTH",
"407 59 LINE SMOOTH",
"300 59 OFFCURVE",
"243 116 OFFCURVE",
"243 199 CURVE SMOOTH",
"243 287 OFFCURVE",
"301 342 OFFCURVE",
"398 342 CURVE SMOOTH",
"585 342 LINE",
"585 388 LINE SMOOTH",
"585 519 OFFCURVE",
"492 578 OFFCURVE",
"391 578 CURVE SMOOTH",
"314 578 OFFCURVE",
"239 539 OFFCURVE",
"215 458 CURVE",
"270 438 LINE",
"286 495 OFFCURVE",
"341 521 OFFCURVE",
"393 521 CURVE SMOOTH",
"458 521 OFFCURVE",
"527 484 OFFCURVE",
"527 401 CURVE",
"406 401 LINE SMOOTH",
"275 401 OFFCURVE",
"180 335 OFFCURVE",
"180 199 CURVE SMOOTH",
"180 60 OFFCURVE",
"287 0 OFFCURVE",
"407 0 CURVE SMOOTH"
);
},
{
closed = 1;
nodes = (
"595 -204 OFFCURVE",
"667 -158 OFFCURVE",
"686 -77 CURVE",
"628 -62 LINE",
"614 -121 OFFCURVE",
"565 -147 OFFCURVE",
"516 -147 CURVE SMOOTH",
"457 -147 OFFCURVE",
"360 -109 OFFCURVE",
"400 15 CURVE",
"341 15 LINE",
"301 -148 OFFCURVE",
"421 -204 OFFCURVE",
"513 -204 CURVE SMOOTH"
);
},
{
closed = 1;
nodes = (
"155 9 LINE",
"91 86 OFFCURVE",
"89 128 OFFCURVE",
"89 209 CURVE SMOOTH",
"89 296 LINE SMOOTH",
"89 378 OFFCURVE",
"132 451 OFFCURVE",
"210 451 CURVE SMOOTH",
"227 451 OFFCURVE",
"245 447 OFFCURVE",
"263 441 CURVE",
"263 501 LINE",
"244 507 OFFCURVE",
"225 511 OFFCURVE",
"206 511 CURVE SMOOTH",
"116 511 OFFCURVE",
"30 442 OFFCURVE",
"30 296 CURVE SMOOTH",
"30 209 LINE SMOOTH",
"30 118 OFFCURVE",
"36 65 OFFCURVE",
"96 -12 CURVE"
);
}
);
width = 686;
}
);
unicode = 0DB3;
userData = {
com.fontlab.hintData = {
hhints = (
{
position = -204;
width = 126;
},
{
position = 0;
width = 136;
},
{
position = 263;
width = 135;
},
{
position = 454;
width = 121;
}
);
vhints = (
{
position = 30;
width = 136;
},
{
position = 222;
width = 143;
}
);
};
};
},
{
glyphname = sinPa;
lastChange = "2021-09-11 06:33:56 +0000";
layers = (
{
layerId = "906FCD19-247B-4D81-AD63-2BEA4CF1C003";
paths = (
{
closed = 1;
nodes = (
"341 -7 LINE SMOOTH",
"517 -7 OFFCURVE",
"591 53 OFFCURVE",
"591 215 CURVE",
"531 215 LINE",
"531 80 OFFCURVE",
"462 52 OFFCURVE",
"343 52 CURVE SMOOTH",
"279 52 LINE SMOOTH",
"160 52 OFFCURVE",
"91 79 OFFCURVE",
"91 215 CURVE",
"31 215 LINE",
"31 52 OFFCURVE",
"104 -7 OFFCURVE",
"281 -7 CURVE SMOOTH"
);
},
{
closed = 1;
nodes = (
"91 214 LINE",
"91 299 OFFCURVE",
"104 346 OFFCURVE",
"198 346 CURVE SMOOTH",
"422 346 LINE SMOOTH",
"515 346 OFFCURVE",
"531 309 OFFCURVE",
"531 214 CURVE",
"591 214 LINE",
"591 370 OFFCURVE",
"528 402 OFFCURVE",
"420 402 CURVE SMOOTH",
"195 402 LINE SMOOTH",
"98 402 OFFCURVE",
"31 366 OFFCURVE",
"31 214 CURVE"
);
},
{
closed = 1;
nodes = (
"340 379 LINE",
"340 411 LINE SMOOTH",
"340 464 OFFCURVE",
"372 509 OFFCURVE",
"438 509 CURVE SMOOTH",
"494 509 OFFCURVE",
"525 487 OFFCURVE",
"536 455 CURVE",
"591 474 LINE",
"565 541 OFFCURVE",
"504 566 OFFCURVE",
"438 566 CURVE SMOOTH",
"400 566 OFFCURVE",
"343 553 OFFCURVE",
"311 506 CURVE",
"279 553 OFFCURVE",
"221 566 OFFCURVE",
"183 566 CURVE SMOOTH",
"118 566 OFFCURVE",
"56 541 OFFCURVE",
"31 474 CURVE",
"86 455 LINE",
"97 487 OFFCURVE",
"128 509 OFFCURVE",
"183 509 CURVE SMOOTH",
"249 509 OFFCURVE",
"282 464 OFFCURVE",
"282 411 CURVE SMOOTH",
"282 379 LINE"
);
}
);
width = 622;
}
);
unicode = 0DB4;
userData = {
com.fontlab.hintData = {
hhints = (
{
position = -12;
width = 135;
},
{
position = 283;
width = 119;
},
{
position = 378;
width = 24;
},
{
position = 451;
width = 124;
}
);
vhints = (
{
position = 34;
width = 140;
},
{
position = 250;
width = 128;
},
{
position = 454;
width = 140;
}
);
};
};
},
{
glyphname = sinPha;
lastChange = "2021-09-08 06:00:46 +0000";
layers = (
{
layerId = "906FCD19-247B-4D81-AD63-2BEA4CF1C003";
paths = (
{
closed = 1;
nodes = (
"119 484 OFFCURVE",
"65 458 OFFCURVE",
"48 399 CURVE",
"99 386 LINE",
"111 416 OFFCURVE",
"143 430 OFFCURVE",
"173 430 CURVE SMOOTH",
"216 430 OFFCURVE",
"259 404 OFFCURVE",
"259 353 CURVE",
"173 353 OFFCURVE",
"113 345 OFFCURVE",
"72 303 CURVE SMOOTH",
"40 273 OFFCURVE",
"31 233 OFFCURVE",
"31 183 CURVE SMOOTH",
"31 86 OFFCURVE",
"118 -1 OFFCURVE",
"239 -1 CURVE",
"239 60 LINE",
"143 60 OFFCURVE",
"90 123 OFFCURVE",
"90 185 CURVE SMOOTH",
"90 279 OFFCURVE",
"144 298 OFFCURVE",
"256 298 CURVE SMOOTH",
"312 298 LINE",
"312 357 LINE SMOOTH",
"312 440 OFFCURVE",
"244 484 OFFCURVE",
"174 484 CURVE SMOOTH"
);
},
{
closed = 1;
nodes = (
"453 -1 OFFCURVE",
"522 83 OFFCURVE",
"522 243 CURVE",
"460 243 LINE",
"460 107 OFFCURVE",
"394 60 OFFCURVE",
"295 60 CURVE",
"295 -1 LINE"
);
},
{
closed = 1;
nodes = (
"237 755 LINE",
"237 631 LINE SMOOTH",
"237 537 OFFCURVE",
"290 459 OFFCURVE",
"409 459 CURVE",
"409 513 LINE",
"348 513 OFFCURVE",
"293 546 OFFCURVE",
"293 632 CURVE SMOOTH",
"293 698 LINE",
"296 698 LINE SMOOTH",
"419 698 OFFCURVE",
"460 633 OFFCURVE",
"460 500 CURVE SMOOTH",
"460 243 LINE",
"522 243 LINE",
"522 517 LINE SMOOTH",
"522 700 OFFCURVE",
"424 755 OFFCURVE",
"293 755 CURVE SMOOTH"
);
}
);
width = 552;
}
);
unicode = 0DB5;
userData = {
com.fontlab.hintData = {
hhints = (
{
position = 0;
width = 40;
},
{
position = 235;
width = 6;
},
{
position = 309;
width = 40;
},
{
position = 464;
width = 40;
},
{
position = 715;
width = 40;
}
);
vhints = (
{
position = 30;
width = 40;
},
{
position = 251;
width = 40;
},
{
position = 271;
width = 40;
},
{
position = 476;
width = 42;
}
);
};
};
},
{
glyphname = sinBa;
lastChange = "2021-09-11 06:35:45 +0000";
layers = (
{
layerId = "906FCD19-247B-4D81-AD63-2BEA4CF1C003";
paths = (
{
closed = 1;
nodes = (
"515 -5 OFFCURVE",
"582 57 OFFCURVE",
"582 150 CURVE SMOOTH",
"582 254 LINE",
"520 254 LINE",
"520 148 LINE SMOOTH",
"520 96 OFFCURVE",
"484 60 OFFCURVE",
"433 60 CURVE SMOOTH",
"381 60 OFFCURVE",
"342 96 OFFCURVE",
"342 148 CURVE SMOOTH",
"342 310 LINE SMOOTH",
"342 410 OFFCURVE",
"277 474 OFFCURVE",
"191 474 CURVE SMOOTH",
"106 474 OFFCURVE",
"43 410 OFFCURVE",
"43 313 CURVE SMOOTH",
"43 179 LINE SMOOTH",
"43 53 OFFCURVE",
"108 0 OFFCURVE",
"234 0 CURVE",
"224 60 LINE",
"137 60 OFFCURVE",
"102 93 OFFCURVE",
"102 180 CURVE SMOOTH",
"102 309 LINE SMOOTH",
"102 371 OFFCURVE",
"138 410 OFFCURVE",
"190 410 CURVE SMOOTH",
"243 410 OFFCURVE",
"282 369 OFFCURVE",
"282 309 CURVE SMOOTH",
"282 140 LINE SMOOTH",
"282 54 OFFCURVE",
"347 -5 OFFCURVE",
"430 -5 CURVE SMOOTH"
);
},
{
closed = 1;
nodes = (
"113 635 OFFCURVE",
"178 695 OFFCURVE",
"269 695 CURVE",
"269 755 LINE",
"150 755 OFFCURVE",
"54 669 OFFCURVE",
"54 564 CURVE",
"113 548 LINE"
);
},
{
closed = 1;
nodes = (
"582 254 LINE",
"582 495 LINE SMOOTH",
"582 675 OFFCURVE",
"496 755 OFFCURVE",
"347 755 CURVE SMOOTH",
"266 755 LINE",
"266 695 LINE",
"347 695 LINE SMOOTH",
"461 695 OFFCURVE",
"520 620 OFFCURVE",
"520 499 CURVE SMOOTH",
"520 254 LINE"
);
}
);
width = 632;
}
);
leftMetricsKey = t;
unicode = 0DB6;
},
{
glyphname = sinBha;
lastChange = "2021-09-08 06:00:46 +0000";
layers = (
{
layerId = "906FCD19-247B-4D81-AD63-2BEA4CF1C003";
paths = (
{
closed = 1;
nodes = (
"258 53 LINE",
"174 53 OFFCURVE",
"130 113 OFFCURVE",
"130 197 CURVE SMOOTH",
"130 249 LINE SMOOTH",
"130 339 OFFCURVE",
"171 375 OFFCURVE",
"258 375 CURVE SMOOTH",
"329 375 LINE",
"337 438 LINE",
"337 522 OFFCURVE",
"267 564 OFFCURVE",
"199 564 CURVE SMOOTH",
"144 564 OFFCURVE",
"89 536 OFFCURVE",
"74 480 CURVE",
"125 467 LINE",
"137 496 OFFCURVE",
"167 511 OFFCURVE",
"198 511 CURVE SMOOTH",
"243 511 OFFCURVE",
"284 484 OFFCURVE",
"284 430 CURVE",
"30 430 LINE",
"30 375 LINE",
"114 375 LINE",
"85 348 OFFCURVE",
"70 307 OFFCURVE",
"70 251 CURVE SMOOTH",
"70 196 LINE SMOOTH",
"70 80 OFFCURVE",
"135 -8 OFFCURVE",
"258 -8 CURVE"
);
},
{
closed = 1;
nodes = (
"417 -8 OFFCURVE",
"483 43 OFFCURVE",
"483 149 CURVE SMOOTH",
"483 174 LINE SMOOTH",
"483 247 OFFCURVE",
"451 317 OFFCURVE",
"352 318 CURVE",
"352 359 LINE SMOOTH",
"352 430 OFFCURVE",
"377 503 OFFCURVE",
"471 503 CURVE",
"471 564 LINE",
"345 564 OFFCURVE",
"292 476 OFFCURVE",
"292 358 CURVE SMOOTH",
"292 265 LINE",
"342 265 LINE SMOOTH",
"419 265 OFFCURVE",
"426 201 OFFCURVE",
"426 159 CURVE SMOOTH",
"426 87 OFFCURVE",
"388 53 OFFCURVE",
"314 53 CURVE",
"314 -8 LINE"
);
},
{
closed = 1;
nodes = (
"650 -8 OFFCURVE",
"715 80 OFFCURVE",
"715 212 CURVE SMOOTH",
"715 343 LINE SMOOTH",
"715 476 OFFCURVE",
"650 564 OFFCURVE",
"527 564 CURVE",
"527 503 LINE",
"613 503 OFFCURVE",
"655 443 OFFCURVE",
"655 343 CURVE SMOOTH",
"655 212 LINE SMOOTH",
"655 113 OFFCURVE",
"611 53 OFFCURVE",
"527 53 CURVE",
"527 -8 LINE"
);
}
);
width = 745;
}
);
unicode = 0DB7;
userData = {
com.fontlab.hintData = {
hhints = (
{
position = -8;
width = 40;
},
{
position = 271;
width = 40;
},
{
position = 524;
width = 40;
}
);
vhints = (
{
position = 70;
width = 40;
},
{
position = 292;
width = 41;
},
{
position = 439;
width = 40;
},
{
position = 673;
width = 40;
}
);
};
};
},
{
glyphname = sinMa;
lastChange = "2021-09-08 07:09:43 +0000";
layers = (
{
layerId = "906FCD19-247B-4D81-AD63-2BEA4CF1C003";
paths = (
{
closed = 1;
nodes = (
"314 312 LINE SMOOTH",
"314 289 OFFCURVE",
"296 277 OFFCURVE",
"277 277 CURVE SMOOTH",
"260 277 OFFCURVE",
"242 289 OFFCURVE",
"242 312 CURVE SMOOTH",
"242 397 LINE SMOOTH",
"242 462 OFFCURVE",
"196 497 OFFCURVE",
"147 497 CURVE SMOOTH",
"91 497 OFFCURVE",
"30 450 OFFCURVE",
"30 349 CURVE SMOOTH",
"30 252 LINE SMOOTH",
"30 143 OFFCURVE",
"67 -1 OFFCURVE",
"287 -1 CURVE",
"287 59 LINE",
"203 59 OFFCURVE",
"88 74 OFFCURVE",
"88 252 CURVE SMOOTH",
"88 354 LINE SMOOTH",
"88 415 OFFCURVE",
"117 440 OFFCURVE",
"145 440 CURVE SMOOTH",
"170 440 OFFCURVE",
"193 420 OFFCURVE",
"193 390 CURVE SMOOTH",
"193 302 LINE SMOOTH",
"193 248 OFFCURVE",
"236 220 OFFCURVE",
"278 220 CURVE SMOOTH",
"321 220 OFFCURVE",
"371 248 OFFCURVE",
"371 306 CURVE SMOOTH",
"371 484 LINE",
"314 484 LINE"
);
},
{
closed = 1;
nodes = (
"89 548 LINE",
"89 635 OFFCURVE",
"170 695 OFFCURVE",
"287 695 CURVE",
"287 755 LINE",
"147 755 OFFCURVE",
"31 675 OFFCURVE",
"31 563 CURVE"
);
},
{
closed = 1;
nodes = (
"283 695 LINE",
"397 695 OFFCURVE",
"485 640 OFFCURVE",
"485 501 CURVE SMOOTH",
"485 243 LINE SMOOTH",
"485 105 OFFCURVE",
"407 59 OFFCURVE",
"283 59 CURVE",
"283 -1 LINE",
"472 -1 OFFCURVE",
"546 93 OFFCURVE",
"546 243 CURVE SMOOTH",
"546 501 LINE SMOOTH",
"546 651 OFFCURVE",
"462 755 OFFCURVE",
"283 755 CURVE"
);
}
);
width = 576;
}
);
unicode = 0DB8;
},
{
glyphname = sinMba;
lastChange = "2021-09-16 07:11:13 +0000";
layers = (
{
layerId = "906FCD19-247B-4D81-AD63-2BEA4CF1C003";
paths = (
{
closed = 1;
nodes = (
"236 -11 OFFCURVE",
"265 13 OFFCURVE",
"268 49 CURVE SMOOTH",
"271 67 OFFCURVE",
"266 104 OFFCURVE",
"266 124 CURVE SMOOTH",
"266 154 OFFCURVE",
"283 157 OFFCURVE",
"293 157 CURVE SMOOTH",
"305 157 OFFCURVE",
"323 155 OFFCURVE",
"323 124 CURVE SMOOTH",
"323 104 OFFCURVE",
"318 67 OFFCURVE",
"321 49 CURVE SMOOTH",
"324 13 OFFCURVE",
"351 -11 OFFCURVE",
"401 -11 CURVE SMOOTH",
"497 -11 OFFCURVE",
"558 63 OFFCURVE",
"558 165 CURVE SMOOTH",
"558 514 LINE SMOOTH",
"558 674 OFFCURVE",
"474 755 OFFCURVE",
"276 755 CURVE",
"276 695 LINE",
"416 695 OFFCURVE",
"498 651 OFFCURVE",
"498 511 CURVE SMOOTH",
"498 167 LINE SMOOTH",
"498 111 OFFCURVE",
"461 50 OFFCURVE",
"400 50 CURVE SMOOTH",
"377 50 OFFCURVE",
"369 63 OFFCURVE",
"369 88 CURVE SMOOTH",
"369 116 OFFCURVE",
"395 204 OFFCURVE",
"318 204 CURVE SMOOTH",
"269 204 LINE SMOOTH",
"193 204 OFFCURVE",
"218 116 OFFCURVE",
"218 88 CURVE SMOOTH",
"218 63 OFFCURVE",
"210 50 OFFCURVE",
"187 50 CURVE SMOOTH",
"126 50 OFFCURVE",
"90 111 OFFCURVE",
"90 167 CURVE SMOOTH",
"90 358 LINE SMOOTH",
"90 400 OFFCURVE",
"119 421 OFFCURVE",
"147 421 CURVE SMOOTH",
"176 421 OFFCURVE",
"204 401 OFFCURVE",
"204 362 CURVE SMOOTH",
"204 312 LINE SMOOTH",
"204 258 OFFCURVE",
"247 230 OFFCURVE",
"289 230 CURVE SMOOTH",
"332 230 OFFCURVE",
"376 258 OFFCURVE",
"376 316 CURVE SMOOTH",
"376 469 LINE",
"325 469 LINE",
"325 322 LINE SMOOTH",
"325 299 OFFCURVE",
"307 287 OFFCURVE",
"289 287 CURVE SMOOTH",
"271 287 OFFCURVE",
"253 299 OFFCURVE",
"253 322 CURVE SMOOTH",
"253 369 LINE SMOOTH",
"253 443 OFFCURVE",
"200 479 OFFCURVE",
"146 479 CURVE SMOOTH",
"89 479 OFFCURVE",
"30 438 OFFCURVE",
"30 361 CURVE SMOOTH",
"30 165 LINE SMOOTH",
"30 63 OFFCURVE",
"91 -11 OFFCURVE",
"186 -11 CURVE SMOOTH"
);
},
{
closed = 1;
nodes = (
"96 641 OFFCURVE",
"176 695 OFFCURVE",
"280 695 CURVE",
"280 755 LINE",
"154 755 OFFCURVE",
"37 680 OFFCURVE",
"37 564 CURVE",
"96 548 LINE"
);
}
);
width = 588;
}
);
unicode = 0DB9;
userData = {
com.fontlab.hintData = {
hhints = (
{
position = -11;
width = 146;
},
{
position = 100;
width = 104;
},
{
position = 348;
width = 125;
},
{
position = 616;
width = 139;
}
);
vhints = (
{
position = 30;
width = 136;
},
{
position = 223;
width = 157;
},
{
position = 311;
width = 92;
},
{
position = 437;
width = 140;
}
);
};
};
},
{
glyphname = sinYa;
lastChange = "2021-09-08 06:33:15 +0000";
layers = (
{
layerId = "906FCD19-247B-4D81-AD63-2BEA4CF1C003";
paths = (
{
closed = 1;
nodes = (
"242 -2 OFFCURVE",
"290 21 OFFCURVE",
"316 61 CURVE",
"343 21 OFFCURVE",
"392 -2 OFFCURVE",
"447 -2 CURVE SMOOTH",
"535 -2 OFFCURVE",
"604 55 OFFCURVE",
"604 144 CURVE SMOOTH",
"604 194 LINE",
"544 194 LINE",
"544 147 LINE SMOOTH",
"544 88 OFFCURVE",
"500 58 OFFCURVE",
"445 58 CURVE SMOOTH",
"390 58 OFFCURVE",
"346 88 OFFCURVE",
"346 147 CURVE SMOOTH",
"346 194 LINE",
"288 194 LINE",
"288 147 LINE SMOOTH",
"288 88 OFFCURVE",
"244 58 OFFCURVE",
"189 58 CURVE SMOOTH",
"134 58 OFFCURVE",
"90 88 OFFCURVE",
"90 147 CURVE SMOOTH",
"90 194 LINE",
"30 194 LINE",
"30 144 LINE SMOOTH",
"30 56 OFFCURVE",
"99 -2 OFFCURVE",
"188 -2 CURVE SMOOTH"
);
},
{
closed = 1;
nodes = (
"90 194 LINE",
"90 336 LINE SMOOTH",
"90 439 OFFCURVE",
"145 505 OFFCURVE",
"246 505 CURVE SMOOTH",
"255 505 LINE",
"265 563 LINE",
"248 563 LINE SMOOTH",
"132 563 OFFCURVE",
"30 493 OFFCURVE",
"30 340 CURVE SMOOTH",
"30 194 LINE"
);
},
{
closed = 1;
nodes = (
"604 184 LINE",
"604 242 LINE SMOOTH",
"604 345 OFFCURVE",
"549 402 OFFCURVE",
"409 402 CURVE SMOOTH",
"353 402 LINE",
"353 471 OFFCURVE",
"375 508 OFFCURVE",
"449 508 CURVE SMOOTH",
"503 508 OFFCURVE",
"534 488 OFFCURVE",
"547 455 CURVE",
"600 473 LINE",
"572 542 OFFCURVE",
"512 564 OFFCURVE",
"448 564 CURVE SMOOTH",
"383 564 OFFCURVE",
"295 529 OFFCURVE",
"295 405 CURVE SMOOTH",
"295 346 LINE",
"408 346 LINE SMOOTH",
"473 346 OFFCURVE",
"544 342 OFFCURVE",
"544 239 CURVE SMOOTH",
"544 184 LINE"
);
}
);
width = 635;
}
);
unicode = 0DBA;
},
{
glyphname = sinRa;
lastChange = "2021-09-08 07:07:18 +0000";
layers = (
{
layerId = "906FCD19-247B-4D81-AD63-2BEA4CF1C003";
paths = (
{
closed = 1;
nodes = (
"266 56 LINE",
"145 56 OFFCURVE",
"90 109 OFFCURVE",
"90 235 CURVE SMOOTH",
"90 404 LINE SMOOTH",
"90 480 OFFCURVE",
"108 514 OFFCURVE",
"165 586 CURVE SMOOTH",
"311 769 LINE",
"264 804 LINE",
"116 622 LINE SMOOTH",
"42 531 OFFCURVE",
"30 480 OFFCURVE",
"30 413 CURVE SMOOTH",
"30 236 LINE SMOOTH",
"30 52 OFFCURVE",
"134 -5 OFFCURVE",
"266 -5 CURVE"
);
},
{
closed = 1;
nodes = (
"138 564 LINE",
"97 509 LINE",
"97 505 LINE",
"303 505 LINE SMOOTH",
"376 505 OFFCURVE",
"431 475 OFFCURVE",
"431 353 CURVE SMOOTH",
"431 235 LINE SMOOTH",
"431 116 OFFCURVE",
"393 56 OFFCURVE",
"262 56 CURVE",
"262 -5 LINE",
"405 -5 OFFCURVE",
"491 43 OFFCURVE",
"491 231 CURVE SMOOTH",
"491 364 LINE SMOOTH",
"491 485 OFFCURVE",
"444 564 OFFCURVE",
"315 564 CURVE SMOOTH"
);
}
);
width = 531;
}
);
unicode = 0DBB;
userData = {
com.fontlab.hintData = {
hhints = (
{
position = -6;
width = 145;
}
);
vhints = (
{
position = 30;
width = 140;
},
{
position = 375;
width = 140;
}
);
};
};
},
{
glyphname = sinLa;
lastChange = "2021-09-13 11:03:19 +0000";
layers = (
{
layerId = "906FCD19-247B-4D81-AD63-2BEA4CF1C003";
paths = (
{
closed = 1;
nodes = (
"303 -109 LINE",
"172 -109 OFFCURVE",
"92 -58 OFFCURVE",
"92 106 CURVE SMOOTH",
"92 327 LINE SMOOTH",
"92 460 OFFCURVE",
"172 511 OFFCURVE",
"303 511 CURVE",
"303 571 LINE",
"165 571 OFFCURVE",
"30 527 OFFCURVE",
"30 327 CURVE SMOOTH",
"30 106 LINE SMOOTH",
"30 -125 OFFCURVE",
"166 -169 OFFCURVE",
"303 -169 CURVE"
);
},
{
closed = 1;
nodes = (
"430 -170 OFFCURVE",
"527 -138 OFFCURVE",
"568 -9 CURVE",
"510 7 LINE",
"481 -75 OFFCURVE",
"423 -110 OFFCURVE",
"303 -110 CURVE",
"303 -170 LINE"
);
},
{
closed = 1;
nodes = (
"398 283 LINE",
"398 338 LINE",
"204 338 LINE",
"204 283 LINE"
);
},
{
closed = 1;
nodes = (
"504 87 OFFCURVE",
"580 144 OFFCURVE",
"580 258 CURVE SMOOTH",
"580 335 LINE SMOOTH",
"580 543 OFFCURVE",
"443 571 OFFCURVE",
"303 571 CURVE",
"303 511 LINE",
"436 511 OFFCURVE",
"519 476 OFFCURVE",
"519 335 CURVE SMOOTH",
"519 258 LINE SMOOTH",
"519 188 OFFCURVE",
"472 149 OFFCURVE",
"418 149 CURVE SMOOTH",
"371 149 OFFCURVE",
"330 180 OFFCURVE",
"330 235 CURVE SMOOTH",
"330 305 LINE",
"270 305 LINE",
"270 231 LINE SMOOTH",
"270 151 OFFCURVE",
"327 87 OFFCURVE",
"419 87 CURVE SMOOTH"
);
}
);
width = 610;
}
);
rightMetricsKey = "30t";
unicode = 0DBD;
userData = {
com.fontlab.hintData = {
hhints = (
{
position = -169;
width = 40;
},
{
position = 290;
width = 40;
},
{
position = 290;
width = 9;
},
{
position = 530;
width = 40;
}
);
vhints = (
{
position = 30;
width = 43;
},
{
position = 276;
width = 43;
},
{
position = 534;
width = 42;
}
);
};
};
},
{
glyphname = sinVa;
lastChange = "2021-09-08 06:26:04 +0000";
layers = (
{
layerId = "906FCD19-247B-4D81-AD63-2BEA4CF1C003";
paths = (
{
closed = 1;
nodes = (
"456 -1 OFFCURVE",
"554 83 OFFCURVE",
"554 253 CURVE SMOOTH",
"554 525 LINE SMOOTH",
"554 677 OFFCURVE",
"451 755 OFFCURVE",
"287 755 CURVE",
"287 695 LINE",
"403 695 OFFCURVE",
"494 645 OFFCURVE",
"494 521 CURVE SMOOTH",
"494 253 LINE SMOOTH",
"494 106 OFFCURVE",
"396 59 OFFCURVE",
"281 59 CURVE",
"281 -1 LINE"
);
},
{
closed = 1;
nodes = (
"281 59 LINE",
"136 59 OFFCURVE",
"93 122 OFFCURVE",
"93 185 CURVE SMOOTH",
"93 279 OFFCURVE",
"146 298 OFFCURVE",
"258 298 CURVE SMOOTH",
"314 298 LINE",
"314 357 LINE SMOOTH",
"314 440 OFFCURVE",
"246 484 OFFCURVE",
"176 484 CURVE SMOOTH",
"122 484 OFFCURVE",
"67 458 OFFCURVE",
"51 399 CURVE",
"102 386 LINE",
"114 416 OFFCURVE",
"145 430 OFFCURVE",
"176 430 CURVE SMOOTH",
"219 430 OFFCURVE",
"261 404 OFFCURVE",
"261 353 CURVE",
"175 353 OFFCURVE",
"115 345 OFFCURVE",
"74 303 CURVE SMOOTH",
"42 273 OFFCURVE",
"33 233 OFFCURVE",
"33 183 CURVE SMOOTH",
"33 86 OFFCURVE",
"111 -1 OFFCURVE",
"281 -1 CURVE"
);
},
{
closed = 1;
nodes = (
"89 634 OFFCURVE",
"166 695 OFFCURVE",
"291 695 CURVE",
"291 755 LINE",
"143 755 OFFCURVE",
"30 674 OFFCURVE",
"30 564 CURVE",
"89 548 LINE"
);
}
);
width = 604;
}
);
unicode = 0DC0;
userData = {
com.fontlab.hintData = {
hhints = (
{
position = 0;
width = 40;
},
{
position = 309;
width = 40;
},
{
position = 715;
width = 40;
}
);
vhints = (
{
position = 33;
width = 40;
},
{
position = 274;
width = 40;
},
{
position = 480;
width = 41;
}
);
};
};
},
{
glyphname = sinSha;
lastChange = "2021-09-08 06:00:46 +0000";
layers = (
{
layerId = "906FCD19-247B-4D81-AD63-2BEA4CF1C003";
paths = (
{
closed = 1;
nodes = (
"30 212 LINE SMOOTH",
"30 80 OFFCURVE",
"95 -8 OFFCURVE",
"218 -8 CURVE",
"218 53 LINE",
"134 53 OFFCURVE",
"90 113 OFFCURVE",
"90 212 CURVE SMOOTH",
"90 342 LINE SMOOTH",
"90 442 OFFCURVE",
"132 503 OFFCURVE",
"218 503 CURVE",
"218 564 LINE",
"95 564 OFFCURVE",
"30 476 OFFCURVE",
"30 344 CURVE SMOOTH"
);
},
{
closed = 1;
nodes = (
"252 265 LINE",
"302 265 LINE SMOOTH",
"376 265 OFFCURVE",
"387 206 OFFCURVE",
"387 158 CURVE SMOOTH",
"387 87 OFFCURVE",
"349 53 OFFCURVE",
"274 53 CURVE",
"274 -8 LINE",
"378 -8 OFFCURVE",
"443 44 OFFCURVE",
"443 151 CURVE SMOOTH",
"443 172 LINE SMOOTH",
"443 242 OFFCURVE",
"414 315 OFFCURVE",
"323 315 CURVE SMOOTH",
"311 315 LINE",
"311 361 LINE SMOOTH",
"311 433 OFFCURVE",
"337 503 OFFCURVE",
"432 503 CURVE",
"432 564 LINE",
"305 564 OFFCURVE",
"252 476 OFFCURVE",
"252 358 CURVE SMOOTH"
);
},
{
closed = 1;
nodes = (
"616 113 OFFCURVE",
"572 53 OFFCURVE",
"488 53 CURVE",
"488 -8 LINE",
"611 -8 OFFCURVE",
"676 80 OFFCURVE",
"676 212 CURVE SMOOTH",
"676 344 LINE SMOOTH",
"676 476 OFFCURVE",
"611 564 OFFCURVE",
"488 564 CURVE",
"488 503 LINE",
"574 503 OFFCURVE",
"616 442 OFFCURVE",
"616 342 CURVE SMOOTH",
"616 212 LINE SMOOTH"
);
},
{
closed = 1;
nodes = (
"443 133 LINE",
"443 169 OFFCURVE",
"452 235 OFFCURVE",
"541 235 CURVE SMOOTH",
"568 235 LINE",
"568 288 LINE",
"549 288 LINE SMOOTH",
"397 288 OFFCURVE",
"395 171 OFFCURVE",
"395 133 CURVE"
);
}
);
width = 706;
}
);
unicode = 0DC1;
userData = {
com.fontlab.hintData = {
hhints = (
{
position = -8;
width = 40;
},
{
position = 271;
width = 40;
},
{
position = 524;
width = 40;
}
);
vhints = (
{
position = 30;
width = 40;
},
{
position = 252;
width = 41;
},
{
position = 399;
width = 40;
},
{
position = 633;
width = 40;
}
);
};
};
},
{
glyphname = sinSsa;
lastChange = "2021-09-08 06:24:05 +0000";
layers = (
{
layerId = "906FCD19-247B-4D81-AD63-2BEA4CF1C003";
paths = (
{
closed = 1;
nodes = (
"348 -7 LINE SMOOTH",
"524 -7 OFFCURVE",
"598 53 OFFCURVE",
"598 220 CURVE",
"538 220 LINE",
"538 80 OFFCURVE",
"469 52 OFFCURVE",
"350 52 CURVE SMOOTH",
"278 52 LINE SMOOTH",
"159 52 OFFCURVE",
"90 79 OFFCURVE",
"90 215 CURVE",
"30 215 LINE",
"30 52 OFFCURVE",
"103 -7 OFFCURVE",
"280 -7 CURVE SMOOTH"
);
},
{
closed = 1;
nodes = (
"90 214 LINE",
"90 299 OFFCURVE",
"103 347 OFFCURVE",
"197 347 CURVE SMOOTH",
"429 347 LINE SMOOTH",
"522 347 OFFCURVE",
"538 309 OFFCURVE",
"538 219 CURVE",
"598 219 LINE",
"598 371 OFFCURVE",
"535 403 OFFCURVE",
"427 403 CURVE SMOOTH",
"194 403 LINE SMOOTH",
"97 403 OFFCURVE",
"30 367 OFFCURVE",
"30 214 CURVE"
);
},
{
closed = 1;
nodes = (
"333 168 LINE",
"333 274 OFFCURVE",
"418 323 OFFCURVE",
"520 367 CURVE",
"434 367 LINE",
"338 339 OFFCURVE",
"274 262 OFFCURVE",
"274 168 CURVE"
);
},
{
closed = 1;
nodes = (
"343 379 LINE",
"343 411 LINE SMOOTH",
"343 464 OFFCURVE",
"376 509 OFFCURVE",
"442 509 CURVE SMOOTH",
"497 509 OFFCURVE",
"528 487 OFFCURVE",
"540 455 CURVE",
"594 474 LINE",
"569 541 OFFCURVE",
"507 566 OFFCURVE",
"442 566 CURVE SMOOTH",
"404 566 OFFCURVE",
"346 553 OFFCURVE",
"314 506 CURVE",
"282 553 OFFCURVE",
"225 566 OFFCURVE",
"187 566 CURVE SMOOTH",
"122 566 OFFCURVE",
"60 541 OFFCURVE",
"34 474 CURVE",
"89 455 LINE",
"100 487 OFFCURVE",
"132 509 OFFCURVE",
"187 509 CURVE SMOOTH",
"253 509 OFFCURVE",
"286 464 OFFCURVE",
"286 411 CURVE SMOOTH",
"286 379 LINE"
);
}
);
width = 628;
}
);
unicode = 0DC2;
},
{
glyphname = sinSa;
lastChange = "2021-09-08 07:06:31 +0000";
layers = (
{
layerId = "906FCD19-247B-4D81-AD63-2BEA4CF1C003";
paths = (
{
closed = 1;
nodes = (
"287 -2 OFFCURVE",
"335 21 OFFCURVE",
"361 61 CURVE",
"388 21 OFFCURVE",
"437 -2 OFFCURVE",
"492 -2 CURVE SMOOTH",
"580 -2 OFFCURVE",
"649 55 OFFCURVE",
"649 144 CURVE SMOOTH",
"649 225 LINE",
"589 225 LINE",
"589 147 LINE SMOOTH",
"589 88 OFFCURVE",
"545 58 OFFCURVE",
"490 58 CURVE SMOOTH",
"435 58 OFFCURVE",
"391 88 OFFCURVE",
"391 147 CURVE SMOOTH",
"391 195 LINE",
"333 195 LINE",
"333 147 LINE SMOOTH",
"333 88 OFFCURVE",
"289 58 OFFCURVE",
"234 58 CURVE SMOOTH",
"179 58 OFFCURVE",
"135 88 OFFCURVE",
"135 147 CURVE SMOOTH",
"135 225 LINE",
"75 225 LINE",
"75 144 LINE SMOOTH",
"75 56 OFFCURVE",
"144 -2 OFFCURVE",
"233 -2 CURVE SMOOTH"
);
},
{
closed = 1;
nodes = (
"135 214 LINE",
"135 241 LINE SMOOTH",
"135 318 OFFCURVE",
"170 346 OFFCURVE",
"233 346 CURVE SMOOTH",
"472 346 LINE SMOOTH",
"525 346 OFFCURVE",
"589 339 OFFCURVE",
"589 241 CURVE SMOOTH",
"589 214 LINE",
"649 214 LINE",
"649 246 LINE SMOOTH",
"649 348 OFFCURVE",
"597 402 OFFCURVE",
"475 402 CURVE SMOOTH",
"30 402 LINE",
"30 346 LINE",
"119 346 LINE",
"81 337 OFFCURVE",
"75 311 OFFCURVE",
"75 243 CURVE SMOOTH",
"75 214 LINE"
);
},
{
closed = 1;
nodes = (
"392 379 LINE",
"392 411 LINE SMOOTH",
"392 464 OFFCURVE",
"424 509 OFFCURVE",
"490 509 CURVE SMOOTH",
"546 509 OFFCURVE",
"577 487 OFFCURVE",
"588 455 CURVE",
"643 474 LINE",
"617 541 OFFCURVE",
"556 566 OFFCURVE",
"490 566 CURVE SMOOTH",
"452 566 OFFCURVE",
"395 553 OFFCURVE",
"363 506 CURVE",
"331 553 OFFCURVE",
"273 566 OFFCURVE",
"235 566 CURVE SMOOTH",
"170 566 OFFCURVE",
"108 541 OFFCURVE",
"83 474 CURVE",
"138 455 LINE",
"149 487 OFFCURVE",
"180 509 OFFCURVE",
"235 509 CURVE SMOOTH",
"301 509 OFFCURVE",
"334 464 OFFCURVE",
"334 411 CURVE SMOOTH",
"334 379 LINE"
);
}
);
width = 679;
}
);
unicode = 0DC3;
userData = {
com.fontlab.hintData = {
hhints = (
{
position = 0;
width = 40;
},
{
position = 362;
width = 40;
},
{
position = 523;
width = 40;
}
);
vhints = (
{
position = 77;
width = 40;
},
{
position = 342;
width = 40;
},
{
position = 607;
width = 40;
}
);
};
};
},
{
glyphname = sinHa;
lastChange = "2021-09-13 13:15:11 +0000";
layers = (
{
layerId = "906FCD19-247B-4D81-AD63-2BEA4CF1C003";
paths = (
{
closed = 1;
nodes = (
"238 53 LINE",
"132 53 OFFCURVE",
"88 113 OFFCURVE",
"88 196 CURVE SMOOTH",
"88 246 LINE SMOOTH",
"88 336 OFFCURVE",
"130 371 OFFCURVE",
"218 371 CURVE SMOOTH",
"299 371 LINE",
"299 438 LINE SMOOTH",
"299 522 OFFCURVE",
"230 564 OFFCURVE",
"162 564 CURVE SMOOTH",
"106 564 OFFCURVE",
"52 536 OFFCURVE",
"36 480 CURVE",
"87 467 LINE",
"99 496 OFFCURVE",
"130 511 OFFCURVE",
"160 511 CURVE SMOOTH",
"205 511 OFFCURVE",
"247 483 OFFCURVE",
"247 431 CURVE",
"212 431 LINE SMOOTH",
"87 431 OFFCURVE",
"30 366 OFFCURVE",
"30 248 CURVE SMOOTH",
"30 196 LINE SMOOTH",
"30 80 OFFCURVE",
"95 -8 OFFCURVE",
"238 -8 CURVE"
);
},
{
closed = 1;
nodes = (
"377 -8 OFFCURVE",
"443 43 OFFCURVE",
"443 149 CURVE SMOOTH",
"443 174 LINE SMOOTH",
"443 247 OFFCURVE",
"411 317 OFFCURVE",
"313 318 CURVE",
"313 359 LINE SMOOTH",
"313 431 OFFCURVE",
"337 503 OFFCURVE",
"471 503 CURVE",
"471 564 LINE",
"305 564 OFFCURVE",
"252 476 OFFCURVE",
"252 338 CURVE SMOOTH",
"252 265 LINE",
"302 265 LINE SMOOTH",
"380 265 OFFCURVE",
"386 201 OFFCURVE",
"386 159 CURVE SMOOTH",
"386 87 OFFCURVE",
"349 53 OFFCURVE",
"234 53 CURVE",
"234 -8 LINE"
);
},
{
closed = 1;
nodes = (
"610 -8 OFFCURVE",
"676 80 OFFCURVE",
"676 212 CURVE SMOOTH",
"676 344 LINE SMOOTH",
"676 476 OFFCURVE",
"610 564 OFFCURVE",
"467 564 CURVE",
"467 503 LINE",
"574 503 OFFCURVE",
"615 442 OFFCURVE",
"615 342 CURVE SMOOTH",
"615 212 LINE SMOOTH",
"615 113 OFFCURVE",
"571 53 OFFCURVE",
"487 53 CURVE",
"487 -8 LINE"
);
}
);
width = 706;
}
);
unicode = 0DC4;
userData = {
com.fontlab.hintData = {
hhints = (
{
position = -8;
width = 40;
},
{
position = 271;
width = 40;
},
{
position = 394;
width = 40;
},
{
position = 524;
width = 40;
}
);
vhints = (
{
position = 30;
width = 40;
},
{
position = 210;
width = 6;
},
{
position = 252;
width = 41;
},
{
position = 399;
width = 40;
},
{
position = 633;
width = 40;
}
);
};
};
},
{
glyphname = sinLla;
lastChange = "2021-09-13 11:07:27 +0000";
layers = (
{
layerId = "906FCD19-247B-4D81-AD63-2BEA4CF1C003";
paths = (
{
closed = 1;
nodes = (
"313 -109 LINE",
"189 -109 OFFCURVE",
"91 -67 OFFCURVE",
"91 77 CURVE SMOOTH",
"91 185 LINE SMOOTH",
"91 283 OFFCURVE",
"160 330 OFFCURVE",
"224 330 CURVE SMOOTH",
"540 330 LINE",
"540 388 LINE",
"215 388 LINE SMOOTH",
"132 388 OFFCURVE",
"30 322 OFFCURVE",
"30 194 CURVE SMOOTH",
"30 77 LINE SMOOTH",
"30 -90 OFFCURVE",
"132 -170 OFFCURVE",
"313 -170 CURVE"
);
},
{
closed = 1;
nodes = (
"313 -109 LINE",
"427 -109 OFFCURVE",
"507 -84 OFFCURVE",
"530 16 CURVE",
"589 0 LINE",
"560 -139 OFFCURVE",
"442 -170 OFFCURVE",
"313 -170 CURVE"
);
},
{
closed = 1;
nodes = (
"452 93 OFFCURVE",
"512 133 OFFCURVE",
"540 203 CURVE",
"485 217 LINE",
"466 175 OFFCURVE",
"424 148 OFFCURVE",
"364 148 CURVE SMOOTH",
"319 148 LINE SMOOTH",
"190 148 OFFCURVE",
"172 281 OFFCURVE",
"172 339 CURVE",
"121 302 LINE",
"118 210 OFFCURVE",
"174 93 OFFCURVE",
"317 93 CURVE SMOOTH",
"365 93 LINE SMOOTH"
);
},
{
closed = 1;
nodes = (
"165 357 LINE",
"145 467 OFFCURVE",
"190 511 OFFCURVE",
"234 511 CURVE SMOOTH",
"272 511 OFFCURVE",
"301 484 OFFCURVE",
"301 436 CURVE",
"350 436 LINE",
"350 484 OFFCURVE",
"380 510 OFFCURVE",
"416 510 CURVE SMOOTH",
"457 510 OFFCURVE",
"485 488 OFFCURVE",
"485 377 CURVE",
"540 377 LINE",
"540 519 OFFCURVE",
"495 566 OFFCURVE",
"415 566 CURVE SMOOTH",
"386 566 OFFCURVE",
"348 555 OFFCURVE",
"326 522 CURVE",
"304 554 OFFCURVE",
"266 566 OFFCURVE",
"236 566 CURVE SMOOTH",
"159 566 OFFCURVE",
"109 509 OFFCURVE",
"109 419 CURVE SMOOTH",
"109 346 LINE"
);
}
);
width = 609;
}
);
unicode = 0DC5;
},
{
glyphname = sinFa;
lastChange = "2021-09-08 06:00:46 +0000";
layers = (
{
layerId = "906FCD19-247B-4D81-AD63-2BEA4CF1C003";
paths = (
{
closed = 1;
nodes = (
"90 244 LINE",
"90 415 LINE SMOOTH",
"90 474 OFFCURVE",
"134 504 OFFCURVE",
"189 504 CURVE SMOOTH",
"244 504 OFFCURVE",
"288 474 OFFCURVE",
"288 415 CURVE SMOOTH",
"288 244 LINE",
"346 244 LINE",
"346 415 LINE SMOOTH",
"346 474 OFFCURVE",
"390 504 OFFCURVE",
"445 504 CURVE SMOOTH",
"500 504 OFFCURVE",
"544 474 OFFCURVE",
"544 415 CURVE SMOOTH",
"544 244 LINE",
"604 244 LINE",
"604 418 LINE SMOOTH",
"604 506 OFFCURVE",
"535 564 OFFCURVE",
"446 564 CURVE SMOOTH",
"392 564 OFFCURVE",
"344 542 OFFCURVE",
"318 502 CURVE",
"291 542 OFFCURVE",
"242 564 OFFCURVE",
"187 564 CURVE SMOOTH",
"99 564 OFFCURVE",
"30 508 OFFCURVE",
"30 418 CURVE SMOOTH",
"30 244 LINE"
);
},
{
closed = 1;
nodes = (
"225 61 LINE",
"117 61 OFFCURVE",
"90 138 OFFCURVE",
"90 194 CURVE",
"30 194 LINE",
"30 91 OFFCURVE",
"86 0 OFFCURVE",
"225 0 CURVE"
);
},
{
closed = 1;
nodes = (
"548 0 OFFCURVE",
"604 91 OFFCURVE",
"604 194 CURVE",
"544 194 LINE",
"544 138 OFFCURVE",
"517 61 OFFCURVE",
"409 61 CURVE",
"409 0 LINE"
);
}
);
width = 634;
}
);
unicode = 0DC6;
userData = {
com.fontlab.hintData = {
hhints = (
{
position = 0;
width = 143;
},
{
position = 425;
width = 139;
}
);
vhints = (
{
position = 30;
width = 139;
},
{
position = 261;
width = 128;
},
{
position = 481;
width = 139;
}
);
};
};
},
{
glyphname = sinKSsa;
lastChange = "2021-09-08 06:00:46 +0000";
layers = (
{
layerId = "906FCD19-247B-4D81-AD63-2BEA4CF1C003";
paths = (
{
closed = 1;
nodes = (
"126 565 OFFCURVE",
"60 534 OFFCURVE",
"32 449 CURVE",
"87 432 LINE",
"105 483 OFFCURVE",
"145 506 OFFCURVE",
"184 506 CURVE SMOOTH",
"227 506 OFFCURVE",
"270 480 OFFCURVE",
"280 436 CURVE",
"323 479 LINE",
"308 529 OFFCURVE",
"249 565 OFFCURVE",
"186 565 CURVE SMOOTH"
);
},
{
closed = 1;
nodes = (
"86 216 LINE",
"305 402 LINE SMOOTH",
"400 484 OFFCURVE",
"509 518 OFFCURVE",
"603 518 CURVE SMOOTH",
"720 518 OFFCURVE",
"812 465 OFFCURVE",
"822 384 CURVE",
"874 402 LINE",
"861 519 OFFCURVE",
"743 580 OFFCURVE",
"605 580 CURVE SMOOTH",
"497 580 OFFCURVE",
"377 543 OFFCURVE",
"287 467 CURVE SMOOTH",
"30 249 LINE",
"30 189 LINE"
);
},
{
closed = 1;
nodes = (
"221 -5 OFFCURVE",
"254 8 OFFCURVE",
"279 36 CURVE",
"308 9 OFFCURVE",
"346 -5 OFFCURVE",
"383 -5 CURVE SMOOTH",
"447 -5 OFFCURVE",
"508 37 OFFCURVE",
"508 118 CURVE SMOOTH",
"508 236 LINE SMOOTH",
"508 346 OFFCURVE",
"455 378 OFFCURVE",
"382 393 CURVE",
"332 351 LINE",
"420 336 OFFCURVE",
"450 311 OFFCURVE",
"450 232 CURVE SMOOTH",
"450 124 LINE SMOOTH",
"450 80 OFFCURVE",
"411 57 OFFCURVE",
"374 57 CURVE SMOOTH",
"339 57 OFFCURVE",
"305 77 OFFCURVE",
"305 124 CURVE SMOOTH",
"305 194 LINE",
"253 194 LINE",
"253 123 LINE SMOOTH",
"253 77 OFFCURVE",
"222 57 OFFCURVE",
"190 57 CURVE SMOOTH",
"156 57 OFFCURVE",
"121 80 OFFCURVE",
"121 123 CURVE SMOOTH",
"121 173 LINE SMOOTH",
"121 192 OFFCURVE",
"113 237 OFFCURVE",
"53 248 CURVE",
"30 189 LINE",
"34 190 OFFCURVE",
"40 192 OFFCURVE",
"44 192 CURVE SMOOTH",
"64 192 OFFCURVE",
"65 162 OFFCURVE",
"65 141 CURVE SMOOTH",
"65 112 LINE SMOOTH",
"65 40 OFFCURVE",
"126 -5 OFFCURVE",
"188 -5 CURVE SMOOTH"
);
},
{
closed = 1;
nodes = (
"634 403 OFFCURVE",
"567 367 OFFCURVE",
"567 244 CURVE",
"627 244 LINE",
"627 299 OFFCURVE",
"640 347 OFFCURVE",
"734 347 CURVE SMOOTH",
"966 347 LINE SMOOTH",
"1059 347 OFFCURVE",
"1075 309 OFFCURVE",
"1075 244 CURVE",
"1135 244 LINE",
"1135 371 OFFCURVE",
"1072 403 OFFCURVE",
"964 403 CURVE SMOOTH",
"731 403 LINE SMOOTH"
);
},
{
closed = 1;
nodes = (
"885 -7 LINE SMOOTH",
"1061 -7 OFFCURVE",
"1135 53 OFFCURVE",
"1135 195 CURVE",
"1075 195 LINE",
"1075 80 OFFCURVE",
"1006 52 OFFCURVE",
"887 52 CURVE SMOOTH",
"815 52 LINE SMOOTH",
"696 52 OFFCURVE",
"627 79 OFFCURVE",
"627 195 CURVE",
"567 195 LINE",
"567 52 OFFCURVE",
"640 -7 OFFCURVE",
"817 -7 CURVE SMOOTH"
);
},
{
closed = 1;
nodes = (
"929 566 OFFCURVE",
"822 545 OFFCURVE",
"822 411 CURVE SMOOTH",
"822 379 LINE",
"880 379 LINE",
"880 411 LINE SMOOTH",
"880 464 OFFCURVE",
"913 509 OFFCURVE",
"979 509 CURVE SMOOTH",
"1034 509 OFFCURVE",
"1065 487 OFFCURVE",
"1076 455 CURVE",
"1131 474 LINE",
"1106 541 OFFCURVE",
"1045 566 OFFCURVE",
"978 566 CURVE SMOOTH"
);
},
{
closed = 1;
nodes = (
"870 168 LINE",
"870 274 OFFCURVE",
"955 323 OFFCURVE",
"1056 367 CURVE",
"970 367 LINE",
"875 339 OFFCURVE",
"811 262 OFFCURVE",
"811 168 CURVE"
);
}
);
width = 1165;
}
);
},
{
glyphname = sinKVa;
lastChange = "2021-09-08 06:00:46 +0000";
layers = (
{
layerId = "906FCD19-247B-4D81-AD63-2BEA4CF1C003";
paths = (
{
closed = 1;
nodes = (
"126 565 OFFCURVE",
"60 534 OFFCURVE",
"32 449 CURVE",
"87 432 LINE",
"105 483 OFFCURVE",
"145 506 OFFCURVE",
"184 506 CURVE SMOOTH",
"227 506 OFFCURVE",
"270 480 OFFCURVE",
"280 436 CURVE",
"323 479 LINE",
"308 529 OFFCURVE",
"249 565 OFFCURVE",
"186 565 CURVE SMOOTH"
);
},
{
closed = 1;
nodes = (
"221 -5 OFFCURVE",
"254 8 OFFCURVE",
"279 36 CURVE",
"308 9 OFFCURVE",
"346 -5 OFFCURVE",
"383 -5 CURVE SMOOTH",
"447 -5 OFFCURVE",
"508 37 OFFCURVE",
"508 118 CURVE SMOOTH",
"508 236 LINE SMOOTH",
"508 346 OFFCURVE",
"455 378 OFFCURVE",
"382 393 CURVE",
"332 351 LINE",
"420 336 OFFCURVE",
"450 311 OFFCURVE",
"450 232 CURVE SMOOTH",
"450 124 LINE SMOOTH",
"450 80 OFFCURVE",
"411 57 OFFCURVE",
"374 57 CURVE SMOOTH",
"339 57 OFFCURVE",
"305 77 OFFCURVE",
"305 124 CURVE SMOOTH",
"305 194 LINE",
"253 194 LINE",
"253 123 LINE SMOOTH",
"253 77 OFFCURVE",
"222 57 OFFCURVE",
"190 57 CURVE SMOOTH",
"156 57 OFFCURVE",
"121 80 OFFCURVE",
"121 123 CURVE SMOOTH",
"121 173 LINE SMOOTH",
"121 192 OFFCURVE",
"113 237 OFFCURVE",
"53 248 CURVE",
"30 189 LINE",
"34 190 OFFCURVE",
"40 192 OFFCURVE",
"44 192 CURVE SMOOTH",
"64 192 OFFCURVE",
"65 162 OFFCURVE",
"65 141 CURVE SMOOTH",
"65 112 LINE SMOOTH",
"65 40 OFFCURVE",
"126 -5 OFFCURVE",
"188 -5 CURVE SMOOTH"
);
},
{
closed = 1;
nodes = (
"573 86 OFFCURVE",
"661 -1 OFFCURVE",
"781 -1 CURVE",
"781 59 LINE",
"686 59 OFFCURVE",
"633 122 OFFCURVE",
"633 185 CURVE SMOOTH",
"633 279 OFFCURVE",
"686 298 OFFCURVE",
"798 298 CURVE SMOOTH",
"854 298 LINE",
"854 354 LINE SMOOTH",
"852 490 OFFCURVE",
"715 571 OFFCURVE",
"563 571 CURVE SMOOTH",
"473 571 OFFCURVE",
"378 542 OFFCURVE",
"302 479 CURVE SMOOTH",
"30 249 LINE",
"30 189 LINE",
"86 216 LINE",
"343 434 LINE SMOOTH",
"405 487 OFFCURVE",
"481 510 OFFCURVE",
"554 510 CURVE SMOOTH",
"678 510 OFFCURVE",
"790 442 OFFCURVE",
"793 353 CURVE",
"707 351 OFFCURVE",
"648 341 OFFCURVE",
"609 298 CURVE SMOOTH",
"584 269 OFFCURVE",
"573 231 OFFCURVE",
"573 184 CURVE SMOOTH"
);
},
{
closed = 1;
nodes = (
"1004 243 LINE SMOOTH",
"1004 106 OFFCURVE",
"936 59 OFFCURVE",
"837 59 CURVE",
"837 -1 LINE",
"996 -1 OFFCURVE",
"1064 83 OFFCURVE",
"1064 243 CURVE SMOOTH",
"1064 515 LINE SMOOTH",
"1064 677 OFFCURVE",
"991 755 OFFCURVE",
"837 755 CURVE",
"837 695 LINE",
"943 695 OFFCURVE",
"1004 645 OFFCURVE",
"1004 511 CURVE SMOOTH"
);
},
{
closed = 1;
nodes = (
"709 755 OFFCURVE",
"630 711 OFFCURVE",
"593 645 CURVE",
"653 625 LINE",
"680 667 OFFCURVE",
"732 695 OFFCURVE",
"781 695 CURVE",
"781 755 LINE"
);
}
);
width = 1094;
}
);
userData = {
com.fontlab.hintData = {
hhints = (
{
position = -5;
width = 140;
},
{
position = 399;
width = 102;
},
{
position = 616;
width = 138;
}
);
vhints = (
{
position = 33;
width = 138;
},
{
position = 398;
width = 140;
}
);
};
};
},
{
glyphname = sinTVa;
lastChange = "2021-09-08 06:00:46 +0000";
layers = (
{
layerId = "906FCD19-247B-4D81-AD63-2BEA4CF1C003";
paths = (
{
closed = 1;
nodes = (
"759 59 LINE",
"664 59 OFFCURVE",
"611 122 OFFCURVE",
"611 185 CURVE SMOOTH",
"611 279 OFFCURVE",
"664 298 OFFCURVE",
"776 298 CURVE SMOOTH",
"832 298 LINE",
"832 351 LINE SMOOTH",
"832 489 OFFCURVE",
"687 567 OFFCURVE",
"539 567 CURVE SMOOTH",
"460 567 OFFCURVE",
"380 545 OFFCURVE",
"321 495 CURVE SMOOTH",
"30 249 LINE",
"30 188 LINE",
"86 218 LINE",
"357 447 LINE SMOOTH",
"406 489 OFFCURVE",
"474 510 OFFCURVE",
"541 510 CURVE SMOOTH",
"653 510 OFFCURVE",
"767 452 OFFCURVE",
"772 353 CURVE",
"685 351 OFFCURVE",
"624 341 OFFCURVE",
"586 297 CURVE SMOOTH",
"561 268 OFFCURVE",
"551 230 OFFCURVE",
"551 184 CURVE SMOOTH",
"551 85 OFFCURVE",
"639 -1 OFFCURVE",
"759 -1 CURVE"
);
},
{
closed = 1;
nodes = (
"439 -5 OFFCURVE",
"507 79 OFFCURVE",
"507 189 CURVE SMOOTH",
"507 272 OFFCURVE",
"493 360 OFFCURVE",
"374 390 CURVE",
"325 349 LINE",
"440 323 OFFCURVE",
"449 264 OFFCURVE",
"449 190 CURVE SMOOTH",
"449 115 OFFCURVE",
"400 54 OFFCURVE",
"310 54 CURVE SMOOTH",
"120 54 OFFCURVE",
"160 239 OFFCURVE",
"71 239 CURVE SMOOTH",
"66 239 OFFCURVE",
"61 239 OFFCURVE",
"55 237 CURVE",
"30 188 LINE",
"34 189 OFFCURVE",
"39 190 OFFCURVE",
"44 190 CURVE SMOOTH",
"65 190 OFFCURVE",
"76 174 OFFCURVE",
"88 154 CURVE SMOOTH",
"122 94 OFFCURVE",
"152 -5 OFFCURVE",
"312 -5 CURVE SMOOTH"
);
},
{
closed = 1;
nodes = (
"132 483 OFFCURVE",
"172 506 OFFCURVE",
"211 506 CURVE SMOOTH",
"254 506 OFFCURVE",
"297 480 OFFCURVE",
"307 436 CURVE",
"349 480 LINE",
"337 526 OFFCURVE",
"277 565 OFFCURVE",
"212 565 CURVE SMOOTH",
"154 565 OFFCURVE",
"87 534 OFFCURVE",
"59 449 CURVE",
"114 432 LINE"
);
},
{
closed = 1;
nodes = (
"974 -1 OFFCURVE",
"1042 83 OFFCURVE",
"1042 243 CURVE SMOOTH",
"1042 515 LINE SMOOTH",
"1042 677 OFFCURVE",
"969 755 OFFCURVE",
"815 755 CURVE",
"815 695 LINE",
"921 695 OFFCURVE",
"982 645 OFFCURVE",
"982 511 CURVE SMOOTH",
"982 243 LINE SMOOTH",
"982 106 OFFCURVE",
"914 59 OFFCURVE",
"815 59 CURVE",
"815 -1 LINE"
);
},
{
closed = 1;
nodes = (
"658 667 OFFCURVE",
"710 695 OFFCURVE",
"759 695 CURVE",
"759 755 LINE",
"687 755 OFFCURVE",
"608 711 OFFCURVE",
"571 645 CURVE",
"631 625 LINE"
);
}
);
width = 1072;
}
);
userData = {
com.fontlab.hintData = {
hhints = (
{
position = -8;
width = 138;
},
{
position = 435;
width = 140;
},
{
position = 446;
width = 121;
}
);
vhints = (
{
position = 632;
width = 140;
}
);
};
};
},
{
glyphname = sinTTha;
lastChange = "2021-09-08 06:00:46 +0000";
layers = (
{
layerId = "906FCD19-247B-4D81-AD63-2BEA4CF1C003";
paths = (
{
closed = 1;
nodes = (
"132 483 OFFCURVE",
"172 506 OFFCURVE",
"211 506 CURVE SMOOTH",
"254 506 OFFCURVE",
"297 480 OFFCURVE",
"307 436 CURVE",
"350 480 LINE",
"337 526 OFFCURVE",
"276 565 OFFCURVE",
"212 565 CURVE SMOOTH",
"154 565 OFFCURVE",
"87 534 OFFCURVE",
"59 449 CURVE",
"114 432 LINE"
);
},
{
closed = 1;
nodes = (
"439 -5 OFFCURVE",
"507 79 OFFCURVE",
"507 189 CURVE SMOOTH",
"507 272 OFFCURVE",
"493 360 OFFCURVE",
"374 390 CURVE",
"325 349 LINE",
"440 323 OFFCURVE",
"449 264 OFFCURVE",
"449 190 CURVE SMOOTH",
"449 115 OFFCURVE",
"400 54 OFFCURVE",
"310 54 CURVE SMOOTH",
"120 54 OFFCURVE",
"160 239 OFFCURVE",
"71 239 CURVE SMOOTH",
"66 239 OFFCURVE",
"61 239 OFFCURVE",
"55 237 CURVE",
"30 188 LINE",
"34 189 OFFCURVE",
"39 190 OFFCURVE",
"44 190 CURVE SMOOTH",
"61 190 OFFCURVE",
"71 178 OFFCURVE",
"81 165 CURVE SMOOTH",
"121 111 OFFCURVE",
"139 -5 OFFCURVE",
"312 -5 CURVE SMOOTH"
);
},
{
closed = 1;
nodes = (
"86 218 LINE",
"357 447 LINE SMOOTH",
"409 490 OFFCURVE",
"467 509 OFFCURVE",
"522 509 CURVE SMOOTH",
"595 509 OFFCURVE",
"669 476 OFFCURVE",
"692 408 CURVE",
"752 405 LINE",
"729 517 OFFCURVE",
"633 570 OFFCURVE",
"528 570 CURVE SMOOTH",
"453 570 OFFCURVE",
"381 542 OFFCURVE",
"316 491 CURVE",
"30 249 LINE",
"30 188 LINE"
);
},
{
closed = 1;
nodes = (
"753 60 LINE",
"663 60 OFFCURVE",
"608 122 OFFCURVE",
"608 203 CURVE SMOOTH",
"608 263 LINE SMOOTH",
"608 341 OFFCURVE",
"651 405 OFFCURVE",
"741 405 CURVE SMOOTH",
"752 405 LINE",
"720 454 LINE",
"587 443 OFFCURVE",
"547 344 OFFCURVE",
"547 267 CURVE SMOOTH",
"547 198 LINE SMOOTH",
"547 113 OFFCURVE",
"605 -1 OFFCURVE",
"753 -1 CURVE"
);
},
{
closed = 1;
nodes = (
"967 -1 OFFCURVE",
"1035 83 OFFCURVE",
"1035 243 CURVE",
"973 243 LINE",
"973 107 OFFCURVE",
"908 60 OFFCURVE",
"809 60 CURVE",
"809 -1 LINE"
);
},
{
closed = 1;
nodes = (
"750 755 LINE",
"750 631 LINE SMOOTH",
"750 537 OFFCURVE",
"803 459 OFFCURVE",
"922 459 CURVE",
"922 513 LINE",
"861 513 OFFCURVE",
"806 546 OFFCURVE",
"806 632 CURVE SMOOTH",
"806 698 LINE",
"810 698 LINE SMOOTH",
"932 698 OFFCURVE",
"973 633 OFFCURVE",
"973 500 CURVE SMOOTH",
"973 238 LINE",
"1035 238 LINE",
"1035 517 LINE SMOOTH",
"1035 700 OFFCURVE",
"937 755 OFFCURVE",
"806 755 CURVE SMOOTH"
);
}
);
width = 1065;
}
);
userData = {
com.fontlab.hintData = {
hhints = (
{
position = 0;
width = 40;
},
{
position = 371;
width = 32;
},
{
position = 464;
width = 40;
},
{
position = 715;
width = 40;
}
);
vhints = (
{
position = 468;
width = 40;
},
{
position = 547;
width = 41;
},
{
position = 764;
width = 40;
},
{
position = 989;
width = 42;
}
);
};
};
},
{
glyphname = sinNDa;
lastChange = "2021-09-08 06:00:46 +0000";
layers = (
{
layerId = "906FCD19-247B-4D81-AD63-2BEA4CF1C003";
paths = (
{
closed = 1;
nodes = (
"724 0 LINE SMOOTH",
"788 0 OFFCURVE",
"887 28 OFFCURVE",
"926 138 CURVE",
"871 153 LINE",
"841 88 OFFCURVE",
"787 59 OFFCURVE",
"724 59 CURVE SMOOTH",
"685 59 LINE SMOOTH",
"578 59 OFFCURVE",
"520 116 OFFCURVE",
"520 199 CURVE SMOOTH",
"520 287 OFFCURVE",
"578 342 OFFCURVE",
"676 342 CURVE SMOOTH",
"862 342 LINE",
"862 391 LINE SMOOTH",
"862 526 OFFCURVE",
"772 592 OFFCURVE",
"597 592 CURVE",
"597 532 LINE",
"739 532 OFFCURVE",
"801 486 OFFCURVE",
"801 401 CURVE",
"684 401 LINE SMOOTH",
"553 401 OFFCURVE",
"458 335 OFFCURVE",
"458 199 CURVE SMOOTH",
"458 60 OFFCURVE",
"565 0 OFFCURVE",
"685 0 CURVE SMOOTH"
);
},
{
closed = 1;
nodes = (
"873 -204 OFFCURVE",
"945 -158 OFFCURVE",
"964 -77 CURVE",
"906 -62 LINE",
"892 -121 OFFCURVE",
"843 -147 OFFCURVE",
"794 -147 CURVE SMOOTH",
"735 -147 OFFCURVE",
"678 -109 OFFCURVE",
"678 -45 CURVE",
"619 -45 LINE",
"619 -148 OFFCURVE",
"699 -204 OFFCURVE",
"791 -204 CURVE SMOOTH"
);
},
{
closed = 1;
nodes = (
"127 565 OFFCURVE",
"60 534 OFFCURVE",
"33 449 CURVE",
"87 432 LINE",
"106 483 OFFCURVE",
"145 506 OFFCURVE",
"184 506 CURVE SMOOTH",
"228 506 OFFCURVE",
"270 480 OFFCURVE",
"281 436 CURVE",
"322 480 LINE",
"310 526 OFFCURVE",
"250 565 OFFCURVE",
"185 565 CURVE SMOOTH"
);
},
{
closed = 1;
nodes = (
"394 -6 OFFCURVE",
"494 75 OFFCURVE",
"494 206 CURVE SMOOTH",
"494 282 OFFCURVE",
"455 362 OFFCURVE",
"366 393 CURVE",
"331 346 LINE",
"410 316 OFFCURVE",
"431 260 OFFCURVE",
"431 207 CURVE SMOOTH",
"431 111 OFFCURVE",
"358 55 OFFCURVE",
"273 55 CURVE SMOOTH",
"170 55 OFFCURVE",
"86 137 OFFCURVE",
"86 270 CURVE SMOOTH",
"86 344 LINE",
"30 344 LINE",
"30 256 LINE SMOOTH",
"30 80 OFFCURVE",
"150 -6 OFFCURVE",
"274 -6 CURVE SMOOTH"
);
},
{
closed = 1;
nodes = (
"84 203 LINE SMOOTH",
"149 203 OFFCURVE",
"206 270 OFFCURVE",
"256 335 CURVE SMOOTH",
"334 438 LINE SMOOTH",
"392 515 OFFCURVE",
"462 532 OFFCURVE",
"542 532 CURVE",
"542 592 LINE",
"440 592 OFFCURVE",
"352 562 OFFCURVE",
"292 482 CURVE SMOOTH",
"200 360 LINE SMOOTH",
"173 324 OFFCURVE",
"122 266 OFFCURVE",
"81 266 CURVE SMOOTH",
"65 266 LINE",
"65 203 LINE"
);
}
);
width = 964;
}
);
userData = {
com.fontlab.hintData = {
hhints = (
{
position = -204;
width = 126;
},
{
position = 0;
width = 136;
},
{
position = 263;
width = 135;
},
{
position = 454;
width = 121;
}
);
vhints = (
{
position = 32;
width = 143;
}
);
};
};
},
{
glyphname = sinNDha;
lastChange = "2021-09-08 06:00:46 +0000";
layers = (
{
layerId = "906FCD19-247B-4D81-AD63-2BEA4CF1C003";
paths = (
{
closed = 1;
nodes = (
"127 565 OFFCURVE",
"60 534 OFFCURVE",
"33 449 CURVE",
"87 432 LINE",
"106 483 OFFCURVE",
"145 506 OFFCURVE",
"184 506 CURVE SMOOTH",
"228 506 OFFCURVE",
"270 480 OFFCURVE",
"281 436 CURVE",
"322 480 LINE",
"310 526 OFFCURVE",
"250 565 OFFCURVE",
"185 565 CURVE SMOOTH"
);
},
{
closed = 1;
nodes = (
"394 -6 OFFCURVE",
"494 75 OFFCURVE",
"494 206 CURVE SMOOTH",
"494 282 OFFCURVE",
"455 362 OFFCURVE",
"366 393 CURVE",
"331 346 LINE",
"410 316 OFFCURVE",
"431 260 OFFCURVE",
"431 207 CURVE SMOOTH",
"431 111 OFFCURVE",
"358 55 OFFCURVE",
"273 55 CURVE SMOOTH",
"170 55 OFFCURVE",
"86 137 OFFCURVE",
"86 270 CURVE SMOOTH",
"86 344 LINE",
"30 344 LINE",
"30 256 LINE SMOOTH",
"30 80 OFFCURVE",
"150 -6 OFFCURVE",
"274 -6 CURVE SMOOTH"
);
},
{
closed = 1;
nodes = (
"431 590 OFFCURVE",
"345 553 OFFCURVE",
"292 482 CURVE SMOOTH",
"200 360 LINE SMOOTH",
"174 324 OFFCURVE",
"122 266 OFFCURVE",
"81 266 CURVE SMOOTH",
"65 266 LINE",
"65 203 LINE",
"84 203 LINE SMOOTH",
"149 202 OFFCURVE",
"206 270 OFFCURVE",
"256 335 CURVE SMOOTH",
"334 438 LINE SMOOTH",
"382 502 OFFCURVE",
"451 530 OFFCURVE",
"520 530 CURVE SMOOTH",
"606 530 OFFCURVE",
"695 487 OFFCURVE",
"713 419 CURVE",
"770 419 LINE",
"752 533 OFFCURVE",
"642 590 OFFCURVE",
"526 590 CURVE SMOOTH"
);
},
{
closed = 1;
nodes = (
"744 -2 OFFCURVE",
"785 17 OFFCURVE",
"809 53 CURVE",
"834 17 OFFCURVE",
"877 -2 OFFCURVE",
"925 -2 CURVE SMOOTH",
"1010 -2 OFFCURVE",
"1070 53 OFFCURVE",
"1070 138 CURVE SMOOTH",
"1070 234 LINE",
"1008 234 LINE",
"1008 144 LINE SMOOTH",
"1008 114 OFFCURVE",
"988 58 OFFCURVE",
"921 58 CURVE SMOOTH",
"855 58 OFFCURVE",
"835 114 OFFCURVE",
"835 144 CURVE SMOOTH",
"835 194 LINE",
"781 194 LINE",
"781 144 LINE SMOOTH",
"781 114 OFFCURVE",
"761 58 OFFCURVE",
"695 58 CURVE SMOOTH",
"628 58 OFFCURVE",
"608 114 OFFCURVE",
"608 144 CURVE SMOOTH",
"608 293 LINE SMOOTH",
"608 333 OFFCURVE",
"625 419 OFFCURVE",
"734 419 CURVE SMOOTH",
"770 419 LINE",
"741 475 LINE",
"710 471 LINE SMOOTH",
"587 464 OFFCURVE",
"547 375 OFFCURVE",
"547 298 CURVE SMOOTH",
"547 138 LINE SMOOTH",
"547 53 OFFCURVE",
"609 -2 OFFCURVE",
"695 -2 CURVE SMOOTH"
);
},
{
closed = 1;
nodes = (
"1008 233 LINE",
"1070 233 LINE",
"1070 515 LINE SMOOTH",
"1070 676 OFFCURVE",
"998 755 OFFCURVE",
"837 755 CURVE",
"837 695 LINE",
"950 695 OFFCURVE",
"1008 645 OFFCURVE",
"1008 511 CURVE SMOOTH"
);
},
{
closed = 1;
nodes = (
"665 667 OFFCURVE",
"718 695 OFFCURVE",
"781 695 CURVE",
"781 755 LINE",
"696 755 OFFCURVE",
"615 711 OFFCURVE",
"578 643 CURVE",
"637 622 LINE"
);
}
);
width = 1100;
}
);
userData = {
com.fontlab.hintData = {
hhints = (
{
position = -8;
width = 140;
},
{
position = 200;
width = 2;
},
{
position = 336;
width = 138;
},
{
position = 616;
width = 138;
}
);
vhints = (
{
position = 30;
width = 138;
},
{
position = 245;
width = 100;
},
{
position = 422;
width = 141;
}
);
};
};
},
{
glyphname = sinNVa;
lastChange = "2021-09-08 06:00:46 +0000";
layers = (
{
layerId = "906FCD19-247B-4D81-AD63-2BEA4CF1C003";
paths = (
{
closed = 1;
nodes = (
"106 483 OFFCURVE",
"144 506 OFFCURVE",
"185 506 CURVE SMOOTH",
"227 506 OFFCURVE",
"270 480 OFFCURVE",
"281 436 CURVE",
"322 480 LINE",
"310 526 OFFCURVE",
"250 565 OFFCURVE",
"186 565 CURVE SMOOTH",
"127 565 OFFCURVE",
"60 534 OFFCURVE",
"33 449 CURVE",
"87 432 LINE"
);
},
{
closed = 1;
nodes = (
"394 -6 OFFCURVE",
"494 75 OFFCURVE",
"494 206 CURVE SMOOTH",
"494 282 OFFCURVE",
"455 362 OFFCURVE",
"366 393 CURVE",
"331 346 LINE",
"410 316 OFFCURVE",
"431 260 OFFCURVE",
"431 207 CURVE SMOOTH",
"431 111 OFFCURVE",
"357 55 OFFCURVE",
"276 55 CURVE SMOOTH",
"183 55 OFFCURVE",
"86 119 OFFCURVE",
"86 270 CURVE SMOOTH",
"86 344 LINE",
"30 344 LINE",
"30 256 LINE SMOOTH",
"30 80 OFFCURVE",
"150 -6 OFFCURVE",
"274 -6 CURVE SMOOTH"
);
},
{
closed = 1;
nodes = (
"755 59 LINE",
"659 59 OFFCURVE",
"607 123 OFFCURVE",
"607 184 CURVE SMOOTH",
"607 277 OFFCURVE",
"656 298 OFFCURVE",
"772 298 CURVE SMOOTH",
"828 298 LINE",
"828 348 LINE SMOOTH",
"828 508 OFFCURVE",
"680 584 OFFCURVE",
"534 584 CURVE SMOOTH",
"437 584 OFFCURVE",
"341 550 OFFCURVE",
"292 484 CURVE SMOOTH",
"263 445 OFFCURVE",
"232 403 OFFCURVE",
"200 360 CURVE SMOOTH",
"175 327 OFFCURVE",
"122 266 OFFCURVE",
"81 266 CURVE SMOOTH",
"65 266 LINE",
"65 203 LINE",
"84 203 LINE SMOOTH",
"149 205 OFFCURVE",
"206 270 OFFCURVE",
"256 335 CURVE SMOOTH",
"334 438 LINE SMOOTH",
"376 495 OFFCURVE",
"453 524 OFFCURVE",
"531 524 CURVE SMOOTH",
"643 524 OFFCURVE",
"758 469 OFFCURVE",
"765 354 CURVE",
"627 349 OFFCURVE",
"547 317 OFFCURVE",
"547 183 CURVE SMOOTH",
"547 86 OFFCURVE",
"635 -1 OFFCURVE",
"755 -1 CURVE"
);
},
{
closed = 1;
nodes = (
"970 -1 OFFCURVE",
"1038 83 OFFCURVE",
"1038 243 CURVE SMOOTH",
"1038 515 LINE SMOOTH",
"1038 677 OFFCURVE",
"965 755 OFFCURVE",
"811 755 CURVE",
"811 695 LINE",
"917 695 OFFCURVE",
"978 645 OFFCURVE",
"978 511 CURVE SMOOTH",
"978 243 LINE SMOOTH",
"978 106 OFFCURVE",
"910 59 OFFCURVE",
"811 59 CURVE",
"811 -1 LINE"
);
},
{
closed = 1;
nodes = (
"654 667 OFFCURVE",
"706 695 OFFCURVE",
"755 695 CURVE",
"755 755 LINE",
"683 755 OFFCURVE",
"604 711 OFFCURVE",
"567 645 CURVE",
"627 625 LINE"
);
}
);
width = 1068;
}
);
userData = {
com.fontlab.hintData = {
hhints = (
{
position = -5;
width = 140;
},
{
position = 399;
width = 102;
},
{
position = 616;
width = 138;
}
);
vhints = (
{
position = 33;
width = 138;
},
{
position = 398;
width = 140;
}
);
};
};
},
{
glyphname = sinNTha;
lastChange = "2021-09-08 06:00:46 +0000";
layers = (
{
layerId = "906FCD19-247B-4D81-AD63-2BEA4CF1C003";
paths = (
{
closed = 1;
nodes = (
"84 203 LINE SMOOTH",
"149 203 OFFCURVE",
"206 270 OFFCURVE",
"256 335 CURVE SMOOTH",
"334 438 LINE SMOOTH",
"381 500 OFFCURVE",
"447 526 OFFCURVE",
"515 526 CURVE SMOOTH",
"607 526 OFFCURVE",
"689 478 OFFCURVE",
"708 401 CURVE",
"767 405 LINE",
"747 522 OFFCURVE",
"635 587 OFFCURVE",
"516 587 CURVE SMOOTH",
"431 587 OFFCURVE",
"344 554 OFFCURVE",
"292 484 CURVE SMOOTH",
"200 360 LINE SMOOTH",
"175 326 OFFCURVE",
"122 266 OFFCURVE",
"81 266 CURVE SMOOTH",
"65 266 LINE",
"65 203 LINE"
);
},
{
closed = 1;
nodes = (
"394 -6 OFFCURVE",
"494 75 OFFCURVE",
"494 206 CURVE SMOOTH",
"494 282 OFFCURVE",
"455 362 OFFCURVE",
"366 393 CURVE",
"331 346 LINE",
"410 316 OFFCURVE",
"431 260 OFFCURVE",
"431 207 CURVE SMOOTH",
"431 111 OFFCURVE",
"358 55 OFFCURVE",
"273 55 CURVE SMOOTH",
"170 55 OFFCURVE",
"86 137 OFFCURVE",
"86 270 CURVE SMOOTH",
"86 344 LINE",
"30 344 LINE",
"30 256 LINE SMOOTH",
"30 80 OFFCURVE",
"150 -6 OFFCURVE",
"274 -6 CURVE SMOOTH"
);
},
{
closed = 1;
nodes = (
"106 483 OFFCURVE",
"145 506 OFFCURVE",
"184 506 CURVE SMOOTH",
"228 506 OFFCURVE",
"270 480 OFFCURVE",
"281 436 CURVE",
"322 480 LINE",
"310 526 OFFCURVE",
"250 565 OFFCURVE",
"185 565 CURVE SMOOTH",
"127 565 OFFCURVE",
"60 534 OFFCURVE",
"33 449 CURVE",
"87 432 LINE"
);
},
{
closed = 1;
nodes = (
"755 60 LINE",
"664 60 OFFCURVE",
"609 122 OFFCURVE",
"609 203 CURVE SMOOTH",
"609 263 LINE SMOOTH",
"609 342 OFFCURVE",
"652 406 OFFCURVE",
"759 405 CURVE SMOOTH",
"754 405 LINE",
"746 455 LINE",
"593 455 OFFCURVE",
"549 349 OFFCURVE",
"549 267 CURVE SMOOTH",
"549 198 LINE SMOOTH",
"549 113 OFFCURVE",
"607 -1 OFFCURVE",
"755 -1 CURVE"
);
},
{
closed = 1;
nodes = (
"969 -1 OFFCURVE",
"1036 83 OFFCURVE",
"1036 243 CURVE",
"975 243 LINE",
"975 107 OFFCURVE",
"909 60 OFFCURVE",
"811 60 CURVE",
"811 -1 LINE"
);
},
{
closed = 1;
nodes = (
"752 755 LINE",
"752 631 LINE SMOOTH",
"752 537 OFFCURVE",
"804 459 OFFCURVE",
"924 459 CURVE",
"924 513 LINE",
"863 513 OFFCURVE",
"808 546 OFFCURVE",
"808 632 CURVE SMOOTH",
"808 698 LINE",
"812 698 LINE SMOOTH",
"934 698 OFFCURVE",
"975 632 OFFCURVE",
"975 500 CURVE SMOOTH",
"975 238 LINE",
"1036 238 LINE",
"1036 517 LINE SMOOTH",
"1036 700 OFFCURVE",
"939 755 OFFCURVE",
"808 755 CURVE SMOOTH"
);
}
);
width = 1064;
}
);
userData = {
com.fontlab.hintData = {
hhints = (
{
position = -8;
width = 135;
},
{
position = -5;
width = 145;
},
{
position = 446;
width = 121;
},
{
position = 454;
width = 86;
},
{
position = 616;
width = 139;
}
);
vhints = (
{
position = 30;
width = 118;
},
{
position = 125;
width = 23;
},
{
position = 547;
width = 138;
},
{
position = 733;
width = 80;
},
{
position = 908;
width = 140;
}
);
};
};
},
{
glyphname = sinGDha;
lastChange = "2021-09-08 06:00:46 +0000";
layers = (
{
layerId = "906FCD19-247B-4D81-AD63-2BEA4CF1C003";
paths = (
{
closed = 1;
nodes = (
"30 212 LINE SMOOTH",
"30 80 OFFCURVE",
"95 -8 OFFCURVE",
"218 -8 CURVE",
"218 53 LINE",
"134 53 OFFCURVE",
"90 113 OFFCURVE",
"90 212 CURVE SMOOTH",
"90 342 LINE SMOOTH",
"90 442 OFFCURVE",
"132 503 OFFCURVE",
"218 503 CURVE",
"218 564 LINE",
"95 564 OFFCURVE",
"30 476 OFFCURVE",
"30 344 CURVE SMOOTH"
);
},
{
closed = 1;
nodes = (
"387 87 OFFCURVE",
"349 53 OFFCURVE",
"274 53 CURVE",
"274 -8 LINE",
"378 -8 OFFCURVE",
"443 43 OFFCURVE",
"443 149 CURVE SMOOTH",
"443 174 LINE SMOOTH",
"443 251 OFFCURVE",
"408 318 OFFCURVE",
"319 318 CURVE SMOOTH",
"269 318 LINE",
"269 265 LINE",
"301 265 LINE SMOOTH",
"380 265 OFFCURVE",
"387 201 OFFCURVE",
"387 159 CURVE SMOOTH"
);
},
{
closed = 1;
nodes = (
"381 574 OFFCURVE",
"252 508 OFFCURVE",
"252 358 CURVE SMOOTH",
"252 265 LINE",
"313 265 LINE",
"313 361 LINE SMOOTH",
"313 466 OFFCURVE",
"409 512 OFFCURVE",
"499 512 CURVE SMOOTH",
"573 512 OFFCURVE",
"645 481 OFFCURVE",
"653 424 CURVE",
"723 419 LINE",
"712 519 OFFCURVE",
"610 574 OFFCURVE",
"501 574 CURVE SMOOTH"
);
},
{
closed = 1;
nodes = (
"500 138 LINE SMOOTH",
"500 53 OFFCURVE",
"562 -2 OFFCURVE",
"648 -2 CURVE SMOOTH",
"697 -2 OFFCURVE",
"738 17 OFFCURVE",
"762 53 CURVE",
"787 17 OFFCURVE",
"830 -2 OFFCURVE",
"878 -2 CURVE SMOOTH",
"963 -2 OFFCURVE",
"1023 53 OFFCURVE",
"1023 138 CURVE SMOOTH",
"1023 202 LINE",
"961 202 LINE",
"961 144 LINE SMOOTH",
"961 114 OFFCURVE",
"941 58 OFFCURVE",
"874 58 CURVE SMOOTH",
"808 58 OFFCURVE",
"788 114 OFFCURVE",
"788 144 CURVE SMOOTH",
"788 194 LINE",
"735 194 LINE",
"735 144 LINE SMOOTH",
"735 114 OFFCURVE",
"715 58 OFFCURVE",
"649 58 CURVE SMOOTH",
"582 58 OFFCURVE",
"562 114 OFFCURVE",
"562 144 CURVE SMOOTH",
"562 293 LINE SMOOTH",
"562 333 OFFCURVE",
"579 419 OFFCURVE",
"687 419 CURVE SMOOTH",
"723 419 LINE",
"686 477 LINE",
"664 474 LINE SMOOTH",
"540 466 OFFCURVE",
"500 375 OFFCURVE",
"500 298 CURVE SMOOTH"
);
},
{
closed = 1;
nodes = (
"961 202 LINE",
"1023 202 LINE",
"1023 515 LINE SMOOTH",
"1023 681 OFFCURVE",
"948 755 OFFCURVE",
"789 755 CURVE",
"789 695 LINE",
"900 695 OFFCURVE",
"961 649 OFFCURVE",
"961 511 CURVE SMOOTH"
);
},
{
closed = 1;
nodes = (
"619 674 OFFCURVE",
"671 695 OFFCURVE",
"733 695 CURVE",
"733 755 LINE",
"650 755 OFFCURVE",
"572 721 OFFCURVE",
"530 643 CURVE",
"588 622 LINE"
);
}
);
width = 1054;
}
);
userData = {
com.fontlab.hintData = {
hhints = (
{
position = -8;
width = 140;
},
{
position = 200;
width = 2;
},
{
position = 241;
width = 106;
},
{
position = 616;
width = 138;
}
);
vhints = (
{
position = 30;
width = 141;
},
{
position = 337;
width = 124;
},
{
position = 506;
width = 138;
},
{
position = 721;
width = 100;
},
{
position = 898;
width = 141;
}
);
};
};
},
{
glyphname = sinDVa;
lastChange = "2021-09-08 06:26:18 +0000";
layers = (
{
components = (
{
alignment = -1;
name = sinVa;
transform = "{1, 0, 0, 1, 147, 0}";
}
);
layerId = "906FCD19-247B-4D81-AD63-2BEA4CF1C003";
paths = (
{
closed = 1;
nodes = (
"153 9 LINE",
"94 81 OFFCURVE",
"89 120 OFFCURVE",
"89 201 CURVE SMOOTH",
"89 250 LINE SMOOTH",
"89 330 OFFCURVE",
"114 399 OFFCURVE",
"185 399 CURVE SMOOTH",
"198 399 OFFCURVE",
"214 396 OFFCURVE",
"239 389 CURVE",
"239 443 LINE",
"219 451 OFFCURVE",
"198 454 OFFCURVE",
"179 454 CURVE SMOOTH",
"98 454 OFFCURVE",
"30 392 OFFCURVE",
"30 250 CURVE SMOOTH",
"30 201 LINE SMOOTH",
"30 110 OFFCURVE",
"36 63 OFFCURVE",
"94 -12 CURVE"
);
}
);
width = 751;
}
);
userData = {
com.fontlab.hintData = {
hhints = (
{
position = 0;
width = 40;
},
{
position = 309;
width = 40;
},
{
position = 715;
width = 40;
}
);
vhints = (
{
position = 30;
width = 40;
},
{
position = 169;
width = 40;
},
{
position = 410;
width = 40;
},
{
position = 616;
width = 41;
}
);
};
};
},
{
glyphname = sinDDha;
lastChange = "2021-09-08 06:00:46 +0000";
layers = (
{
components = (
{
alignment = -1;
name = sinDha;
transform = "{1, 0, 0, 1, 151, 0}";
}
);
layerId = "906FCD19-247B-4D81-AD63-2BEA4CF1C003";
paths = (
{
closed = 1;
nodes = (
"145 9 LINE",
"91 83 OFFCURVE",
"89 125 OFFCURVE",
"89 201 CURVE SMOOTH",
"89 286 LINE SMOOTH",
"89 373 OFFCURVE",
"129 419 OFFCURVE",
"235 419 CURVE SMOOTH",
"401 419 LINE",
"401 479 LINE",
"243 479 LINE SMOOTH",
"135 479 OFFCURVE",
"30 445 OFFCURVE",
"30 286 CURVE SMOOTH",
"30 207 LINE SMOOTH",
"30 116 OFFCURVE",
"33 65 OFFCURVE",
"86 -12 CURVE"
);
}
);
width = 734;
}
);
},
{
glyphname = sinTtTtha;
lastChange = "2021-09-08 06:00:46 +0000";
layers = (
{
components = (
{
alignment = -1;
name = sinTtha;
transform = "{1, 0, 0, 1, 141, 0}";
}
);
layerId = "906FCD19-247B-4D81-AD63-2BEA4CF1C003";
paths = (
{
closed = 1;
nodes = (
"145 9 LINE",
"91 83 OFFCURVE",
"89 125 OFFCURVE",
"89 201 CURVE SMOOTH",
"89 286 LINE SMOOTH",
"89 373 OFFCURVE",
"129 419 OFFCURVE",
"235 419 CURVE SMOOTH",
"401 419 LINE",
"401 479 LINE",
"243 479 LINE SMOOTH",
"135 479 OFFCURVE",
"30 445 OFFCURVE",
"30 286 CURVE SMOOTH",
"30 207 LINE SMOOTH",
"30 116 OFFCURVE",
"33 65 OFFCURVE",
"86 -12 CURVE"
);
}
);
width = 734;
}
);
},
{
glyphname = sinMatraAae;
lastChange = "2021-09-08 06:00:46 +0000";
layers = (
{
layerId = "906FCD19-247B-4D81-AD63-2BEA4CF1C003";
paths = (
{
closed = 1;
nodes = (
"231 0 LINE",
"231 61 LINE",
"201 61 LINE SMOOTH",
"99 61 OFFCURVE",
"90 119 OFFCURVE",
"90 158 CURVE SMOOTH",
"90 204 LINE SMOOTH",
"90 249 OFFCURVE",
"93 270 OFFCURVE",
"231 367 CURVE",
"231 421 LINE",
"105 421 LINE",
"231 520 LINE",
"231 574 LINE",
"30 574 LINE",
"30 520 LINE",
"155 520 LINE",
"30 421 LINE",
"30 367 LINE",
"149 367 LINE",
"48 296 OFFCURVE",
"30 262 OFFCURVE",
"30 193 CURVE SMOOTH",
"30 149 LINE SMOOTH",
"30 36 OFFCURVE",
"103 0 OFFCURVE",
"202 0 CURVE SMOOTH"
);
}
);
width = 261;
}
);
unicode = 0DD1;
category = Mark;
subCategory = Spacing;
userData = {
com.fontlab.hintData = {
hhints = (
{
position = 0;
width = 40;
},
{
position = 383;
width = 40;
},
{
position = 534;
width = 40;
}
);
vhints = (
{
position = 50;
width = 40;
}
);
};
};
},
{
glyphname = sinMatraAe;
lastChange = "2021-09-08 06:35:43 +0000";
layers = (
{
layerId = "906FCD19-247B-4D81-AD63-2BEA4CF1C003";
paths = (
{
closed = 1;
nodes = (
"243 0 LINE",
"243 61 LINE",
"227 61 LINE SMOOTH",
"110 61 OFFCURVE",
"100 138 OFFCURVE",
"100 187 CURVE SMOOTH",
"100 285 LINE SMOOTH",
"100 365 OFFCURVE",
"107 395 OFFCURVE",
"243 515 CURVE",
"243 574 LINE",
"41 574 LINE",
"41 515 LINE",
"165 515 LINE",
"59 420 OFFCURVE",
"40 386 OFFCURVE",
"40 281 CURVE SMOOTH",
"40 182 LINE SMOOTH",
"40 54 OFFCURVE",
"115 0 OFFCURVE",
"230 0 CURVE SMOOTH"
);
}
);
width = 283;
}
);
unicode = 0DD0;
category = Mark;
subCategory = Spacing;
userData = {
com.fontlab.hintData = {
hhints = (
{
position = 0;
width = 40;
},
{
position = 534;
width = 40;
}
);
vhints = (
{
position = 30;
width = 40;
}
);
};
};
},
{
glyphname = sinMatraE;
lastChange = "2021-09-08 06:32:58 +0000";
layers = (
{
layerId = "906FCD19-247B-4D81-AD63-2BEA4CF1C003";
paths = (
{
closed = 1;
nodes = (
"229 -5 LINE",
"229 53 LINE",
"115 53 OFFCURVE",
"89 111 OFFCURVE",
"89 198 CURVE SMOOTH",
"89 371 LINE SMOOTH",
"89 442 OFFCURVE",
"118 506 OFFCURVE",
"211 506 CURVE SMOOTH",
"249 506 LINE",
"249 564 LINE",
"208 564 LINE SMOOTH",
"63 564 OFFCURVE",
"30 449 OFFCURVE",
"30 371 CURVE SMOOTH",
"30 198 LINE SMOOTH",
"30 140 OFFCURVE",
"43 -5 OFFCURVE",
"208 -5 CURVE SMOOTH"
);
},
{
closed = 1;
nodes = (
"250 -5 LINE SMOOTH",
"372 -5 OFFCURVE",
"427 70 OFFCURVE",
"427 157 CURVE SMOOTH",
"427 235 LINE SMOOTH",
"427 315 OFFCURVE",
"379 354 OFFCURVE",
"310 354 CURVE SMOOTH",
"243 354 LINE",
"233 296 LINE",
"296 296 LINE SMOOTH",
"333 296 OFFCURVE",
"368 273 OFFCURVE",
"368 222 CURVE SMOOTH",
"368 156 LINE SMOOTH",
"368 92 OFFCURVE",
"336 53 OFFCURVE",
"227 53 CURVE",
"227 -5 LINE"
);
},
{
closed = 1;
nodes = (
"424 431 LINE",
"417 487 OFFCURVE",
"367 564 OFFCURVE",
"270 564 CURVE SMOOTH",
"249 564 LINE",
"249 506 LINE",
"350 506 OFFCURVE",
"364 439 OFFCURVE",
"367 417 CURVE"
);
}
);
width = 457;
}
);
unicode = 0DD9;
category = Mark;
subCategory = Spacing;
userData = {
com.fontlab.hintData = {
hhints = (
{
position = -5;
width = 40;
},
{
position = 314;
width = 40;
},
{
position = 524;
width = 40;
}
);
vhints = (
{
position = 30;
width = 40;
},
{
position = 387;
width = 40;
}
);
};
};
},
{
glyphname = sinMatraI;
lastChange = "2021-09-08 06:00:46 +0000";
layers = (
{
layerId = "906FCD19-247B-4D81-AD63-2BEA4CF1C003";
paths = (
{
closed = 1;
nodes = (
"-524 602 LINE",
"-524 654 OFFCURVE",
"-510 731 OFFCURVE",
"-390 731 CURVE SMOOTH",
"-251 731 LINE SMOOTH",
"-131 731 OFFCURVE",
"-117 654 OFFCURVE",
"-117 602 CURVE",
"-59 602 LINE",
"-59 630 LINE SMOOTH",
"-59 723 OFFCURVE",
"-135 789 OFFCURVE",
"-235 789 CURVE SMOOTH",
"-406 789 LINE SMOOTH",
"-506 789 OFFCURVE",
"-582 723 OFFCURVE",
"-582 630 CURVE SMOOTH",
"-582 602 LINE"
);
}
);
width = 0;
}
);
unicode = 0DD2;
},
{
glyphname = sinMatraIi;
lastChange = "2021-09-16 09:58:09 +0000";
layers = (
{
layerId = "906FCD19-247B-4D81-AD63-2BEA4CF1C003";
paths = (
{
closed = 1;
nodes = (
"-521 712 OFFCURVE",
"-485 767 OFFCURVE",
"-375 767 CURVE SMOOTH",
"-282 767 LINE",
"-282 825 LINE",
"-389 825 LINE SMOOTH",
"-524 825 OFFCURVE",
"-583 741 OFFCURVE",
"-583 649 CURVE SMOOTH",
"-583 608 OFFCURVE",
"-573 568 OFFCURVE",
"-543 527 CURVE",
"-481 527 LINE",
"-511 567 OFFCURVE",
"-521 608 OFFCURVE",
"-521 648 CURVE SMOOTH"
);
},
{
closed = 1;
nodes = (
"-297 825 LINE",
"-297 767 LINE",
"-232 767 LINE SMOOTH",
"-154 767 OFFCURVE",
"-111 738 OFFCURVE",
"-111 678 CURVE SMOOTH",
"-111 638 OFFCURVE",
"-138 608 OFFCURVE",
"-175 608 CURVE SMOOTH",
"-214 608 OFFCURVE",
"-243 637 OFFCURVE",
"-243 700 CURVE SMOOTH",
"-243 776 LINE",
"-297 776 LINE",
"-297 697 LINE SMOOTH",
"-297 605 OFFCURVE",
"-245 552 OFFCURVE",
"-171 553 CURVE SMOOTH",
"-105 554 OFFCURVE",
"-56 607 OFFCURVE",
"-56 679 CURVE SMOOTH",
"-56 776 OFFCURVE",
"-117 825 OFFCURVE",
"-246 825 CURVE SMOOTH"
);
}
);
width = 0;
}
);
unicode = 0DD3;
},
{
glyphname = sinMatraLs;
lastChange = "2021-09-08 06:00:46 +0000";
layers = (
{
layerId = "906FCD19-247B-4D81-AD63-2BEA4CF1C003";
paths = (
{
closed = 1;
nodes = (
"273 -8 OFFCURVE",
"359 46 OFFCURVE",
"359 152 CURVE SMOOTH",
"359 459 LINE SMOOTH",
"359 530 OFFCURVE",
"308 567 OFFCURVE",
"257 567 CURVE SMOOTH",
"208 567 OFFCURVE",
"159 533 OFFCURVE",
"159 464 CURVE SMOOTH",
"159 419 LINE SMOOTH",
"159 386 OFFCURVE",
"135 370 OFFCURVE",
"112 370 CURVE SMOOTH",
"88 370 OFFCURVE",
"64 386 OFFCURVE",
"64 419 CURVE SMOOTH",
"64 564 LINE",
"14 564 LINE",
"14 412 LINE SMOOTH",
"14 342 OFFCURVE",
"63 308 OFFCURVE",
"112 308 CURVE SMOOTH",
"159 308 OFFCURVE",
"207 341 OFFCURVE",
"207 406 CURVE SMOOTH",
"207 457 LINE SMOOTH",
"207 490 OFFCURVE",
"231 507 OFFCURVE",
"254 507 CURVE SMOOTH",
"278 507 OFFCURVE",
"301 490 OFFCURVE",
"301 457 CURVE SMOOTH",
"301 152 LINE SMOOTH",
"301 84 OFFCURVE",
"245 52 OFFCURVE",
"188 52 CURVE SMOOTH",
"130 52 OFFCURVE",
"71 86 OFFCURVE",
"71 152 CURVE SMOOTH",
"71 202 LINE",
"14 202 LINE",
"14 152 LINE SMOOTH",
"14 46 OFFCURVE",
"101 -8 OFFCURVE",
"186 -8 CURVE SMOOTH"
);
}
);
width = 389;
}
);
unicode = 0DDF;
category = Mark;
subCategory = Spacing;
userData = {
com.fontlab.hintData = {
vhints = (
{
position = 116;
width = 141;
}
);
};
};
},
{
glyphname = sinMatraR;
lastChange = "2021-09-08 06:00:46 +0000";
layers = (
{
layerId = "906FCD19-247B-4D81-AD63-2BEA4CF1C003";
paths = (
{
closed = 1;
nodes = (
"230 0 OFFCURVE",
"295 60 OFFCURVE",
"295 141 CURVE SMOOTH",
"295 399 LINE SMOOTH",
"295 498 OFFCURVE",
"252 566 OFFCURVE",
"162 566 CURVE SMOOTH",
"70 566 LINE",
"70 508 LINE",
"160 508 LINE SMOOTH",
"212 508 OFFCURVE",
"239 464 OFFCURVE",
"239 396 CURVE SMOOTH",
"239 142 LINE SMOOTH",
"239 94 OFFCURVE",
"201 56 OFFCURVE",
"154 56 CURVE SMOOTH",
"108 56 OFFCURVE",
"68 94 OFFCURVE",
"68 142 CURVE SMOOTH",
"68 188 OFFCURVE",
"106 226 OFFCURVE",
"153 226 CURVE SMOOTH",
"187 226 LINE",
"187 281 LINE",
"153 281 LINE SMOOTH",
"71 281 OFFCURVE",
"13 217 OFFCURVE",
"13 141 CURVE SMOOTH",
"13 60 OFFCURVE",
"79 0 OFFCURVE",
"154 0 CURVE SMOOTH"
);
}
);
width = 326;
}
);
unicode = 0DD8;
category = Mark;
subCategory = Spacing;
},
{
glyphname = sinMatraU;
lastChange = "2021-09-13 13:25:46 +0000";
layers = (
{
layerId = "906FCD19-247B-4D81-AD63-2BEA4CF1C003";
paths = (
{
closed = 1;
nodes = (
"-54 -205 LINE",
"-54 131 LINE",
"-114 131 LINE",
"-114 -205 LINE"
);
},
{
closed = 1;
nodes = (
"-320 -205 LINE",
"-320 -145 LINE",
"-502 -145 LINE",
"-502 -205 LINE"
);
},
{
closed = 1;
nodes = (
"-104 -205 LINE",
"-104 -145 LINE",
"-334 -145 LINE",
"-334 -205 LINE"
);
}
);
width = 0;
}
);
unicode = 0DD4;
userData = {
com.fontlab.hintData = {
hhints = (
{
position = -197;
width = 140;
}
);
vhints = (
{
position = -468;
width = 172;
}
);
};
};
},
{
glyphname = sinMatraUu;
lastChange = "2021-09-08 06:00:46 +0000";
layers = (
{
layerId = "906FCD19-247B-4D81-AD63-2BEA4CF1C003";
paths = (
{
closed = 1;
nodes = (
"-54 -205 LINE",
"-54 123 LINE",
"-114 123 LINE",
"-114 -205 LINE"
);
},
{
closed = 1;
nodes = (
"-114 -141 LINE",
"-190 -103 OFFCURVE",
"-250 -106 OFFCURVE",
"-260 -106 CURVE",
"-260 -168 LINE",
"-243 -168 OFFCURVE",
"-190 -165 OFFCURVE",
"-114 -205 CURVE"
);
},
{
closed = 1;
nodes = (
"-394 -200 OFFCURVE",
"-363 -168 OFFCURVE",
"-316 -168 CURVE",
"-316 -106 LINE",
"-363 -106 OFFCURVE",
"-394 -139 OFFCURVE",
"-435 -139 CURVE SMOOTH",
"-456 -139 OFFCURVE",
"-480 -131 OFFCURVE",
"-510 -105 CURVE",
"-510 -167 LINE",
"-481 -192 OFFCURVE",
"-457 -200 OFFCURVE",
"-436 -200 CURVE SMOOTH"
);
}
);
width = 0;
}
);
unicode = 0DD6;
userData = {
com.fontlab.hintData = {
hhints = (
{
position = -199;
width = 41;
},
{
position = -164;
width = 42;
}
);
};
};
},
{
glyphname = sinMatraU.sub;
lastChange = "2021-09-08 06:00:46 +0000";
layers = (
{
layerId = "906FCD19-247B-4D81-AD63-2BEA4CF1C003";
paths = (
{
closed = 1;
nodes = (
"164 -278 LINE",
"164 -230 LINE",
"153 -230 LINE SMOOTH",
"80 -230 OFFCURVE",
"66 -181 OFFCURVE",
"66 -148 CURVE SMOOTH",
"66 -79 LINE SMOOTH",
"66 -27 OFFCURVE",
"68 -6 OFFCURVE",
"164 80 CURVE",
"164 124 LINE",
"22 124 LINE",
"22 80 LINE",
"107 80 LINE",
"35 14 OFFCURVE",
"19 -8 OFFCURVE",
"19 -82 CURVE SMOOTH",
"19 -151 LINE SMOOTH",
"19 -241 OFFCURVE",
"75 -278 OFFCURVE",
"155 -278 CURVE SMOOTH"
);
}
);
width = 172;
}
);
category = Mark;
subCategory = Spacing;
},
{
glyphname = sinMatraUu.sub;
lastChange = "2021-09-08 06:00:46 +0000";
layers = (
{
layerId = "906FCD19-247B-4D81-AD63-2BEA4CF1C003";
paths = (
{
closed = 1;
nodes = (
"161 -284 LINE",
"161 -240 LINE",
"141 -240 LINE SMOOTH",
"71 -240 OFFCURVE",
"63 -197 OFFCURVE",
"63 -174 CURVE SMOOTH",
"63 -142 LINE SMOOTH",
"63 -111 OFFCURVE",
"66 -90 OFFCURVE",
"161 -29 CURVE",
"161 12 LINE",
"77 12 LINE",
"161 82 LINE",
"161 120 LINE",
"22 120 LINE",
"22 82 LINE",
"110 82 LINE",
"22 10 LINE",
"22 -26 LINE",
"106 -26 LINE",
"29 -75 OFFCURVE",
"16 -105 OFFCURVE",
"16 -144 CURVE SMOOTH",
"16 -175 LINE SMOOTH",
"16 -259 OFFCURVE",
"73 -284 OFFCURVE",
"141 -284 CURVE SMOOTH"
);
}
);
width = 192;
}
);
category = Mark;
subCategory = Spacing;
},
{
glyphname = sinVirama;
lastChange = "2021-09-08 07:08:20 +0000";
layers = (
{
layerId = "906FCD19-247B-4D81-AD63-2BEA4CF1C003";
paths = (
{
closed = 1;
nodes = (
"89 619 LINE",
"89 859 LINE",
"30 859 LINE",
"30 619 LINE"
);
}
);
width = 119;
}
);
unicode = 0DCA;
userData = {
com.fontlab.hintData = {
hhints = (
{
position = 619;
width = 200;
}
);
vhints = (
{
position = 30;
width = 40;
}
);
};
};
},
{
glyphname = sinRakar;
lastChange = "2021-09-08 06:00:46 +0000";
layers = (
{
layerId = "906FCD19-247B-4D81-AD63-2BEA4CF1C003";
paths = (
{
closed = 1;
nodes = (
"-149 -227 OFFCURVE",
"-55 -162 OFFCURVE",
"-55 -47 CURVE SMOOTH",
"-55 14 OFFCURVE",
"-86 64 OFFCURVE",
"-157 86 CURVE",
"-179 37 LINE",
"-137 21 OFFCURVE",
"-115 -7 OFFCURVE",
"-115 -46 CURVE SMOOTH",
"-115 -113 OFFCURVE",
"-174 -169 OFFCURVE",
"-284 -169 CURVE",
"-284 -227 LINE"
);
},
{
closed = 1;
nodes = (
"-340 -168 LINE",
"-381 -168 OFFCURVE",
"-492 -144 OFFCURVE",
"-492 -48 CURVE",
"-550 -48 LINE",
"-550 -64 LINE SMOOTH",
"-550 -165 OFFCURVE",
"-443 -227 OFFCURVE",
"-340 -227 CURVE"
);
}
);
width = 0;
}
);
},
{
glyphname = sinReph;
lastChange = "2021-09-08 06:00:46 +0000";
layers = (
{
layerId = "906FCD19-247B-4D81-AD63-2BEA4CF1C003";
paths = (
{
closed = 1;
nodes = (
"223 627 OFFCURVE",
"249 684 OFFCURVE",
"249 740 CURVE",
"199 741 LINE",
"199 727 OFFCURVE",
"196 679 OFFCURVE",
"141 679 CURVE SMOOTH",
"101 679 OFFCURVE",
"78 709 OFFCURVE",
"78 742 CURVE SMOOTH",
"78 779 OFFCURVE",
"106 816 OFFCURVE",
"169 816 CURVE SMOOTH",
"232 816 LINE SMOOTH",
"267 816 OFFCURVE",
"325 806 OFFCURVE",
"325 740 CURVE SMOOTH",
"325 657 LINE",
"380 657 LINE",
"380 744 LINE SMOOTH",
"380 819 OFFCURVE",
"323 869 OFFCURVE",
"234 869 CURVE SMOOTH",
"169 869 LINE SMOOTH",
"74 869 OFFCURVE",
"26 808 OFFCURVE",
"26 743 CURVE SMOOTH",
"26 682 OFFCURVE",
"69 627 OFFCURVE",
"141 627 CURVE SMOOTH"
);
}
);
width = 406;
}
);
},
{
glyphname = sinAnusvara;
lastChange = "2021-09-18 05:27:22 +0000";
layers = (
{
layerId = "906FCD19-247B-4D81-AD63-2BEA4CF1C003";
paths = (
{
closed = 1;
nodes = (
"110 472 OFFCURVE",
"67 411 OFFCURVE",
"67 361 CURVE SMOOTH",
"67 206 LINE SMOOTH",
"67 157 OFFCURVE",
"101 96 OFFCURVE",
"202 96 CURVE SMOOTH",
"203 96 LINE SMOOTH",
"296 96 OFFCURVE",
"333 157 OFFCURVE",
"333 206 CURVE SMOOTH",
"333 361 LINE SMOOTH",
"333 411 OFFCURVE",
"290 472 OFFCURVE",
"205 472 CURVE SMOOTH"
);
},
{
closed = 1;
nodes = (
"279 188 OFFCURVE",
"261 152 OFFCURVE",
"202 152 CURVE SMOOTH",
"139 152 OFFCURVE",
"122 190 OFFCURVE",
"122 217 CURVE SMOOTH",
"122 351 LINE SMOOTH",
"122 380 OFFCURVE",
"145 416 OFFCURVE",
"205 416 CURVE SMOOTH",
"253 416 OFFCURVE",
"279 378 OFFCURVE",
"279 351 CURVE SMOOTH",
"279 215 LINE SMOOTH"
);
}
);
width = 400;
}
);
unicode = 0D82;
category = Letter;
},
{
glyphname = sinVisarga;
lastChange = "2021-09-08 06:00:46 +0000";
layers = (
{
layerId = "906FCD19-247B-4D81-AD63-2BEA4CF1C003";
paths = (
{
closed = 1;
nodes = (
"231 298 LINE SMOOTH",
"313 298 OFFCURVE",
"354 365 OFFCURVE",
"354 433 CURVE SMOOTH",
"354 500 OFFCURVE",
"313 568 OFFCURVE",
"231 568 CURVE SMOOTH",
"217 568 LINE",
"217 516 LINE",
"269 516 OFFCURVE",
"296 474 OFFCURVE",
"296 434 CURVE SMOOTH",
"296 392 OFFCURVE",
"270 351 OFFCURVE",
"217 351 CURVE",
"217 298 LINE"
);
},
{
closed = 1;
nodes = (
"167 -7 LINE",
"167 46 LINE",
"115 46 OFFCURVE",
"88 87 OFFCURVE",
"88 129 CURVE SMOOTH",
"88 169 OFFCURVE",
"115 211 OFFCURVE",
"167 211 CURVE",
"167 263 LINE",
"153 263 LINE SMOOTH",
"72 263 OFFCURVE",
"31 195 OFFCURVE",
"31 128 CURVE SMOOTH",
"31 60 OFFCURVE",
"72 -7 OFFCURVE",
"153 -7 CURVE SMOOTH"
);
},
{
closed = 1;
nodes = (
"231 -7 LINE SMOOTH",
"313 -7 OFFCURVE",
"354 60 OFFCURVE",
"354 128 CURVE SMOOTH",
"354 195 OFFCURVE",
"313 263 OFFCURVE",
"231 263 CURVE SMOOTH",
"217 263 LINE",
"217 211 LINE",
"269 211 OFFCURVE",
"296 169 OFFCURVE",
"296 129 CURVE SMOOTH",
"296 87 OFFCURVE",
"270 46 OFFCURVE",
"217 46 CURVE",
"217 -7 LINE"
);
},
{
closed = 1;
nodes = (
"167 298 LINE",
"167 351 LINE",
"115 351 OFFCURVE",
"88 392 OFFCURVE",
"88 434 CURVE SMOOTH",
"88 474 OFFCURVE",
"115 516 OFFCURVE",
"167 516 CURVE",
"167 568 LINE",
"153 568 LINE SMOOTH",
"72 568 OFFCURVE",
"31 500 OFFCURVE",
"31 433 CURVE SMOOTH",
"31 365 OFFCURVE",
"72 298 OFFCURVE",
"153 298 CURVE SMOOTH"
);
}
);
width = 385;
}
);
unicode = 0D83;
userData = {
com.fontlab.hintData = {
hhints = (
{
position = -7;
width = 40;
},
{
position = 223;
width = 40;
},
{
position = 298;
width = 40;
},
{
position = 528;
width = 40;
}
);
};
};
},
{
glyphname = sinMatraAa;
lastChange = "2021-09-08 06:34:17 +0000";
layers = (
{
layerId = "906FCD19-247B-4D81-AD63-2BEA4CF1C003";
paths = (
{
closed = 1;
nodes = (
"60 0 LINE SMOOTH",
"192 0 OFFCURVE",
"243 72 OFFCURVE",
"243 199 CURVE SMOOTH",
"243 367 LINE SMOOTH",
"243 494 OFFCURVE",
"192 566 OFFCURVE",
"60 566 CURVE SMOOTH",
"40 566 LINE",
"40 505 LINE",
"60 505 LINE SMOOTH",
"112 505 OFFCURVE",
"182 492 OFFCURVE",
"182 365 CURVE SMOOTH",
"182 199 LINE SMOOTH",
"182 73 OFFCURVE",
"112 61 OFFCURVE",
"60 61 CURVE SMOOTH",
"40 61 LINE",
"40 0 LINE"
);
}
);
width = 293;
}
);
unicode = 0DCF;
category = Mark;
subCategory = Spacing;
userData = {
com.fontlab.hintData = {
hhints = (
{
position = 0;
width = 40;
},
{
position = 534;
width = 40;
}
);
vhints = (
{
position = 189;
width = 41;
}
);
};
};
},
{
glyphname = sinKh;
lastChange = "2021-09-08 06:00:46 +0000";
layers = (
{
layerId = "906FCD19-247B-4D81-AD63-2BEA4CF1C003";
paths = (
{
closed = 1;
nodes = (
"326 -65 LINE",
"326 285 LINE SMOOTH",
"326 395 OFFCURVE",
"254 445 OFFCURVE",
"180 445 CURVE SMOOTH",
"103 445 OFFCURVE",
"30 391 OFFCURVE",
"30 282 CURVE SMOOTH",
"30 179 LINE SMOOTH",
"30 54 OFFCURVE",
"84 0 OFFCURVE",
"211 0 CURVE",
"211 60 LINE",
"132 60 OFFCURVE",
"89 85 OFFCURVE",
"89 182 CURVE SMOOTH",
"89 277 LINE SMOOTH",
"89 346 OFFCURVE",
"130 381 OFFCURVE",
"178 381 CURVE SMOOTH",
"227 381 OFFCURVE",
"266 344 OFFCURVE",
"266 277 CURVE SMOOTH",
"266 -65 LINE"
);
},
{
closed = 1;
nodes = (
"502 149 LINE SMOOTH",
"502 91 OFFCURVE",
"458 63 OFFCURVE",
"414 63 CURVE SMOOTH",
"370 63 OFFCURVE",
"326 91 OFFCURVE",
"326 149 CURVE SMOOTH",
"326 198 LINE",
"266 198 LINE",
"266 140 LINE SMOOTH",
"266 47 OFFCURVE",
"334 -5 OFFCURVE",
"414 -5 CURVE SMOOTH",
"492 -5 OFFCURVE",
"563 45 OFFCURVE",
"563 153 CURVE SMOOTH",
"563 421 LINE SMOOTH",
"563 572 OFFCURVE",
"497 656 OFFCURVE",
"333 656 CURVE",
"333 597 LINE",
"439 597 OFFCURVE",
"502 547 OFFCURVE",
"502 417 CURVE SMOOTH"
);
},
{
closed = 1;
nodes = (
"333 597 LINE",
"333 656 LINE",
"171 656 LINE SMOOTH",
"133 656 OFFCURVE",
"114 685 OFFCURVE",
"114 713 CURVE SMOOTH",
"114 741 OFFCURVE",
"132 770 OFFCURVE",
"172 770 CURVE SMOOTH",
"263 770 LINE",
"263 829 LINE",
"179 829 LINE SMOOTH",
"94 829 OFFCURVE",
"57 773 OFFCURVE",
"57 720 CURVE SMOOTH",
"57 683 OFFCURVE",
"76 649 OFFCURVE",
"108 634 CURVE",
"128 656 LINE",
"45 656 LINE",
"45 597 LINE"
);
},
{
closed = 1;
nodes = (
"541 679 LINE",
"541 778 OFFCURVE",
"492 829 OFFCURVE",
"400 829 CURVE SMOOTH",
"319 829 LINE",
"319 770 LINE",
"396 770 LINE SMOOTH",
"441 770 OFFCURVE",
"482 762 OFFCURVE",
"482 679 CURVE"
);
}
);
width = 593;
}
);
},
{
glyphname = sinNg;
lastChange = "2021-09-08 06:00:46 +0000";
layers = (
{
layerId = "906FCD19-247B-4D81-AD63-2BEA4CF1C003";
paths = (
{
closed = 1;
nodes = (
"227 -2 OFFCURVE",
"268 17 OFFCURVE",
"292 53 CURVE",
"317 17 OFFCURVE",
"360 -2 OFFCURVE",
"408 -2 CURVE SMOOTH",
"493 -2 OFFCURVE",
"553 53 OFFCURVE",
"553 138 CURVE SMOOTH",
"553 234 LINE",
"491 234 LINE",
"491 144 LINE SMOOTH",
"491 114 OFFCURVE",
"471 58 OFFCURVE",
"404 58 CURVE SMOOTH",
"338 58 OFFCURVE",
"318 114 OFFCURVE",
"318 144 CURVE SMOOTH",
"318 194 LINE",
"264 194 LINE",
"264 144 LINE SMOOTH",
"264 114 OFFCURVE",
"244 58 OFFCURVE",
"178 58 CURVE SMOOTH",
"111 58 OFFCURVE",
"91 114 OFFCURVE",
"91 144 CURVE SMOOTH",
"91 226 LINE SMOOTH",
"91 272 OFFCURVE",
"104 298 OFFCURVE",
"209 298 CURVE SMOOTH",
"254 298 LINE SMOOTH",
"321 298 OFFCURVE",
"356 348 OFFCURVE",
"356 398 CURVE SMOOTH",
"356 447 OFFCURVE",
"322 496 OFFCURVE",
"254 496 CURVE SMOOTH",
"173 496 LINE SMOOTH",
"93 496 OFFCURVE",
"53 458 OFFCURVE",
"53 397 CURVE",
"105 397 LINE",
"105 408 OFFCURVE",
"108 444 OFFCURVE",
"174 444 CURVE SMOOTH",
"255 444 LINE SMOOTH",
"288 444 OFFCURVE",
"304 421 OFFCURVE",
"304 399 CURVE SMOOTH",
"304 375 OFFCURVE",
"287 350 OFFCURVE",
"253 350 CURVE SMOOTH",
"162 350 LINE SMOOTH",
"62 350 OFFCURVE",
"30 302 OFFCURVE",
"30 221 CURVE SMOOTH",
"30 138 LINE SMOOTH",
"30 53 OFFCURVE",
"92 -2 OFFCURVE",
"178 -2 CURVE SMOOTH"
);
},
{
closed = 1;
nodes = (
"553 234 LINE",
"553 424 LINE SMOOTH",
"553 574 OFFCURVE",
"482 656 OFFCURVE",
"324 656 CURVE",
"324 597 LINE",
"427 597 OFFCURVE",
"491 548 OFFCURVE",
"491 420 CURVE SMOOTH",
"491 234 LINE"
);
},
{
closed = 1;
nodes = (
"324 597 LINE",
"324 656 LINE",
"167 656 LINE SMOOTH",
"130 656 OFFCURVE",
"110 684 OFFCURVE",
"110 713 CURVE SMOOTH",
"110 742 OFFCURVE",
"130 770 OFFCURVE",
"168 770 CURVE SMOOTH",
"259 770 LINE",
"259 829 LINE",
"175 829 LINE SMOOTH",
"96 829 OFFCURVE",
"53 777 OFFCURVE",
"53 721 CURVE SMOOTH",
"53 683 OFFCURVE",
"71 649 OFFCURVE",
"104 634 CURVE",
"124 656 LINE",
"40 656 LINE",
"40 597 LINE"
);
},
{
closed = 1;
nodes = (
"538 679 LINE",
"538 784 OFFCURVE",
"483 829 OFFCURVE",
"397 829 CURVE SMOOTH",
"315 829 LINE",
"315 770 LINE",
"393 770 LINE SMOOTH",
"439 770 OFFCURVE",
"479 762 OFFCURVE",
"479 679 CURVE"
);
}
);
width = 583;
}
);
userData = {
com.fontlab.hintData = {
hhints = (
{
position = -8;
width = 140;
},
{
position = 200;
width = 2;
},
{
position = 251;
width = 100;
},
{
position = 397;
width = 100;
},
{
position = 616;
width = 138;
}
);
vhints = (
{
position = 30;
width = 138;
},
{
position = 245;
width = 100;
},
{
position = 287;
width = 105;
},
{
position = 422;
width = 141;
}
);
};
};
},
{
glyphname = sinC;
lastChange = "2021-09-08 06:00:46 +0000";
layers = (
{
layerId = "906FCD19-247B-4D81-AD63-2BEA4CF1C003";
paths = (
{
closed = 1;
nodes = (
"280 59 LINE",
"177 59 OFFCURVE",
"134 128 OFFCURVE",
"134 192 CURVE SMOOTH",
"134 246 OFFCURVE",
"166 298 OFFCURVE",
"220 298 CURVE SMOOTH",
"338 298 LINE",
"338 353 LINE SMOOTH",
"338 434 OFFCURVE",
"280 484 OFFCURVE",
"201 484 CURVE SMOOTH",
"149 484 OFFCURVE",
"91 460 OFFCURVE",
"75 400 CURVE",
"126 386 LINE",
"138 416 OFFCURVE",
"169 430 OFFCURVE",
"200 430 CURVE SMOOTH",
"243 430 OFFCURVE",
"285 403 OFFCURVE",
"285 350 CURVE",
"30 350 LINE",
"30 298 LINE",
"108 298 LINE",
"84 270 OFFCURVE",
"72 231 OFFCURVE",
"72 192 CURVE SMOOTH",
"72 96 OFFCURVE",
"140 -1 OFFCURVE",
"280 -1 CURVE"
);
},
{
closed = 1;
nodes = (
"502 -1 OFFCURVE",
"562 95 OFFCURVE",
"562 240 CURVE SMOOTH",
"562 422 LINE SMOOTH",
"562 571 OFFCURVE",
"498 656 OFFCURVE",
"335 656 CURVE",
"335 597 LINE",
"439 597 OFFCURVE",
"501 547 OFFCURVE",
"501 417 CURVE SMOOTH",
"501 244 LINE SMOOTH",
"501 113 OFFCURVE",
"442 59 OFFCURVE",
"336 59 CURVE",
"336 -1 LINE"
);
},
{
closed = 1;
nodes = (
"335 597 LINE",
"335 656 LINE",
"208 656 LINE SMOOTH",
"170 656 OFFCURVE",
"151 685 OFFCURVE",
"151 713 CURVE SMOOTH",
"151 741 OFFCURVE",
"169 770 OFFCURVE",
"209 770 CURVE SMOOTH",
"282 770 LINE",
"282 829 LINE",
"216 829 LINE SMOOTH",
"131 829 OFFCURVE",
"93 773 OFFCURVE",
"93 720 CURVE SMOOTH",
"93 683 OFFCURVE",
"112 649 OFFCURVE",
"145 634 CURVE",
"165 656 LINE",
"81 656 LINE",
"81 597 LINE"
);
},
{
closed = 1;
nodes = (
"546 679 LINE",
"546 778 OFFCURVE",
"493 829 OFFCURVE",
"405 829 CURVE SMOOTH",
"338 829 LINE",
"338 770 LINE",
"404 770 LINE SMOOTH",
"443 770 OFFCURVE",
"487 762 OFFCURVE",
"487 679 CURVE"
);
}
);
width = 592;
}
);
},
{
glyphname = sinCh;
lastChange = "2021-09-08 06:00:46 +0000";
layers = (
{
components = (
{
alignment = -1;
name = sinCha;
}
);
layerId = "906FCD19-247B-4D81-AD63-2BEA4CF1C003";
paths = (
{
closed = 1;
nodes = (
"321 497 LINE",
"371 560 LINE",
"371 819 LINE",
"313 819 LINE",
"313 497 LINE"
);
}
);
width = 629;
}
);
},
{
glyphname = sinJ;
lastChange = "2021-09-08 06:00:46 +0000";
layers = (
{
components = (
{
alignment = -1;
name = sinJa;
}
);
layerId = "906FCD19-247B-4D81-AD63-2BEA4CF1C003";
paths = (
{
closed = 1;
nodes = (
"319 505 LINE",
"369 560 LINE",
"369 819 LINE",
"311 819 LINE",
"311 505 LINE"
);
}
);
width = 627;
}
);
userData = {
com.fontlab.hintData = {
hhints = (
{
position = 619;
width = 200;
}
);
vhints = (
{
position = 32;
width = 136;
}
);
};
};
},
{
glyphname = sinJh;
lastChange = "2021-09-08 06:00:46 +0000";
layers = (
{
layerId = "906FCD19-247B-4D81-AD63-2BEA4CF1C003";
paths = (
{
closed = 1;
nodes = (
"105 483 OFFCURVE",
"145 506 OFFCURVE",
"184 506 CURVE SMOOTH",
"227 506 OFFCURVE",
"270 480 OFFCURVE",
"280 436 CURVE",
"323 479 LINE",
"308 529 OFFCURVE",
"249 565 OFFCURVE",
"186 565 CURVE SMOOTH",
"126 565 OFFCURVE",
"60 534 OFFCURVE",
"32 449 CURVE",
"87 432 LINE"
);
},
{
closed = 1;
nodes = (
"337 349 LINE",
"421 334 OFFCURVE",
"450 310 OFFCURVE",
"450 232 CURVE SMOOTH",
"450 124 LINE SMOOTH",
"450 80 OFFCURVE",
"411 57 OFFCURVE",
"374 57 CURVE SMOOTH",
"339 57 OFFCURVE",
"305 77 OFFCURVE",
"305 124 CURVE SMOOTH",
"305 194 LINE",
"253 194 LINE",
"253 123 LINE SMOOTH",
"253 77 OFFCURVE",
"222 57 OFFCURVE",
"190 57 CURVE SMOOTH",
"156 57 OFFCURVE",
"121 80 OFFCURVE",
"121 123 CURVE SMOOTH",
"121 173 LINE SMOOTH",
"121 192 OFFCURVE",
"113 237 OFFCURVE",
"53 248 CURVE",
"30 189 LINE",
"34 190 OFFCURVE",
"40 192 OFFCURVE",
"44 192 CURVE SMOOTH",
"64 192 OFFCURVE",
"65 162 OFFCURVE",
"65 141 CURVE SMOOTH",
"65 112 LINE SMOOTH",
"65 40 OFFCURVE",
"126 -5 OFFCURVE",
"188 -5 CURVE SMOOTH",
"221 -5 OFFCURVE",
"254 8 OFFCURVE",
"279 36 CURVE",
"308 9 OFFCURVE",
"346 -5 OFFCURVE",
"383 -5 CURVE SMOOTH",
"447 -5 OFFCURVE",
"508 37 OFFCURVE",
"508 118 CURVE SMOOTH",
"508 236 LINE SMOOTH",
"508 346 OFFCURVE",
"455 378 OFFCURVE",
"382 393 CURVE",
"337 356 LINE"
);
},
{
closed = 1;
nodes = (
"86 216 LINE",
"364 453 LINE SMOOTH",
"417 497 OFFCURVE",
"482 519 OFFCURVE",
"542 519 CURVE SMOOTH",
"613 519 OFFCURVE",
"677 489 OFFCURVE",
"699 419 CURVE",
"764 419 LINE",
"737 529 OFFCURVE",
"648 577 OFFCURVE",
"548 577 CURVE SMOOTH",
"473 577 OFFCURVE",
"392 550 OFFCURVE",
"323 497 CURVE",
"30 249 LINE",
"30 189 LINE"
);
},
{
closed = 1;
nodes = (
"754 -2 OFFCURVE",
"795 17 OFFCURVE",
"819 53 CURVE",
"844 17 OFFCURVE",
"887 -2 OFFCURVE",
"935 -2 CURVE SMOOTH",
"1020 -2 OFFCURVE",
"1080 53 OFFCURVE",
"1080 138 CURVE SMOOTH",
"1080 234 LINE",
"1018 234 LINE",
"1018 144 LINE SMOOTH",
"1018 114 OFFCURVE",
"998 58 OFFCURVE",
"931 58 CURVE SMOOTH",
"865 58 OFFCURVE",
"845 114 OFFCURVE",
"845 144 CURVE SMOOTH",
"845 194 LINE",
"792 194 LINE",
"792 144 LINE SMOOTH",
"792 114 OFFCURVE",
"772 58 OFFCURVE",
"706 58 CURVE SMOOTH",
"639 58 OFFCURVE",
"619 114 OFFCURVE",
"619 144 CURVE SMOOTH",
"619 293 LINE SMOOTH",
"619 333 OFFCURVE",
"636 419 OFFCURVE",
"744 419 CURVE SMOOTH",
"764 419 LINE",
"732 475 LINE",
"713 471 LINE SMOOTH",
"597 464 OFFCURVE",
"557 375 OFFCURVE",
"557 298 CURVE SMOOTH",
"557 138 LINE SMOOTH",
"557 53 OFFCURVE",
"619 -2 OFFCURVE",
"705 -2 CURVE SMOOTH"
);
},
{
closed = 1;
nodes = (
"799 597 LINE",
"799 656 LINE",
"704 656 LINE SMOOTH",
"667 656 OFFCURVE",
"647 684 OFFCURVE",
"647 713 CURVE SMOOTH",
"647 742 OFFCURVE",
"666 770 OFFCURVE",
"705 770 CURVE SMOOTH",
"799 770 LINE",
"799 829 LINE",
"712 829 LINE SMOOTH",
"633 829 OFFCURVE",
"589 777 OFFCURVE",
"589 721 CURVE SMOOTH",
"589 683 OFFCURVE",
"608 649 OFFCURVE",
"641 634 CURVE",
"661 656 LINE",
"577 656 LINE",
"577 597 LINE"
);
},
{
closed = 1;
nodes = (
"1080 233 LINE",
"1080 424 LINE SMOOTH",
"1080 572 OFFCURVE",
"1014 656 OFFCURVE",
"855 656 CURVE",
"855 597 LINE",
"955 597 OFFCURVE",
"1018 551 OFFCURVE",
"1018 420 CURVE SMOOTH",
"1018 233 LINE"
);
},
{
closed = 1;
nodes = (
"1067 679 LINE",
"1067 784 OFFCURVE",
"1012 829 OFFCURVE",
"926 829 CURVE SMOOTH",
"855 829 LINE",
"855 770 LINE",
"922 770 LINE SMOOTH",
"967 770 OFFCURVE",
"1008 762 OFFCURVE",
"1008 679 CURVE"
);
}
);
width = 1110;
}
);
},
{
glyphname = sinNyj;
lastChange = "2021-09-08 06:00:46 +0000";
layers = (
{
components = (
{
alignment = -1;
name = sinNyja;
}
);
layerId = "906FCD19-247B-4D81-AD63-2BEA4CF1C003";
paths = (
{
closed = 1;
nodes = (
"470 497 LINE",
"520 560 LINE",
"520 819 LINE",
"462.001 819 LINE",
"462.001 497 LINE"
);
}
);
width = 778;
}
);
},
{
glyphname = sinTt;
lastChange = "2021-09-13 13:14:41 +0000";
layers = (
{
layerId = "906FCD19-247B-4D81-AD63-2BEA4CF1C003";
paths = (
{
closed = 1;
nodes = (
"457 -1 OFFCURVE",
"517 94 OFFCURVE",
"517 239 CURVE SMOOTH",
"517 423 LINE SMOOTH",
"517 572 OFFCURVE",
"452 656 OFFCURVE",
"293 656 CURVE",
"293 597 LINE",
"394 597 OFFCURVE",
"456 549 OFFCURVE",
"456 419 CURVE SMOOTH",
"456 244 LINE SMOOTH",
"456 113 OFFCURVE",
"397 59 OFFCURVE",
"251 59 CURVE",
"251 -1 LINE"
);
},
{
closed = 1;
nodes = (
"255 59 LINE",
"143 59 OFFCURVE",
"90 126 OFFCURVE",
"90 204 CURVE SMOOTH",
"90 268 LINE SMOOTH",
"90 350 OFFCURVE",
"137 411 OFFCURVE",
"235 411 CURVE",
"235 471 LINE",
"67 471 OFFCURVE",
"30 353 OFFCURVE",
"30 268 CURVE SMOOTH",
"30 202 LINE SMOOTH",
"30 116 OFFCURVE",
"86 -1 OFFCURVE",
"255 -1 CURVE"
);
},
{
closed = 1;
nodes = (
"293 597 LINE",
"293 656 LINE",
"167 656 LINE SMOOTH",
"129 656 OFFCURVE",
"109 685 OFFCURVE",
"109 713 CURVE SMOOTH",
"109 741 OFFCURVE",
"128 770 OFFCURVE",
"168 770 CURVE SMOOTH",
"300 770 LINE",
"300 829 LINE",
"175 829 LINE SMOOTH",
"90 829 OFFCURVE",
"52 773 OFFCURVE",
"52 720 CURVE SMOOTH",
"52 683 OFFCURVE",
"72 649 OFFCURVE",
"103 634 CURVE",
"123 656 LINE",
"40 656 LINE",
"40 597 LINE"
);
},
{
closed = 1;
nodes = (
"465 596 LINE",
"535 735 OFFCURVE",
"460 829 OFFCURVE",
"352 829 CURVE SMOOTH",
"295 829 LINE",
"295 770 LINE",
"351 770 LINE SMOOTH",
"411 770 OFFCURVE",
"476 709 OFFCURVE",
"406 616 CURVE"
);
}
);
width = 547;
}
);
},
{
glyphname = sinTth;
lastChange = "2021-09-08 06:00:46 +0000";
layers = (
{
components = (
{
alignment = -1;
name = sinTtha;
transform = "{1, 0, 0, 1, -10, 0}";
}
);
layerId = "906FCD19-247B-4D81-AD63-2BEA4CF1C003";
paths = (
{
closed = 1;
nodes = (
"553 518 LINE",
"553 819 LINE",
"492 819 LINE",
"492 518 LINE"
);
}
);
width = 583;
}
);
},
{
glyphname = sinDd;
lastChange = "2021-09-08 06:00:46 +0000";
layers = (
{
layerId = "906FCD19-247B-4D81-AD63-2BEA4CF1C003";
paths = (
{
closed = 1;
nodes = (
"272 -2 OFFCURVE",
"312 19 OFFCURVE",
"335 53 CURVE",
"359 18 OFFCURVE",
"401 -2 OFFCURVE",
"451 -2 CURVE SMOOTH",
"537 -2 OFFCURVE",
"596 55 OFFCURVE",
"596 138 CURVE SMOOTH",
"596 233 LINE",
"534 233 LINE",
"534 144 LINE SMOOTH",
"534 96 OFFCURVE",
"496 58 OFFCURVE",
"447 58 CURVE SMOOTH",
"398 58 OFFCURVE",
"361 96 OFFCURVE",
"361 144 CURVE SMOOTH",
"361 194 LINE",
"307 194 LINE",
"307 144 LINE SMOOTH",
"307 96 OFFCURVE",
"270 58 OFFCURVE",
"221 58 CURVE SMOOTH",
"172 58 OFFCURVE",
"134 96 OFFCURVE",
"134 144 CURVE SMOOTH",
"134 232 LINE SMOOTH",
"134 277 OFFCURVE",
"155 297 OFFCURVE",
"201 297 CURVE SMOOTH",
"361 297 LINE",
"361 353 LINE SMOOTH",
"361 431 OFFCURVE",
"304 484 OFFCURVE",
"224 484 CURVE SMOOTH",
"161 484 OFFCURVE",
"112 450 OFFCURVE",
"98 399 CURVE",
"149 386 LINE",
"160 413 OFFCURVE",
"188 430 OFFCURVE",
"222 430 CURVE SMOOTH",
"272 430 OFFCURVE",
"308 396 OFFCURVE",
"308 350 CURVE",
"30 350 LINE",
"30 297 LINE",
"98 297 LINE",
"82 289 OFFCURVE",
"74 266 OFFCURVE",
"74 232 CURVE SMOOTH",
"74 138 LINE SMOOTH",
"74 55 OFFCURVE",
"134 -2 OFFCURVE",
"221 -2 CURVE SMOOTH"
);
},
{
closed = 1;
nodes = (
"596 233 LINE",
"596 424 LINE SMOOTH",
"596 580 OFFCURVE",
"520 656 OFFCURVE",
"367 656 CURVE",
"367 597 LINE",
"479 597 OFFCURVE",
"534 539 OFFCURVE",
"534 420 CURVE SMOOTH",
"534 233 LINE"
);
},
{
closed = 1;
nodes = (
"367 597 LINE",
"367 656 LINE",
"210 656 LINE SMOOTH",
"177 656 OFFCURVE",
"153 680 OFFCURVE",
"153 713 CURVE SMOOTH",
"153 746 OFFCURVE",
"177 770 OFFCURVE",
"211 770 CURVE SMOOTH",
"302 770 LINE",
"302 829 LINE",
"218 829 LINE SMOOTH",
"146 829 OFFCURVE",
"96 783 OFFCURVE",
"96 721 CURVE SMOOTH",
"96 683 OFFCURVE",
"115 650 OFFCURVE",
"146 634 CURVE",
"167 656 LINE",
"83 656 LINE",
"83 597 LINE"
);
},
{
closed = 1;
nodes = (
"581 679 LINE",
"581 777 OFFCURVE",
"533 829 OFFCURVE",
"440 829 CURVE SMOOTH",
"358 829 LINE",
"358 770 LINE",
"436 770 LINE SMOOTH",
"498 770 OFFCURVE",
"522 744 OFFCURVE",
"522 679 CURVE"
);
}
);
width = 626;
}
);
},
{
glyphname = sinDdh;
lastChange = "2021-09-08 06:00:46 +0000";
layers = (
{
components = (
{
alignment = -1;
name = sinDdha;
}
);
layerId = "906FCD19-247B-4D81-AD63-2BEA4CF1C003";
paths = (
{
closed = 1;
nodes = (
"596 518 LINE",
"596 819 LINE",
"535 819 LINE",
"535 518 LINE"
);
}
);
width = 626;
}
);
},
{
glyphname = sinNndd;
lastChange = "2021-09-08 06:00:46 +0000";
layers = (
{
layerId = "906FCD19-247B-4D81-AD63-2BEA4CF1C003";
paths = (
{
closed = 1;
nodes = (
"386 -2 OFFCURVE",
"427 17 OFFCURVE",
"451 53 CURVE",
"476 17 OFFCURVE",
"519 -2 OFFCURVE",
"567 -2 CURVE SMOOTH",
"652 -2 OFFCURVE",
"712 53 OFFCURVE",
"712 138 CURVE SMOOTH",
"712 233 LINE",
"650 233 LINE",
"650 144 LINE SMOOTH",
"650 114 OFFCURVE",
"630 58 OFFCURVE",
"563 58 CURVE SMOOTH",
"497 58 OFFCURVE",
"477 114 OFFCURVE",
"477 144 CURVE SMOOTH",
"477 194 LINE",
"423 194 LINE",
"423 144 LINE SMOOTH",
"423 114 OFFCURVE",
"403 58 OFFCURVE",
"337 58 CURVE SMOOTH",
"271 58 OFFCURVE",
"250 114 OFFCURVE",
"250 144 CURVE SMOOTH",
"250 228 LINE SMOOTH",
"250 284 OFFCURVE",
"282 293 OFFCURVE",
"317 293 CURVE SMOOTH",
"477 293 LINE",
"477 349 LINE SMOOTH",
"477 391 OFFCURVE",
"461 424 OFFCURVE",
"435 448 CURVE SMOOTH",
"409 471 OFFCURVE",
"373 484 OFFCURVE",
"335 484 CURVE SMOOTH",
"282 484 OFFCURVE",
"223 459 OFFCURVE",
"206 399 CURVE",
"257 383 LINE",
"272 414 OFFCURVE",
"301 427 OFFCURVE",
"332 427 CURVE SMOOTH",
"378 427 OFFCURVE",
"421 400 OFFCURVE",
"421 346 CURVE",
"150 346 LINE",
"150 293 LINE",
"214 293 LINE",
"195 284 OFFCURVE",
"190 255 OFFCURVE",
"190 228 CURVE SMOOTH",
"190 138 LINE SMOOTH",
"190 53 OFFCURVE",
"252 -2 OFFCURVE",
"337 -2 CURVE SMOOTH"
);
},
{
closed = 1;
nodes = (
"712 233 LINE",
"712 424 LINE SMOOTH",
"712 574 OFFCURVE",
"641 656 OFFCURVE",
"484 656 CURVE",
"484 597 LINE",
"586 597 OFFCURVE",
"650 548 OFFCURVE",
"650 420 CURVE SMOOTH",
"650 233 LINE"
);
},
{
closed = 1;
nodes = (
"484 597 LINE",
"484 656 LINE",
"327 656 LINE SMOOTH",
"289 656 OFFCURVE",
"269 684 OFFCURVE",
"269 713 CURVE SMOOTH",
"269 742 OFFCURVE",
"289 770 OFFCURVE",
"327 770 CURVE SMOOTH",
"419 770 LINE",
"419 829 LINE",
"334 829 LINE SMOOTH",
"255 829 OFFCURVE",
"212 777 OFFCURVE",
"212 721 CURVE SMOOTH",
"212 683 OFFCURVE",
"230 649 OFFCURVE",
"263 634 CURVE",
"283 656 LINE",
"200 656 LINE",
"200 597 LINE"
);
},
{
closed = 1;
nodes = (
"698 679 LINE",
"698 784 OFFCURVE",
"642 829 OFFCURVE",
"557 829 CURVE SMOOTH",
"474 829 LINE",
"474 770 LINE",
"552 770 LINE SMOOTH",
"598 770 OFFCURVE",
"639 762 OFFCURVE",
"639 679 CURVE"
);
},
{
closed = 1;
nodes = (
"147 9 LINE",
"94 71 OFFCURVE",
"88 111 OFFCURVE",
"88 169 CURVE SMOOTH",
"88 281 LINE SMOOTH",
"88 341 OFFCURVE",
"112 398 OFFCURVE",
"183 398 CURVE SMOOTH",
"201 398 OFFCURVE",
"220 394 OFFCURVE",
"246 386 CURVE",
"260 442 LINE",
"233 452 OFFCURVE",
"206 457 OFFCURVE",
"181 457 CURVE SMOOTH",
"95 457 OFFCURVE",
"30 397 OFFCURVE",
"30 287 CURVE SMOOTH",
"30 172 LINE SMOOTH",
"30 104 OFFCURVE",
"36 54 OFFCURVE",
"87 -12 CURVE"
);
}
);
width = 742;
}
);
},
{
glyphname = sinTh;
lastChange = "2021-09-08 06:00:46 +0000";
layers = (
{
components = (
{
alignment = -1;
name = sinTha;
}
);
layerId = "906FCD19-247B-4D81-AD63-2BEA4CF1C003";
paths = (
{
closed = 1;
nodes = (
"517 518 LINE",
"517 819 LINE",
"457 819 LINE",
"457 518 LINE"
);
}
);
width = 547;
}
);
},
{
glyphname = sinDh;
lastChange = "2021-09-08 06:00:46 +0000";
layers = (
{
layerId = "906FCD19-247B-4D81-AD63-2BEA4CF1C003";
paths = (
{
closed = 1;
nodes = (
"227 -2 OFFCURVE",
"268 17 OFFCURVE",
"292 53 CURVE",
"317 17 OFFCURVE",
"360 -2 OFFCURVE",
"408 -2 CURVE SMOOTH",
"493 -2 OFFCURVE",
"553 53 OFFCURVE",
"553 138 CURVE SMOOTH",
"553 233 LINE",
"491 233 LINE",
"491 144 LINE SMOOTH",
"491 114 OFFCURVE",
"471 58 OFFCURVE",
"404 58 CURVE SMOOTH",
"338 58 OFFCURVE",
"318 114 OFFCURVE",
"318 144 CURVE SMOOTH",
"318 194 LINE",
"264 194 LINE",
"264 144 LINE SMOOTH",
"264 114 OFFCURVE",
"244 58 OFFCURVE",
"178 58 CURVE SMOOTH",
"111 58 OFFCURVE",
"91 114 OFFCURVE",
"91 144 CURVE SMOOTH",
"91 293 LINE SMOOTH",
"91 333 OFFCURVE",
"108 419 OFFCURVE",
"217 419 CURVE SMOOTH",
"253 419 LINE",
"253 479 LINE",
"217 479 LINE SMOOTH",
"71 479 OFFCURVE",
"30 379 OFFCURVE",
"30 298 CURVE SMOOTH",
"30 138 LINE SMOOTH",
"30 53 OFFCURVE",
"92 -2 OFFCURVE",
"178 -2 CURVE SMOOTH"
);
},
{
closed = 1;
nodes = (
"553 233 LINE",
"553 421 LINE SMOOTH",
"553 575 OFFCURVE",
"483 656 OFFCURVE",
"322 656 CURVE",
"322 597 LINE",
"427 597 OFFCURVE",
"491 547 OFFCURVE",
"491 416 CURVE SMOOTH",
"491 233 LINE"
);
},
{
closed = 1;
nodes = (
"326 597 LINE",
"326 656 LINE",
"174 656 LINE SMOOTH",
"137 656 OFFCURVE",
"117 684 OFFCURVE",
"117 713 CURVE SMOOTH",
"117 742 OFFCURVE",
"136 770 OFFCURVE",
"174 770 CURVE SMOOTH",
"266 770 LINE",
"266 829 LINE",
"182 829 LINE SMOOTH",
"103 829 OFFCURVE",
"59 777 OFFCURVE",
"59 720 CURVE SMOOTH",
"59 683 OFFCURVE",
"78 649 OFFCURVE",
"111 633 CURVE",
"131 656 LINE",
"47 656 LINE",
"47 597 LINE"
);
},
{
closed = 1;
nodes = (
"545 679 LINE",
"545 784 OFFCURVE",
"487 829 OFFCURVE",
"401 829 CURVE SMOOTH",
"322 829 LINE",
"322 770 LINE",
"401 770 LINE SMOOTH",
"445 770 OFFCURVE",
"486 762 OFFCURVE",
"486 679 CURVE"
);
}
);
width = 583;
}
);
},
{
glyphname = sinPh;
lastChange = "2021-09-08 06:00:46 +0000";
layers = (
{
components = (
{
alignment = -1;
name = sinPha;
}
);
layerId = "906FCD19-247B-4D81-AD63-2BEA4CF1C003";
paths = (
{
closed = 1;
nodes = (
"522 518 LINE",
"522 819 LINE",
"461 819 LINE",
"461 518 LINE"
);
}
);
width = 552;
}
);
},
{
color = 4;
glyphname = sinB;
lastChange = "2021-09-23 06:00:19 +0000";
layers = (
{
layerId = "906FCD19-247B-4D81-AD63-2BEA4CF1C003";
paths = (
{
closed = 1;
nodes = (
"104 445 OFFCURVE",
"30 390 OFFCURVE",
"30 284 CURVE SMOOTH",
"30 179 LINE SMOOTH",
"30 47 OFFCURVE",
"91 0 OFFCURVE",
"211 0 CURVE",
"211 60 LINE",
"134 60 OFFCURVE",
"89 82 OFFCURVE",
"89 180 CURVE SMOOTH",
"89 281 LINE SMOOTH",
"89 348 OFFCURVE",
"133 381 OFFCURVE",
"177 381 CURVE SMOOTH",
"220 381 OFFCURVE",
"264 348 OFFCURVE",
"264 281 CURVE SMOOTH",
"264 140 LINE SMOOTH",
"264 43 OFFCURVE",
"336 -5 OFFCURVE",
"409 -5 CURVE SMOOTH",
"484 -5 OFFCURVE",
"561 47 OFFCURVE",
"561 150 CURVE SMOOTH",
"561 254 LINE",
"499 254 LINE",
"499 148 LINE SMOOTH",
"499 89 OFFCURVE",
"455 60 OFFCURVE",
"412 60 CURVE SMOOTH",
"368 60 OFFCURVE",
"324 89 OFFCURVE",
"324 148 CURVE SMOOTH",
"324 282 LINE SMOOTH",
"324 392 OFFCURVE",
"252 445 OFFCURVE",
"178 445 CURVE SMOOTH"
);
},
{
closed = 1;
nodes = (
"499 254 LINE",
"561 254 LINE",
"561 462 LINE SMOOTH",
"561 613 OFFCURVE",
"495 697 OFFCURVE",
"330 697 CURVE",
"330 638 LINE",
"436 638 OFFCURVE",
"499 588 OFFCURVE",
"499 458 CURVE SMOOTH"
);
},
{
closed = 1;
nodes = (
"52 724 OFFCURVE",
"72 691 OFFCURVE",
"104 675 CURVE",
"124 697 LINE",
"40 697 LINE",
"40 638 LINE",
"330 638 LINE",
"330 697 LINE",
"167 697 LINE SMOOTH",
"129 697 OFFCURVE",
"110 726 OFFCURVE",
"110 753 CURVE SMOOTH",
"110 782 OFFCURVE",
"128 811 OFFCURVE",
"168 811 CURVE SMOOTH",
"321 811 LINE",
"321 870 LINE",
"175 870 LINE SMOOTH",
"90 870 OFFCURVE",
"52 813 OFFCURVE",
"52 761 CURVE SMOOTH"
);
},
{
closed = 1;
nodes = (
"306 870 LINE",
"306 811 LINE",
"366 811 LINE SMOOTH",
"431 811 OFFCURVE",
"493 760 OFFCURVE",
"433 637 CURVE",
"502 637 LINE",
"552 796 OFFCURVE",
"473 870 OFFCURVE",
"371 870 CURVE SMOOTH"
);
}
);
width = 591;
}
);
},
{
color = 4;
glyphname = sinM;
lastChange = "2021-09-23 06:00:19 +0000";
layers = (
{
layerId = "906FCD19-247B-4D81-AD63-2BEA4CF1C003";
paths = (
{
closed = 1;
nodes = (
"277 59 LINE",
"203 59 OFFCURVE",
"88 74 OFFCURVE",
"88 252 CURVE SMOOTH",
"88 344 LINE SMOOTH",
"88 405 OFFCURVE",
"117 430 OFFCURVE",
"145 430 CURVE SMOOTH",
"170 430 OFFCURVE",
"193 410 OFFCURVE",
"193 380 CURVE SMOOTH",
"193 322 LINE SMOOTH",
"193 258 OFFCURVE",
"236 230 OFFCURVE",
"278 230 CURVE SMOOTH",
"321 230 OFFCURVE",
"365 258 OFFCURVE",
"365 326 CURVE SMOOTH",
"365 479 LINE",
"314 479 LINE",
"314 332 LINE SMOOTH",
"314 309 OFFCURVE",
"296 287 OFFCURVE",
"277 287 CURVE SMOOTH",
"260 287 OFFCURVE",
"242 309 OFFCURVE",
"242 332 CURVE SMOOTH",
"242 387 LINE SMOOTH",
"242 452 OFFCURVE",
"196 487 OFFCURVE",
"147 487 CURVE SMOOTH",
"91 487 OFFCURVE",
"30 440 OFFCURVE",
"30 339 CURVE SMOOTH",
"30 252 LINE SMOOTH",
"30 143 OFFCURVE",
"67 -1 OFFCURVE",
"277 -1 CURVE"
);
},
{
closed = 1;
nodes = (
"472 -1 OFFCURVE",
"546 93 OFFCURVE",
"546 243 CURVE SMOOTH",
"546 476 LINE SMOOTH",
"546 630 OFFCURVE",
"493 697 OFFCURVE",
"309 697 CURVE",
"309 638 LINE",
"429 638 OFFCURVE",
"485 615 OFFCURVE",
"485 472 CURVE SMOOTH",
"485 243 LINE SMOOTH",
"485 105 OFFCURVE",
"407 59 OFFCURVE",
"273 59 CURVE",
"273 -1 LINE"
);
},
{
closed = 1;
nodes = (
"311 638 LINE",
"311 697 LINE",
"168 697 LINE SMOOTH",
"130 697 OFFCURVE",
"111 726 OFFCURVE",
"111 753 CURVE SMOOTH",
"111 782 OFFCURVE",
"129 811 OFFCURVE",
"169 811 CURVE SMOOTH",
"331 811 LINE",
"331 870 LINE",
"175 870 LINE SMOOTH",
"89 870 OFFCURVE",
"52 813 OFFCURVE",
"52 762 CURVE SMOOTH",
"52 725 OFFCURVE",
"72 691 OFFCURVE",
"102 675 CURVE",
"123 697 LINE",
"39 697 LINE",
"39 638 LINE"
);
},
{
closed = 1;
nodes = (
"522 720 LINE",
"522 819 OFFCURVE",
"473 870 OFFCURVE",
"381 870 CURVE SMOOTH",
"306 870 LINE",
"306 811 LINE",
"376 811 LINE SMOOTH",
"421 811 OFFCURVE",
"463 803 OFFCURVE",
"463 720 CURVE"
);
}
);
width = 586;
}
);
rightMetricsKey = "40t";
},
{
glyphname = sinMb;
lastChange = "2021-09-08 06:00:46 +0000";
layers = (
{
layerId = "906FCD19-247B-4D81-AD63-2BEA4CF1C003";
paths = (
{
closed = 1;
nodes = (
"236 -11 OFFCURVE",
"258 13 OFFCURVE",
"261 49 CURVE SMOOTH",
"264 67 OFFCURVE",
"259 104 OFFCURVE",
"259 124 CURVE SMOOTH",
"259 154 OFFCURVE",
"276 157 OFFCURVE",
"293 157 CURVE SMOOTH",
"310 157 OFFCURVE",
"328 155 OFFCURVE",
"328 124 CURVE SMOOTH",
"328 104 OFFCURVE",
"323 67 OFFCURVE",
"326 49 CURVE SMOOTH",
"329 13 OFFCURVE",
"351 -11 OFFCURVE",
"401 -11 CURVE SMOOTH",
"497 -11 OFFCURVE",
"558 63 OFFCURVE",
"558 165 CURVE SMOOTH",
"558 425 LINE SMOOTH",
"558 573 OFFCURVE",
"493 656 OFFCURVE",
"334 656 CURVE",
"334 597 LINE",
"434 597 OFFCURVE",
"496 549 OFFCURVE",
"496 419 CURVE SMOOTH",
"496 167 LINE SMOOTH",
"496 111 OFFCURVE",
"461 50 OFFCURVE",
"400 50 CURVE SMOOTH",
"372 50 OFFCURVE",
"364 63 OFFCURVE",
"364 88 CURVE SMOOTH",
"364 116 OFFCURVE",
"390 204 OFFCURVE",
"318 204 CURVE SMOOTH",
"269 204 LINE SMOOTH",
"198 204 OFFCURVE",
"223 116 OFFCURVE",
"223 88 CURVE SMOOTH",
"223 63 OFFCURVE",
"215 50 OFFCURVE",
"187 50 CURVE SMOOTH",
"126 50 OFFCURVE",
"90 111 OFFCURVE",
"90 167 CURVE SMOOTH",
"90 358 LINE SMOOTH",
"90 400 OFFCURVE",
"119 421 OFFCURVE",
"147 421 CURVE SMOOTH",
"176 421 OFFCURVE",
"204 401 OFFCURVE",
"204 362 CURVE SMOOTH",
"204 312 LINE SMOOTH",
"204 258 OFFCURVE",
"247 230 OFFCURVE",
"289 230 CURVE SMOOTH",
"332 230 OFFCURVE",
"376 258 OFFCURVE",
"376 316 CURVE SMOOTH",
"376 469 LINE",
"325 469 LINE",
"325 322 LINE SMOOTH",
"325 299 OFFCURVE",
"307 287 OFFCURVE",
"289 287 CURVE SMOOTH",
"271 287 OFFCURVE",
"253 299 OFFCURVE",
"253 322 CURVE SMOOTH",
"253 369 LINE SMOOTH",
"253 443 OFFCURVE",
"200 479 OFFCURVE",
"146 479 CURVE SMOOTH",
"89 479 OFFCURVE",
"30 438 OFFCURVE",
"30 361 CURVE SMOOTH",
"30 165 LINE SMOOTH",
"30 63 OFFCURVE",
"91 -11 OFFCURVE",
"186 -11 CURVE SMOOTH"
);
},
{
closed = 1;
nodes = (
"334 597 LINE",
"334 656 LINE",
"173 656 LINE SMOOTH",
"135 656 OFFCURVE",
"116 685 OFFCURVE",
"116 713 CURVE SMOOTH",
"116 741 OFFCURVE",
"134 770 OFFCURVE",
"174 770 CURVE SMOOTH",
"264 770 LINE",
"264 829 LINE",
"179 829 LINE SMOOTH",
"94 829 OFFCURVE",
"57 773 OFFCURVE",
"57 721 CURVE SMOOTH",
"57 684 OFFCURVE",
"76 649 OFFCURVE",
"106 634 CURVE",
"128 656 LINE",
"44 656 LINE",
"44 597 LINE"
);
},
{
closed = 1;
nodes = (
"542 679 LINE",
"542 778 OFFCURVE",
"493 829 OFFCURVE",
"401 829 CURVE SMOOTH",
"320 829 LINE",
"320 770 LINE",
"396 770 LINE SMOOTH",
"441 770 OFFCURVE",
"483 762 OFFCURVE",
"483 679 CURVE"
);
}
);
width = 588;
}
);
},
{
color = 4;
glyphname = sinR;
lastChange = "2021-09-23 06:00:19 +0000";
layers = (
{
components = (
{
alignment = -1;
name = sinRa;
transform = "{1, 0, 0, 1, 20, 0}";
}
);
layerId = "906FCD19-247B-4D81-AD63-2BEA4CF1C003";
paths = (
{
closed = 1;
nodes = (
"109 389 LINE",
"109 819 LINE",
"50 819 LINE",
"50 389 LINE"
);
}
);
width = 561;
}
);
},
{
glyphname = sinV;
lastChange = "2021-09-08 06:00:46 +0000";
layers = (
{
layerId = "906FCD19-247B-4D81-AD63-2BEA4CF1C003";
paths = (
{
closed = 1;
nodes = (
"239 59 LINE",
"144 59 OFFCURVE",
"90 122 OFFCURVE",
"90 185 CURVE SMOOTH",
"90 279 OFFCURVE",
"143 298 OFFCURVE",
"256 298 CURVE SMOOTH",
"312 298 LINE",
"312 357 LINE SMOOTH",
"312 440 OFFCURVE",
"244 484 OFFCURVE",
"174 484 CURVE SMOOTH",
"119 484 OFFCURVE",
"65 458 OFFCURVE",
"48 399 CURVE",
"99 386 LINE",
"111 416 OFFCURVE",
"143 430 OFFCURVE",
"173 430 CURVE SMOOTH",
"216 430 OFFCURVE",
"259 404 OFFCURVE",
"259 353 CURVE",
"173 353 OFFCURVE",
"113 345 OFFCURVE",
"72 303 CURVE SMOOTH",
"40 273 OFFCURVE",
"31 233 OFFCURVE",
"31 183 CURVE SMOOTH",
"31 86 OFFCURVE",
"118 -1 OFFCURVE",
"239 -1 CURVE"
);
},
{
closed = 1;
nodes = (
"461 -1 OFFCURVE",
"521 95 OFFCURVE",
"521 240 CURVE SMOOTH",
"521 426 LINE SMOOTH",
"521 575 OFFCURVE",
"456 656 OFFCURVE",
"296 656 CURVE",
"296 597 LINE",
"395 597 OFFCURVE",
"460 553 OFFCURVE",
"460 421 CURVE SMOOTH",
"460 244 LINE SMOOTH",
"460 113 OFFCURVE",
"402 59 OFFCURVE",
"295 59 CURVE",
"295 -1 LINE"
);
},
{
closed = 1;
nodes = (
"296 597 LINE",
"296 656 LINE",
"175 656 LINE SMOOTH",
"137 656 OFFCURVE",
"118 685 OFFCURVE",
"118 713 CURVE SMOOTH",
"118 741 OFFCURVE",
"136 770 OFFCURVE",
"176 770 CURVE SMOOTH",
"248 770 LINE",
"248 829 LINE",
"183 829 LINE SMOOTH",
"98 829 OFFCURVE",
"61 773 OFFCURVE",
"61 720 CURVE SMOOTH",
"61 683 OFFCURVE",
"80 649 OFFCURVE",
"112 634 CURVE",
"132 656 LINE",
"48 656 LINE",
"48 597 LINE"
);
},
{
closed = 1;
nodes = (
"511 679 LINE",
"511 778 OFFCURVE",
"458 829 OFFCURVE",
"370 829 CURVE SMOOTH",
"303 829 LINE",
"303 770 LINE",
"369 770 LINE SMOOTH",
"409 770 OFFCURVE",
"452 762 OFFCURVE",
"452 679 CURVE"
);
}
);
width = 551;
}
);
},
{
glyphname = sinKV;
lastChange = "2021-09-08 06:00:46 +0000";
layers = (
{
layerId = "906FCD19-247B-4D81-AD63-2BEA4CF1C003";
paths = (
{
closed = 1;
nodes = (
"105 483 OFFCURVE",
"145 506 OFFCURVE",
"184 506 CURVE SMOOTH",
"227 506 OFFCURVE",
"270 480 OFFCURVE",
"280 436 CURVE",
"323 479 LINE",
"308 529 OFFCURVE",
"249 565 OFFCURVE",
"186 565 CURVE SMOOTH",
"126 565 OFFCURVE",
"60 534 OFFCURVE",
"32 449 CURVE",
"87 432 LINE"
);
},
{
closed = 1;
nodes = (
"221 -5 OFFCURVE",
"254 8 OFFCURVE",
"279 36 CURVE",
"308 9 OFFCURVE",
"346 -5 OFFCURVE",
"383 -5 CURVE SMOOTH",
"447 -5 OFFCURVE",
"508 37 OFFCURVE",
"508 118 CURVE SMOOTH",
"508 236 LINE SMOOTH",
"508 346 OFFCURVE",
"455 378 OFFCURVE",
"382 393 CURVE",
"339 357 LINE",
"339 349 LINE",
"421 334 OFFCURVE",
"450 309 OFFCURVE",
"450 232 CURVE SMOOTH",
"450 124 LINE SMOOTH",
"450 80 OFFCURVE",
"411 57 OFFCURVE",
"374 57 CURVE SMOOTH",
"339 57 OFFCURVE",
"305 77 OFFCURVE",
"305 124 CURVE SMOOTH",
"305 194 LINE",
"253 194 LINE",
"253 123 LINE SMOOTH",
"253 77 OFFCURVE",
"222 57 OFFCURVE",
"190 57 CURVE SMOOTH",
"156 57 OFFCURVE",
"121 80 OFFCURVE",
"121 123 CURVE SMOOTH",
"121 173 LINE SMOOTH",
"121 192 OFFCURVE",
"113 237 OFFCURVE",
"53 248 CURVE",
"30 189 LINE",
"34 190 OFFCURVE",
"40 192 OFFCURVE",
"44 192 CURVE SMOOTH",
"64 192 OFFCURVE",
"65 162 OFFCURVE",
"65 141 CURVE SMOOTH",
"65 112 LINE SMOOTH",
"65 40 OFFCURVE",
"126 -5 OFFCURVE",
"188 -5 CURVE SMOOTH"
);
},
{
closed = 1;
nodes = (
"470 570 OFFCURVE",
"377 541 OFFCURVE",
"302 479 CURVE SMOOTH",
"30 249 LINE",
"30 189 LINE",
"86 216 LINE",
"343 434 LINE SMOOTH",
"406 488 OFFCURVE",
"483 511 OFFCURVE",
"555 511 CURVE SMOOTH",
"680 511 OFFCURVE",
"792 443 OFFCURVE",
"793 353 CURVE",
"707 351 OFFCURVE",
"648 341 OFFCURVE",
"609 298 CURVE SMOOTH",
"584 269 OFFCURVE",
"573 231 OFFCURVE",
"573 184 CURVE SMOOTH",
"573 86 OFFCURVE",
"661 -1 OFFCURVE",
"781 -1 CURVE",
"781 59 LINE",
"686 59 OFFCURVE",
"633 122 OFFCURVE",
"633 185 CURVE SMOOTH",
"633 279 OFFCURVE",
"686 298 OFFCURVE",
"798 298 CURVE SMOOTH",
"854 298 LINE",
"854 350 LINE SMOOTH",
"854 487 OFFCURVE",
"715 570 OFFCURVE",
"560 570 CURVE SMOOTH"
);
},
{
closed = 1;
nodes = (
"996 -1 OFFCURVE",
"1064 83 OFFCURVE",
"1064 243 CURVE SMOOTH",
"1064 424 LINE SMOOTH",
"1064 573 OFFCURVE",
"1000 656 OFFCURVE",
"841 656 CURVE",
"841 598 LINE",
"941 598 OFFCURVE",
"1003 549 OFFCURVE",
"1003 421 CURVE SMOOTH",
"1003 243 LINE SMOOTH",
"1003 106 OFFCURVE",
"936 59 OFFCURVE",
"837 59 CURVE",
"837 -1 LINE"
);
},
{
closed = 1;
nodes = (
"786 598 LINE",
"786 656 LINE",
"718 656 LINE SMOOTH",
"680 656 OFFCURVE",
"660 685 OFFCURVE",
"660 713 CURVE SMOOTH",
"660 741 OFFCURVE",
"679 770 OFFCURVE",
"718 770 CURVE SMOOTH",
"786 770 LINE",
"786 829 LINE",
"726 829 LINE SMOOTH",
"641 829 OFFCURVE",
"603 773 OFFCURVE",
"603 720 CURVE SMOOTH",
"603 683 OFFCURVE",
"622 649 OFFCURVE",
"655 634 CURVE",
"675 656 LINE",
"591 656 LINE",
"591 598 LINE"
);
},
{
closed = 1;
nodes = (
"1055 679 LINE",
"1055 778 OFFCURVE",
"1002 829 OFFCURVE",
"914 829 CURVE SMOOTH",
"841 829 LINE",
"841 770 LINE",
"913 770 LINE SMOOTH",
"953 770 OFFCURVE",
"996 762 OFFCURVE",
"996 679 CURVE"
);
}
);
width = 1094;
}
);
},
{
glyphname = sinTV;
lastChange = "2021-09-08 06:00:46 +0000";
layers = (
{
layerId = "906FCD19-247B-4D81-AD63-2BEA4CF1C003";
paths = (
{
closed = 1;
nodes = (
"132 483 OFFCURVE",
"172 506 OFFCURVE",
"211 506 CURVE SMOOTH",
"254 506 OFFCURVE",
"297 480 OFFCURVE",
"307 436 CURVE",
"349 480 LINE",
"337 526 OFFCURVE",
"277 565 OFFCURVE",
"212 565 CURVE SMOOTH",
"154 565 OFFCURVE",
"87 534 OFFCURVE",
"59 449 CURVE",
"114 432 LINE"
);
},
{
closed = 1;
nodes = (
"332 347 LINE",
"441 320 OFFCURVE",
"449 262 OFFCURVE",
"449 190 CURVE SMOOTH",
"449 115 OFFCURVE",
"401 54 OFFCURVE",
"310 54 CURVE SMOOTH",
"120 54 OFFCURVE",
"160 239 OFFCURVE",
"71 239 CURVE SMOOTH",
"66 239 OFFCURVE",
"61 239 OFFCURVE",
"55 237 CURVE",
"30 188 LINE",
"34 189 OFFCURVE",
"39 190 OFFCURVE",
"44 190 CURVE SMOOTH",
"66 190 OFFCURVE",
"78 171 OFFCURVE",
"90 148 CURVE SMOOTH",
"124 87 OFFCURVE",
"157 -5 OFFCURVE",
"312 -5 CURVE SMOOTH",
"439 -5 OFFCURVE",
"507 79 OFFCURVE",
"507 189 CURVE SMOOTH",
"507 272 OFFCURVE",
"493 360 OFFCURVE",
"374 390 CURVE",
"332 355 LINE"
);
},
{
closed = 1;
nodes = (
"759 59 LINE",
"664 59 OFFCURVE",
"611 122 OFFCURVE",
"611 185 CURVE SMOOTH",
"611 279 OFFCURVE",
"664 298 OFFCURVE",
"776 298 CURVE SMOOTH",
"832 298 LINE",
"832 351 LINE SMOOTH",
"832 489 OFFCURVE",
"687 567 OFFCURVE",
"539 567 CURVE SMOOTH",
"460 567 OFFCURVE",
"380 545 OFFCURVE",
"321 495 CURVE SMOOTH",
"30 249 LINE",
"30 188 LINE",
"86 218 LINE",
"357 447 LINE SMOOTH",
"406 489 OFFCURVE",
"474 510 OFFCURVE",
"541 510 CURVE SMOOTH",
"653 510 OFFCURVE",
"767 452 OFFCURVE",
"772 353 CURVE",
"685 351 OFFCURVE",
"624 341 OFFCURVE",
"586 297 CURVE SMOOTH",
"561 268 OFFCURVE",
"551 230 OFFCURVE",
"551 184 CURVE SMOOTH",
"551 85 OFFCURVE",
"639 -1 OFFCURVE",
"759 -1 CURVE"
);
},
{
closed = 1;
nodes = (
"974 -1 OFFCURVE",
"1042 83 OFFCURVE",
"1042 243 CURVE SMOOTH",
"1042 424 LINE SMOOTH",
"1042 573 OFFCURVE",
"978 656 OFFCURVE",
"819 656 CURVE",
"819 598 LINE",
"919 598 OFFCURVE",
"981 549 OFFCURVE",
"981 421 CURVE SMOOTH",
"981 243 LINE SMOOTH",
"981 106 OFFCURVE",
"914 59 OFFCURVE",
"815 59 CURVE",
"815 -1 LINE"
);
},
{
closed = 1;
nodes = (
"764 598 LINE",
"764 656 LINE",
"696 656 LINE SMOOTH",
"658 656 OFFCURVE",
"638 685 OFFCURVE",
"638 713 CURVE SMOOTH",
"638 741 OFFCURVE",
"657 770 OFFCURVE",
"696 770 CURVE SMOOTH",
"764 770 LINE",
"764 829 LINE",
"704 829 LINE SMOOTH",
"619 829 OFFCURVE",
"581 773 OFFCURVE",
"581 720 CURVE SMOOTH",
"581 683 OFFCURVE",
"600 649 OFFCURVE",
"633 634 CURVE",
"653 656 LINE",
"569 656 LINE",
"569 598 LINE"
);
},
{
closed = 1;
nodes = (
"1033 679 LINE",
"1033 778 OFFCURVE",
"980 829 OFFCURVE",
"892 829 CURVE SMOOTH",
"819 829 LINE",
"819 770 LINE",
"891 770 LINE SMOOTH",
"931 770 OFFCURVE",
"974 762 OFFCURVE",
"974 679 CURVE"
);
}
);
width = 1072;
}
);
userData = {
com.fontlab.hintData = {
hhints = (
{
position = 0;
width = 40;
},
{
position = 309;
width = 40;
},
{
position = 371;
width = 32;
},
{
position = 715;
width = 40;
}
);
vhints = (
{
position = 468;
width = 40;
},
{
position = 552;
width = 40;
},
{
position = 793;
width = 40;
},
{
position = 999;
width = 41;
}
);
};
};
},
{
glyphname = sinTTh;
lastChange = "2021-09-08 06:00:46 +0000";
layers = (
{
components = (
{
alignment = -1;
name = sinTTha;
}
);
layerId = "906FCD19-247B-4D81-AD63-2BEA4CF1C003";
paths = (
{
closed = 1;
nodes = (
"1035 518 LINE",
"1035 819 LINE",
"974 819 LINE",
"974 518 LINE"
);
}
);
width = 1065;
}
);
},
{
glyphname = sinNDh;
lastChange = "2021-09-08 06:00:46 +0000";
layers = (
{
layerId = "906FCD19-247B-4D81-AD63-2BEA4CF1C003";
paths = (
{
closed = 1;
nodes = (
"106 483 OFFCURVE",
"145 506 OFFCURVE",
"184 506 CURVE SMOOTH",
"228 506 OFFCURVE",
"270 480 OFFCURVE",
"281 436 CURVE",
"322 480 LINE",
"310 526 OFFCURVE",
"250 565 OFFCURVE",
"185 565 CURVE SMOOTH",
"127 565 OFFCURVE",
"60 534 OFFCURVE",
"33 449 CURVE",
"87 432 LINE"
);
},
{
closed = 1;
nodes = (
"394 -6 OFFCURVE",
"494 75 OFFCURVE",
"494 206 CURVE SMOOTH",
"494 282 OFFCURVE",
"455 362 OFFCURVE",
"366 393 CURVE",
"334 349 LINE",
"334 345 LINE",
"410 315 OFFCURVE",
"431 259 OFFCURVE",
"431 207 CURVE SMOOTH",
"431 111 OFFCURVE",
"358 55 OFFCURVE",
"273 55 CURVE SMOOTH",
"170 55 OFFCURVE",
"86 137 OFFCURVE",
"86 270 CURVE SMOOTH",
"86 344 LINE",
"30 344 LINE",
"30 256 LINE SMOOTH",
"30 80 OFFCURVE",
"150 -6 OFFCURVE",
"274 -6 CURVE SMOOTH"
);
},
{
closed = 1;
nodes = (
"84 203 LINE SMOOTH",
"149 203 OFFCURVE",
"206 270 OFFCURVE",
"256 335 CURVE SMOOTH",
"334 438 LINE SMOOTH",
"381 500 OFFCURVE",
"451 531 OFFCURVE",
"521 531 CURVE SMOOTH",
"606 531 OFFCURVE",
"693 487 OFFCURVE",
"711 419 CURVE",
"770 419 LINE",
"752 533 OFFCURVE",
"641 592 OFFCURVE",
"528 592 CURVE SMOOTH",
"436 592 OFFCURVE",
"344 553 OFFCURVE",
"292 483 CURVE SMOOTH",
"200 360 LINE SMOOTH",
"174 325 OFFCURVE",
"122 266 OFFCURVE",
"81 266 CURVE SMOOTH",
"65 266 LINE",
"65 203 LINE"
);
},
{
closed = 1;
nodes = (
"744 -2 OFFCURVE",
"785 17 OFFCURVE",
"809 53 CURVE",
"834 17 OFFCURVE",
"877 -2 OFFCURVE",
"925 -2 CURVE SMOOTH",
"1010 -2 OFFCURVE",
"1070 53 OFFCURVE",
"1070 138 CURVE SMOOTH",
"1070 234 LINE",
"1008 234 LINE",
"1008 144 LINE SMOOTH",
"1008 114 OFFCURVE",
"988 58 OFFCURVE",
"921 58 CURVE SMOOTH",
"855 58 OFFCURVE",
"835 114 OFFCURVE",
"835 144 CURVE SMOOTH",
"835 194 LINE",
"781 194 LINE",
"781 144 LINE SMOOTH",
"781 114 OFFCURVE",
"761 58 OFFCURVE",
"695 58 CURVE SMOOTH",
"628 58 OFFCURVE",
"608 114 OFFCURVE",
"608 144 CURVE SMOOTH",
"608 293 LINE SMOOTH",
"608 333 OFFCURVE",
"625 419 OFFCURVE",
"734 419 CURVE SMOOTH",
"770 419 LINE",
"741 475 LINE",
"710 471 LINE SMOOTH",
"587 464 OFFCURVE",
"547 375 OFFCURVE",
"547 298 CURVE SMOOTH",
"547 138 LINE SMOOTH",
"547 53 OFFCURVE",
"609 -2 OFFCURVE",
"695 -2 CURVE SMOOTH"
);
},
{
closed = 1;
nodes = (
"1070 233 LINE",
"1070 423 LINE SMOOTH",
"1070 571 OFFCURVE",
"1004 656 OFFCURVE",
"845 656 CURVE",
"845 597 LINE",
"945 597 OFFCURVE",
"1008 549 OFFCURVE",
"1008 419 CURVE SMOOTH",
"1008 233 LINE"
);
},
{
closed = 1;
nodes = (
"576 683 OFFCURVE",
"594 649 OFFCURVE",
"627 634 CURVE",
"647 656 LINE",
"564 656 LINE",
"564 597 LINE",
"786 597 LINE",
"786 656 LINE",
"691 656 LINE SMOOTH",
"653 656 OFFCURVE",
"633 684 OFFCURVE",
"633 713 CURVE SMOOTH",
"633 742 OFFCURVE",
"653 770 OFFCURVE",
"691 770 CURVE SMOOTH",
"784 770 LINE",
"784 829 LINE",
"698 829 LINE SMOOTH",
"619 829 OFFCURVE",
"576 777 OFFCURVE",
"576 721 CURVE SMOOTH"
);
},
{
closed = 1;
nodes = (
"1062 679 LINE",
"1062 784 OFFCURVE",
"1005 829 OFFCURVE",
"921 829 CURVE SMOOTH",
"839 829 LINE",
"839 770 LINE",
"916 770 LINE SMOOTH",
"962 770 OFFCURVE",
"1003 762 OFFCURVE",
"1003 679 CURVE"
);
}
);
width = 1100;
}
);
},
{
glyphname = sinNV;
lastChange = "2021-09-08 06:00:46 +0000";
layers = (
{
layerId = "906FCD19-247B-4D81-AD63-2BEA4CF1C003";
paths = (
{
closed = 1;
nodes = (
"106 483 OFFCURVE",
"145 506 OFFCURVE",
"184 506 CURVE SMOOTH",
"228 506 OFFCURVE",
"270 480 OFFCURVE",
"281 436 CURVE",
"322 480 LINE",
"310 526 OFFCURVE",
"250 565 OFFCURVE",
"185 565 CURVE SMOOTH",
"127 565 OFFCURVE",
"60 534 OFFCURVE",
"33 449 CURVE",
"87 432 LINE"
);
},
{
closed = 1;
nodes = (
"394 -6 OFFCURVE",
"494 75 OFFCURVE",
"494 206 CURVE SMOOTH",
"494 282 OFFCURVE",
"455 362 OFFCURVE",
"366 393 CURVE",
"334 349 LINE",
"334 345 LINE",
"410 315 OFFCURVE",
"431 259 OFFCURVE",
"431 207 CURVE SMOOTH",
"431 111 OFFCURVE",
"358 55 OFFCURVE",
"273 55 CURVE SMOOTH",
"170 55 OFFCURVE",
"86 137 OFFCURVE",
"86 270 CURVE SMOOTH",
"86 344 LINE",
"30 344 LINE",
"30 256 LINE SMOOTH",
"30 80 OFFCURVE",
"150 -6 OFFCURVE",
"274 -6 CURVE SMOOTH"
);
},
{
closed = 1;
nodes = (
"755 59 LINE",
"660 59 OFFCURVE",
"607 122 OFFCURVE",
"607 185 CURVE SMOOTH",
"607 279 OFFCURVE",
"660 298 OFFCURVE",
"772 298 CURVE SMOOTH",
"828 298 LINE",
"828 348 LINE SMOOTH",
"828 508 OFFCURVE",
"680 584 OFFCURVE",
"534 584 CURVE SMOOTH",
"437 584 OFFCURVE",
"341 550 OFFCURVE",
"292 484 CURVE SMOOTH",
"264 446 OFFCURVE",
"232 403 OFFCURVE",
"200 360 CURVE SMOOTH",
"175 327 OFFCURVE",
"122 266 OFFCURVE",
"81 266 CURVE SMOOTH",
"65 266 LINE",
"65 203 LINE",
"83 203 LINE SMOOTH",
"147 203 OFFCURVE",
"206 270 OFFCURVE",
"256 335 CURVE SMOOTH",
"334 438 LINE SMOOTH",
"376 495 OFFCURVE",
"452 524 OFFCURVE",
"533 524 CURVE SMOOTH",
"649 524 OFFCURVE",
"760 464 OFFCURVE",
"765 354 CURVE",
"677 352 OFFCURVE",
"620 341 OFFCURVE",
"582 297 CURVE SMOOTH",
"557 268 OFFCURVE",
"547 230 OFFCURVE",
"547 184 CURVE SMOOTH",
"547 85 OFFCURVE",
"635 -1 OFFCURVE",
"755 -1 CURVE"
);
},
{
closed = 1;
nodes = (
"970 -1 OFFCURVE",
"1038 83 OFFCURVE",
"1038 243 CURVE SMOOTH",
"1038 424 LINE SMOOTH",
"1038 573 OFFCURVE",
"974 656 OFFCURVE",
"815 656 CURVE",
"815 598 LINE",
"915 598 OFFCURVE",
"977 549 OFFCURVE",
"977 421 CURVE SMOOTH",
"977 243 LINE SMOOTH",
"977 106 OFFCURVE",
"910 59 OFFCURVE",
"811 59 CURVE",
"811 -1 LINE"
);
},
{
closed = 1;
nodes = (
"577 683 OFFCURVE",
"596 649 OFFCURVE",
"629 634 CURVE",
"649 656 LINE",
"565 656 LINE",
"565 598 LINE",
"760 598 LINE",
"760 656 LINE",
"692 656 LINE SMOOTH",
"654 656 OFFCURVE",
"634 685 OFFCURVE",
"634 713 CURVE SMOOTH",
"634 741 OFFCURVE",
"653 770 OFFCURVE",
"692 770 CURVE SMOOTH",
"760 770 LINE",
"760 829 LINE",
"700 829 LINE SMOOTH",
"615 829 OFFCURVE",
"577 773 OFFCURVE",
"577 720 CURVE SMOOTH"
);
},
{
closed = 1;
nodes = (
"1029 679 LINE",
"1029 778 OFFCURVE",
"976 829 OFFCURVE",
"888 829 CURVE SMOOTH",
"815 829 LINE",
"815 770 LINE",
"887 770 LINE SMOOTH",
"927 770 OFFCURVE",
"970 762 OFFCURVE",
"970 679 CURVE"
);
}
);
width = 1068;
}
);
},
{
glyphname = sinNTh;
lastChange = "2021-09-08 06:00:46 +0000";
layers = (
{
components = (
{
alignment = -1;
name = sinNTha;
}
);
layerId = "906FCD19-247B-4D81-AD63-2BEA4CF1C003";
paths = (
{
closed = 1;
nodes = (
"1034 518 LINE",
"1034 819 LINE",
"974 819 LINE",
"974 518 LINE"
);
}
);
width = 1064;
}
);
},
{
glyphname = sinDV;
lastChange = "2021-09-08 06:00:46 +0000";
layers = (
{
components = (
{
alignment = -1;
name = sinV;
transform = "{1, 0, 0, 1, 147, 0}";
}
);
layerId = "906FCD19-247B-4D81-AD63-2BEA4CF1C003";
paths = (
{
closed = 1;
nodes = (
"153 9 LINE",
"94 81 OFFCURVE",
"89 120 OFFCURVE",
"89 201 CURVE SMOOTH",
"89 250 LINE SMOOTH",
"89 330 OFFCURVE",
"114 399 OFFCURVE",
"185 399 CURVE SMOOTH",
"198 399 OFFCURVE",
"214 396 OFFCURVE",
"239 389 CURVE",
"239 443 LINE",
"219 451 OFFCURVE",
"198 454 OFFCURVE",
"179 454 CURVE SMOOTH",
"98 454 OFFCURVE",
"30 392 OFFCURVE",
"30 250 CURVE SMOOTH",
"30 201 LINE SMOOTH",
"30 110 OFFCURVE",
"36 63 OFFCURVE",
"94 -12 CURVE"
);
}
);
width = 698;
}
);
},
{
glyphname = sinDDh;
lastChange = "2021-09-08 06:00:46 +0000";
layers = (
{
components = (
{
alignment = -1;
name = sinDh;
transform = "{1, 0, 0, 1, 151, 0}";
}
);
layerId = "906FCD19-247B-4D81-AD63-2BEA4CF1C003";
paths = (
{
closed = 1;
nodes = (
"145 9 LINE",
"91 83 OFFCURVE",
"89 125 OFFCURVE",
"89 201 CURVE SMOOTH",
"89 286 LINE SMOOTH",
"89 373 OFFCURVE",
"129 419 OFFCURVE",
"235 419 CURVE SMOOTH",
"401 419 LINE",
"401 479 LINE",
"243 479 LINE SMOOTH",
"135 479 OFFCURVE",
"30 445 OFFCURVE",
"30 286 CURVE SMOOTH",
"30 207 LINE SMOOTH",
"30 116 OFFCURVE",
"33 65 OFFCURVE",
"86 -12 CURVE"
);
}
);
width = 734;
}
);
},
{
glyphname = sinTtTth;
lastChange = "2021-09-08 06:00:46 +0000";
layers = (
{
components = (
{
alignment = -1;
name = sinTtTtha;
}
);
layerId = "906FCD19-247B-4D81-AD63-2BEA4CF1C003";
paths = (
{
closed = 1;
nodes = (
"704 518 LINE",
"704 819 LINE",
"643 819 LINE",
"643 518 LINE"
);
}
);
width = 734;
}
);
},
{
glyphname = sinKhI;
lastChange = "2021-09-08 06:00:46 +0000";
layers = (
{
layerId = "906FCD19-247B-4D81-AD63-2BEA4CF1C003";
paths = (
{
closed = 1;
nodes = (
"105 445 OFFCURVE",
"30 391 OFFCURVE",
"30 282 CURVE SMOOTH",
"30 179 LINE SMOOTH",
"30 54 OFFCURVE",
"85 0 OFFCURVE",
"212 0 CURVE",
"212 60 LINE",
"132 60 OFFCURVE",
"90 85 OFFCURVE",
"90 182 CURVE SMOOTH",
"90 279 LINE SMOOTH",
"90 347 OFFCURVE",
"134 381 OFFCURVE",
"179 381 CURVE SMOOTH",
"223 381 OFFCURVE",
"266 347 OFFCURVE",
"266 279 CURVE SMOOTH",
"266 -65 LINE",
"326 -65 LINE",
"326 287 LINE SMOOTH",
"326 393 OFFCURVE",
"254 445 OFFCURVE",
"180 445 CURVE SMOOTH"
);
},
{
closed = 1;
nodes = (
"502 149 LINE SMOOTH",
"502 91 OFFCURVE",
"458 63 OFFCURVE",
"415 63 CURVE SMOOTH",
"371 63 OFFCURVE",
"326 91 OFFCURVE",
"326 149 CURVE SMOOTH",
"326 198 LINE",
"266 198 LINE",
"266 148 LINE SMOOTH",
"266 51 OFFCURVE",
"342 -5 OFFCURVE",
"418 -5 CURVE SMOOTH",
"491 -5 OFFCURVE",
"564 45 OFFCURVE",
"564 153 CURVE SMOOTH",
"564 421 LINE SMOOTH",
"564 575 OFFCURVE",
"495 656 OFFCURVE",
"333 656 CURVE",
"333 597 LINE",
"438 597 OFFCURVE",
"502 548 OFFCURVE",
"502 417 CURVE SMOOTH"
);
},
{
closed = 1;
nodes = (
"51 651 OFFCURVE",
"97 597 OFFCURVE",
"179 597 CURVE SMOOTH",
"333 597 LINE",
"333 656 LINE",
"165 656 LINE SMOOTH",
"127 656 OFFCURVE",
"107 684 OFFCURVE",
"107 713 CURVE SMOOTH",
"107 742 OFFCURVE",
"127 770 OFFCURVE",
"165 770 CURVE SMOOTH",
"260 770 LINE",
"260 829 LINE",
"177 829 LINE SMOOTH",
"97 829 OFFCURVE",
"51 775 OFFCURVE",
"51 713 CURVE SMOOTH"
);
},
{
closed = 1;
nodes = (
"315 829 LINE",
"315 770 LINE",
"398 770 LINE SMOOTH",
"442 770 OFFCURVE",
"483 762 OFFCURVE",
"483 679 CURVE",
"542 679 LINE",
"542 784 OFFCURVE",
"484 829 OFFCURVE",
"398 829 CURVE SMOOTH"
);
}
);
width = 594;
}
);
userData = {
com.fontlab.hintData = {
hhints = (
{
position = 0;
width = 21;
},
{
position = 616;
width = 138;
}
);
vhints = (
{
position = 32;
width = 135;
},
{
position = 262;
width = 135;
},
{
position = 457;
width = 140;
}
);
};
};
},
{
glyphname = sinNgI;
lastChange = "2021-09-08 06:00:46 +0000";
layers = (
{
layerId = "906FCD19-247B-4D81-AD63-2BEA4CF1C003";
paths = (
{
closed = 1;
nodes = (
"93 496 OFFCURVE",
"53 458 OFFCURVE",
"53 397 CURVE",
"105 397 LINE",
"105 408 OFFCURVE",
"108 444 OFFCURVE",
"174 444 CURVE SMOOTH",
"255 444 LINE SMOOTH",
"288 444 OFFCURVE",
"304 421 OFFCURVE",
"304 399 CURVE SMOOTH",
"304 375 OFFCURVE",
"287 350 OFFCURVE",
"253 350 CURVE SMOOTH",
"162 350 LINE SMOOTH",
"62 350 OFFCURVE",
"30 302 OFFCURVE",
"30 221 CURVE SMOOTH",
"30 138 LINE SMOOTH",
"30 53 OFFCURVE",
"92 -2 OFFCURVE",
"178 -2 CURVE SMOOTH",
"227 -2 OFFCURVE",
"268 17 OFFCURVE",
"292 53 CURVE",
"317 17 OFFCURVE",
"360 -2 OFFCURVE",
"408 -2 CURVE SMOOTH",
"493 -2 OFFCURVE",
"553 53 OFFCURVE",
"553 138 CURVE SMOOTH",
"553 234 LINE",
"491 234 LINE",
"491 144 LINE SMOOTH",
"491 114 OFFCURVE",
"471 58 OFFCURVE",
"404 58 CURVE SMOOTH",
"338 58 OFFCURVE",
"318 114 OFFCURVE",
"318 144 CURVE SMOOTH",
"318 194 LINE",
"264 194 LINE",
"264 144 LINE SMOOTH",
"264 114 OFFCURVE",
"244 58 OFFCURVE",
"178 58 CURVE SMOOTH",
"111 58 OFFCURVE",
"91 114 OFFCURVE",
"91 144 CURVE SMOOTH",
"91 226 LINE SMOOTH",
"91 272 OFFCURVE",
"104 298 OFFCURVE",
"209 298 CURVE SMOOTH",
"254 298 LINE SMOOTH",
"321 298 OFFCURVE",
"356 348 OFFCURVE",
"356 398 CURVE SMOOTH",
"356 447 OFFCURVE",
"322 496 OFFCURVE",
"254 496 CURVE SMOOTH",
"173 496 LINE SMOOTH"
);
},
{
closed = 1;
nodes = (
"491 234 LINE",
"553 234 LINE",
"553 421 LINE SMOOTH",
"553 575 OFFCURVE",
"483 656 OFFCURVE",
"322 656 CURVE",
"322 597 LINE",
"427 597 OFFCURVE",
"491 548 OFFCURVE",
"491 417 CURVE SMOOTH"
);
},
{
closed = 1;
nodes = (
"47 651 OFFCURVE",
"93 597 OFFCURVE",
"176 597 CURVE SMOOTH",
"326 597 LINE",
"326 656 LINE",
"161 656 LINE SMOOTH",
"124 656 OFFCURVE",
"104 684 OFFCURVE",
"104 713 CURVE SMOOTH",
"104 742 OFFCURVE",
"124 770 OFFCURVE",
"162 770 CURVE SMOOTH",
"256 770 LINE",
"256 829 LINE",
"174 829 LINE SMOOTH",
"93 829 OFFCURVE",
"47 775 OFFCURVE",
"47 713 CURVE SMOOTH"
);
},
{
closed = 1;
nodes = (
"311 829 LINE",
"311 770 LINE",
"394 770 LINE SMOOTH",
"438 770 OFFCURVE",
"479 762 OFFCURVE",
"479 679 CURVE",
"538 679 LINE",
"538 784 OFFCURVE",
"480 829 OFFCURVE",
"394 829 CURVE SMOOTH"
);
}
);
width = 583;
}
);
userData = {
com.fontlab.hintData = {
hhints = (
{
position = 0;
width = 40;
},
{
position = 241;
width = 1;
},
{
position = 310;
width = 40;
},
{
position = 456;
width = 40;
},
{
position = 612;
width = 40;
},
{
position = 779;
width = 40;
}
);
vhints = (
{
position = 30;
width = 42;
},
{
position = 53;
width = 40;
},
{
position = 214;
width = 36;
},
{
position = 269;
width = 42;
},
{
position = 325;
width = 3;
},
{
position = 495;
width = 40;
},
{
position = 508;
width = 42;
}
);
};
};
},
{
glyphname = sinCI;
lastChange = "2021-09-08 06:00:46 +0000";
layers = (
{
layerId = "906FCD19-247B-4D81-AD63-2BEA4CF1C003";
paths = (
{
closed = 1;
nodes = (
"149 484 OFFCURVE",
"91 460 OFFCURVE",
"75 400 CURVE",
"126 386 LINE",
"138 417 OFFCURVE",
"170 430 OFFCURVE",
"199 430 CURVE SMOOTH",
"241 430 OFFCURVE",
"285 406 OFFCURVE",
"285 355 CURVE SMOOTH",
"285 350 LINE",
"30 350 LINE",
"30 298 LINE",
"108 298 LINE",
"85 270 OFFCURVE",
"72 231 OFFCURVE",
"72 192 CURVE SMOOTH",
"72 96 OFFCURVE",
"140 -1 OFFCURVE",
"280 -1 CURVE",
"280 59 LINE",
"177 59 OFFCURVE",
"134 128 OFFCURVE",
"134 192 CURVE SMOOTH",
"134 246 OFFCURVE",
"166 298 OFFCURVE",
"220 298 CURVE SMOOTH",
"338 298 LINE",
"338 353 LINE SMOOTH",
"338 397 OFFCURVE",
"322 428 OFFCURVE",
"297 450 CURVE SMOOTH",
"271 472 OFFCURVE",
"236 484 OFFCURVE",
"201 484 CURVE SMOOTH"
);
},
{
closed = 1;
nodes = (
"501 244 LINE SMOOTH",
"501 113 OFFCURVE",
"442 59 OFFCURVE",
"336 59 CURVE",
"336 -1 LINE",
"502 -1 OFFCURVE",
"562 95 OFFCURVE",
"562 240 CURVE SMOOTH",
"562 422 LINE SMOOTH",
"562 571 OFFCURVE",
"498 656 OFFCURVE",
"335 656 CURVE",
"335 597 LINE",
"439 597 OFFCURVE",
"501 547 OFFCURVE",
"501 417 CURVE SMOOTH"
);
},
{
closed = 1;
nodes = (
"72 651 OFFCURVE",
"118 597 OFFCURVE",
"201 597 CURVE SMOOTH",
"335 597 LINE",
"335 656 LINE",
"186 656 LINE SMOOTH",
"148 656 OFFCURVE",
"128 684 OFFCURVE",
"128 713 CURVE SMOOTH",
"128 742 OFFCURVE",
"148 770 OFFCURVE",
"186 770 CURVE SMOOTH",
"280 770 LINE",
"280 829 LINE",
"198 829 LINE SMOOTH",
"119 829 OFFCURVE",
"72 775 OFFCURVE",
"72 713 CURVE SMOOTH"
);
},
{
closed = 1;
nodes = (
"336 829 LINE",
"336 770 LINE",
"402 770 LINE SMOOTH",
"446 770 OFFCURVE",
"487 762 OFFCURVE",
"487 679 CURVE",
"546 679 LINE",
"546 784 OFFCURVE",
"488 829 OFFCURVE",
"402 829 CURVE SMOOTH"
);
}
);
width = 592;
}
);
},
{
glyphname = sinChI;
lastChange = "2021-09-08 06:00:46 +0000";
layers = (
{
components = (
{
alignment = -1;
name = sinCha;
}
);
layerId = "906FCD19-247B-4D81-AD63-2BEA4CF1C003";
paths = (
{
closed = 1;
nodes = (
"256 735 LINE SMOOTH",
"176 735 OFFCURVE",
"137 702 OFFCURVE",
"137 634 CURVE SMOOTH",
"137 603 LINE",
"78 603 LINE",
"78 640 LINE SMOOTH",
"78 726 OFFCURVE",
"133 791 OFFCURVE",
"233 791 CURVE SMOOTH",
"465 791 LINE",
"421 735 LINE"
);
}
);
width = 627;
}
);
},
{
glyphname = sinJI;
lastChange = "2021-09-08 06:00:46 +0000";
layers = (
{
components = (
{
alignment = -1;
name = sinJa;
transform = "{1, 0, 0, 1, -2, 0}";
}
);
layerId = "906FCD19-247B-4D81-AD63-2BEA4CF1C003";
paths = (
{
closed = 1;
nodes = (
"256 735 LINE SMOOTH",
"176 735 OFFCURVE",
"137 702 OFFCURVE",
"137 634 CURVE SMOOTH",
"137 603 LINE",
"78 603 LINE",
"78 640 LINE SMOOTH",
"78 726 OFFCURVE",
"133 791 OFFCURVE",
"233 791 CURVE SMOOTH",
"465 791 LINE",
"421 735 LINE"
);
}
);
width = 627;
}
);
},
{
glyphname = sinJhI;
lastChange = "2021-09-08 06:00:46 +0000";
layers = (
{
layerId = "906FCD19-247B-4D81-AD63-2BEA4CF1C003";
paths = (
{
closed = 1;
nodes = (
"126 565 OFFCURVE",
"60 534 OFFCURVE",
"32 449 CURVE",
"87 432 LINE",
"105 483 OFFCURVE",
"145 506 OFFCURVE",
"184 506 CURVE SMOOTH",
"227 506 OFFCURVE",
"270 480 OFFCURVE",
"280 436 CURVE",
"323 479 LINE",
"308 529 OFFCURVE",
"249 565 OFFCURVE",
"186 565 CURVE SMOOTH"
);
},
{
closed = 1;
nodes = (
"86 216 LINE",
"364 453 LINE SMOOTH",
"418 497 OFFCURVE",
"483 519 OFFCURVE",
"542 519 CURVE SMOOTH",
"612 519 OFFCURVE",
"677 489 OFFCURVE",
"699 419 CURVE",
"764 419 LINE",
"737 529 OFFCURVE",
"648 578 OFFCURVE",
"547 578 CURVE SMOOTH",
"473 578 OFFCURVE",
"392 550 OFFCURVE",
"323 497 CURVE",
"30 249 LINE",
"30 189 LINE"
);
},
{
closed = 1;
nodes = (
"221 -5 OFFCURVE",
"254 8 OFFCURVE",
"279 36 CURVE",
"308 9 OFFCURVE",
"346 -5 OFFCURVE",
"383 -5 CURVE SMOOTH",
"447 -5 OFFCURVE",
"508 37 OFFCURVE",
"508 118 CURVE SMOOTH",
"508 236 LINE SMOOTH",
"508 346 OFFCURVE",
"455 378 OFFCURVE",
"382 393 CURVE",
"332 351 LINE",
"420 336 OFFCURVE",
"450 311 OFFCURVE",
"450 232 CURVE SMOOTH",
"450 124 LINE SMOOTH",
"450 80 OFFCURVE",
"411 57 OFFCURVE",
"374 57 CURVE SMOOTH",
"339 57 OFFCURVE",
"305 77 OFFCURVE",
"305 124 CURVE SMOOTH",
"305 194 LINE",
"253 194 LINE",
"253 123 LINE SMOOTH",
"253 77 OFFCURVE",
"222 57 OFFCURVE",
"190 57 CURVE SMOOTH",
"156 57 OFFCURVE",
"121 80 OFFCURVE",
"121 123 CURVE SMOOTH",
"121 173 LINE SMOOTH",
"121 192 OFFCURVE",
"113 237 OFFCURVE",
"53 248 CURVE",
"30 189 LINE",
"34 190 OFFCURVE",
"40 192 OFFCURVE",
"44 192 CURVE SMOOTH",
"64 192 OFFCURVE",
"65 162 OFFCURVE",
"65 141 CURVE SMOOTH",
"65 112 LINE SMOOTH",
"65 40 OFFCURVE",
"126 -5 OFFCURVE",
"188 -5 CURVE SMOOTH"
);
},
{
closed = 1;
nodes = (
"754 -2 OFFCURVE",
"795 17 OFFCURVE",
"819 53 CURVE",
"844 17 OFFCURVE",
"887 -2 OFFCURVE",
"935 -2 CURVE SMOOTH",
"1020 -2 OFFCURVE",
"1080 53 OFFCURVE",
"1080 138 CURVE SMOOTH",
"1080 234 LINE",
"1018 234 LINE",
"1018 144 LINE SMOOTH",
"1018 114 OFFCURVE",
"998 58 OFFCURVE",
"931 58 CURVE SMOOTH",
"865 58 OFFCURVE",
"845 114 OFFCURVE",
"845 144 CURVE SMOOTH",
"845 194 LINE",
"792 194 LINE",
"792 144 LINE SMOOTH",
"792 114 OFFCURVE",
"772 58 OFFCURVE",
"706 58 CURVE SMOOTH",
"639 58 OFFCURVE",
"619 114 OFFCURVE",
"619 144 CURVE SMOOTH",
"619 293 LINE SMOOTH",
"619 333 OFFCURVE",
"636 419 OFFCURVE",
"744 419 CURVE",
"713 471 LINE",
"597 464 OFFCURVE",
"557 375 OFFCURVE",
"557 298 CURVE SMOOTH",
"557 138 LINE SMOOTH",
"557 53 OFFCURVE",
"619 -2 OFFCURVE",
"705 -2 CURVE SMOOTH"
);
},
{
closed = 1;
nodes = (
"1018 233 LINE",
"1080 233 LINE",
"1080 422 LINE SMOOTH",
"1080 574 OFFCURVE",
"1012 655 OFFCURVE",
"851 655 CURVE",
"851 595 LINE",
"955 595 OFFCURVE",
"1018 547 OFFCURVE",
"1018 416 CURVE SMOOTH"
);
},
{
closed = 1;
nodes = (
"585 649 OFFCURVE",
"631 595 OFFCURVE",
"714 595 CURVE SMOOTH",
"796 595 LINE",
"796 655 LINE",
"699 655 LINE SMOOTH",
"662 655 OFFCURVE",
"642 683 OFFCURVE",
"642 711 CURVE SMOOTH",
"642 741 OFFCURVE",
"661 769 OFFCURVE",
"700 769 CURVE SMOOTH",
"796 769 LINE",
"796 829 LINE",
"712 829 LINE SMOOTH",
"631 829 OFFCURVE",
"585 773 OFFCURVE",
"585 711 CURVE SMOOTH"
);
},
{
closed = 1;
nodes = (
"851 829 LINE",
"851 769 LINE",
"922 769 LINE SMOOTH",
"965 769 OFFCURVE",
"1006 761 OFFCURVE",
"1006 678 CURVE",
"1065 678 LINE",
"1065 783 OFFCURVE",
"1008 829 OFFCURVE",
"922 829 CURVE SMOOTH"
);
}
);
width = 1110;
}
);
},
{
glyphname = sinNyjI;
lastChange = "2021-09-08 06:00:46 +0000";
layers = (
{
components = (
{
alignment = -1;
name = sinNyja;
}
);
layerId = "906FCD19-247B-4D81-AD63-2BEA4CF1C003";
paths = (
{
closed = 1;
nodes = (
"406 735 LINE SMOOTH",
"326 735 OFFCURVE",
"286 702 OFFCURVE",
"286 634 CURVE SMOOTH",
"286 603 LINE",
"227 603 LINE",
"227 640 LINE SMOOTH",
"227 726 OFFCURVE",
"282 791 OFFCURVE",
"382 791 CURVE SMOOTH",
"614 791 LINE",
"571 735 LINE"
);
}
);
width = 778;
}
);
},
{
glyphname = sinTtI;
lastChange = "2021-09-08 06:00:46 +0000";
layers = (
{
layerId = "906FCD19-247B-4D81-AD63-2BEA4CF1C003";
paths = (
{
closed = 1;
nodes = (
"235 59 LINE",
"143 59 OFFCURVE",
"90 126 OFFCURVE",
"90 204 CURVE SMOOTH",
"90 268 LINE SMOOTH",
"90 350 OFFCURVE",
"137 411 OFFCURVE",
"235 411 CURVE",
"235 471 LINE",
"67 471 OFFCURVE",
"30 353 OFFCURVE",
"30 268 CURVE SMOOTH",
"30 202 LINE SMOOTH",
"30 116 OFFCURVE",
"86 -1 OFFCURVE",
"235 -1 CURVE"
);
},
{
closed = 1;
nodes = (
"458 -1 OFFCURVE",
"518 95 OFFCURVE",
"518 240 CURVE SMOOTH",
"518 422 LINE SMOOTH",
"518 571 OFFCURVE",
"454 656 OFFCURVE",
"291 656 CURVE",
"291 597 LINE",
"395 597 OFFCURVE",
"457 547 OFFCURVE",
"457 417 CURVE SMOOTH",
"457 244 LINE SMOOTH",
"457 113 OFFCURVE",
"398 59 OFFCURVE",
"292 59 CURVE",
"292 -1 LINE"
);
},
{
closed = 1;
nodes = (
"36 651 OFFCURVE",
"82 597 OFFCURVE",
"165 597 CURVE SMOOTH",
"291 597 LINE",
"291 656 LINE",
"151 656 LINE SMOOTH",
"112 656 OFFCURVE",
"92 684 OFFCURVE",
"92 713 CURVE SMOOTH",
"92 742 OFFCURVE",
"113 770 OFFCURVE",
"151 770 CURVE SMOOTH",
"237 770 LINE",
"237 829 LINE",
"162 829 LINE SMOOTH",
"83 829 OFFCURVE",
"36 775 OFFCURVE",
"36 713 CURVE SMOOTH"
);
},
{
closed = 1;
nodes = (
"502 679 LINE",
"502 784 OFFCURVE",
"445 829 OFFCURVE",
"359 829 CURVE SMOOTH",
"292 829 LINE",
"292 770 LINE",
"359 770 LINE SMOOTH",
"403 770 OFFCURVE",
"443 762 OFFCURVE",
"443 679 CURVE"
);
}
);
width = 547;
}
);
userData = {
com.fontlab.hintData = {
hhints = (
{
position = -5;
width = 140;
},
{
position = 522;
width = 130;
},
{
position = 703;
width = 116;
}
);
vhints = (
{
position = 30;
width = 138;
},
{
position = 388;
width = 140;
}
);
};
};
},
{
glyphname = sinTthI;
lastChange = "2021-09-08 06:00:46 +0000";
layers = (
{
components = (
{
alignment = -1;
name = sinTtha;
transform = "{1, 0, 0, 1, -10, 0}";
}
);
layerId = "906FCD19-247B-4D81-AD63-2BEA4CF1C003";
paths = (
{
closed = 1;
nodes = (
"224 755 LINE",
"184 755 OFFCURVE",
"163 783 OFFCURVE",
"163 811 CURVE SMOOTH",
"163 839 OFFCURVE",
"184 867 OFFCURVE",
"224 867 CURVE SMOOTH",
"386 867 LINE SMOOTH",
"436 867 OFFCURVE",
"485 844 OFFCURVE",
"485 776 CURVE",
"544 776 LINE",
"544 854 OFFCURVE",
"501 922 OFFCURVE",
"395 922 CURVE SMOOTH",
"224 922 LINE SMOOTH",
"143 922 OFFCURVE",
"103 866 OFFCURVE",
"103 811 CURVE SMOOTH",
"103 756 OFFCURVE",
"144 700 OFFCURVE",
"224 700 CURVE"
);
}
);
width = 583;
}
);
},
{
color = 4;
glyphname = sinDdI;
lastChange = "2021-09-23 06:01:07 +0000";
layers = (
{
layerId = "906FCD19-247B-4D81-AD63-2BEA4CF1C003";
paths = (
{
closed = 1;
nodes = (
"172 484 OFFCURVE",
"114 459 OFFCURVE",
"98 399 CURVE",
"149 386 LINE",
"160 416 OFFCURVE",
"192 430 OFFCURVE",
"222 430 CURVE SMOOTH",
"266 430 OFFCURVE",
"308 404 OFFCURVE",
"308 350 CURVE",
"30 350 LINE",
"30 297 LINE",
"98 297 LINE",
"79 288 OFFCURVE",
"74 259 OFFCURVE",
"74 232 CURVE SMOOTH",
"74 138 LINE SMOOTH",
"74 53 OFFCURVE",
"135 -2 OFFCURVE",
"221 -2 CURVE SMOOTH",
"270 -2 OFFCURVE",
"311 17 OFFCURVE",
"335 53 CURVE",
"360 17 OFFCURVE",
"403 -2 OFFCURVE",
"451 -2 CURVE SMOOTH",
"536 -2 OFFCURVE",
"596 53 OFFCURVE",
"596 138 CURVE SMOOTH",
"596 233 LINE",
"534 233 LINE",
"534 144 LINE SMOOTH",
"534 114 OFFCURVE",
"514 58 OFFCURVE",
"447 58 CURVE SMOOTH",
"381 58 OFFCURVE",
"361 114 OFFCURVE",
"361 144 CURVE SMOOTH",
"361 194 LINE",
"307 194 LINE",
"307 144 LINE SMOOTH",
"307 114 OFFCURVE",
"287 58 OFFCURVE",
"221 58 CURVE SMOOTH",
"154 58 OFFCURVE",
"134 114 OFFCURVE",
"134 144 CURVE SMOOTH",
"134 232 LINE SMOOTH",
"134 288 OFFCURVE",
"166 297 OFFCURVE",
"201 297 CURVE SMOOTH",
"361 297 LINE",
"361 353 LINE SMOOTH",
"361 435 OFFCURVE",
"301 484 OFFCURVE",
"224 484 CURVE SMOOTH"
);
},
{
closed = 1;
nodes = (
"534 233 LINE",
"596 233 LINE",
"596 421 LINE SMOOTH",
"596 575 OFFCURVE",
"526 656 OFFCURVE",
"365 656 CURVE",
"365 597 LINE",
"470 597 OFFCURVE",
"534 548 OFFCURVE",
"534 417 CURVE SMOOTH"
);
},
{
closed = 1;
nodes = (
"93 651 OFFCURVE",
"139 597 OFFCURVE",
"221 597 CURVE SMOOTH",
"369 597 LINE",
"369 656 LINE",
"207 656 LINE SMOOTH",
"169 656 OFFCURVE",
"149 684 OFFCURVE",
"149 713 CURVE SMOOTH",
"149 742 OFFCURVE",
"169 770 OFFCURVE",
"207 770 CURVE SMOOTH",
"363 770 LINE",
"363 829 LINE",
"219 829 LINE SMOOTH",
"139 829 OFFCURVE",
"93 775 OFFCURVE",
"93 713 CURVE SMOOTH"
);
},
{
closed = 1;
nodes = (
"358 829 LINE",
"358 770 LINE",
"417 770 LINE SMOOTH",
"481 770 OFFCURVE",
"536 705 OFFCURVE",
"476 602 CURVE",
"543 588 LINE",
"603 753 OFFCURVE",
"523 829 OFFCURVE",
"407 829 CURVE SMOOTH"
);
}
);
width = 626;
}
);
},
{
glyphname = sinDdhI;
lastChange = "2021-09-08 06:00:46 +0000";
layers = (
{
components = (
{
alignment = -1;
name = sinDdha;
}
);
layerId = "906FCD19-247B-4D81-AD63-2BEA4CF1C003";
paths = (
{
closed = 1;
nodes = (
"267 755 LINE",
"227 755 OFFCURVE",
"206 783 OFFCURVE",
"206 811 CURVE SMOOTH",
"206 839 OFFCURVE",
"227 867 OFFCURVE",
"267 867 CURVE SMOOTH",
"429 867 LINE SMOOTH",
"479 867 OFFCURVE",
"528 844 OFFCURVE",
"528 776 CURVE",
"587 776 LINE",
"587 854 OFFCURVE",
"544 922 OFFCURVE",
"438 922 CURVE SMOOTH",
"267 922 LINE SMOOTH",
"186 922 OFFCURVE",
"146 866 OFFCURVE",
"146 811 CURVE SMOOTH",
"146 756 OFFCURVE",
"187 700 OFFCURVE",
"267 700 CURVE"
);
}
);
width = 626;
}
);
},
{
glyphname = sinNnI;
lastChange = "2021-09-08 06:00:46 +0000";
layers = (
{
components = (
{
alignment = -1;
name = sinNna;
}
);
layerId = "906FCD19-247B-4D81-AD63-2BEA4CF1C003";
paths = (
{
closed = 1;
nodes = (
"646 777 OFFCURVE",
"593 743 OFFCURVE",
"593 668 CURVE SMOOTH",
"593 645 LINE",
"649 645 LINE",
"649 650 LINE SMOOTH",
"649 687 OFFCURVE",
"656 724 OFFCURVE",
"722 724 CURVE SMOOTH",
"792 724 LINE SMOOTH",
"858 724 OFFCURVE",
"865 687 OFFCURVE",
"865 650 CURVE SMOOTH",
"865 645 LINE",
"922 645 LINE",
"922 668 LINE SMOOTH",
"922 744 OFFCURVE",
"867 777 OFFCURVE",
"789 777 CURVE SMOOTH",
"724 777 LINE SMOOTH"
);
}
);
width = 974;
}
);
},
